AnekMalayalam-ExpandedThin.ufo
<glyph name="parenleft" format="2">
  <advance width="705"/>
  <unicode hex="0028"/>
  <outline>
    <contour>
      <point x="255" y="572" type="line" smooth="yes"/>
      <point x="255" y="881"/>
      <point x="365" y="1146"/>
      <point x="577" y="1347" type="curve"/>
      <point x="531" y="1347" type="line"/>
      <point x="324" y="1145"/>
      <point x="216" y="880"/>
      <point x="216" y="572" type="curve" smooth="yes"/>
      <point x="216" y="551" type="line" smooth="yes"/>
      <point x="216" y="237"/>
      <point x="324" y="-30"/>
      <point x="531" y="-231" type="curve"/>
      <point x="577" y="-231" type="line"/>
      <point x="365" y="-26"/>
      <point x="255" y="239"/>
      <point x="255" y="551" type="curve" smooth="yes"/>
    </contour>
  </outline>
</glyph>
<glyph name="plus" format="2">
  <advance width="1351"/>
  <unicode hex="002B"/>
  <outline>
    <contour>
      <point x="695" y="1124" type="line"/>
      <point x="657" y="1124" type="line"/>
      <point x="657" y="104" type="line"/>
      <point x="695" y="104" type="line"/>
    </contour>
    <contour>
      <point x="1185" y="597" type="line"/>
      <point x="1185" y="631" type="line"/>
      <point x="166" y="631" type="line"/>
      <point x="166" y="597" type="line"/>
    </contour>
  </outline>
</glyph>
<glyph name="period" format="2">
  <advance width="396"/>
  <unicode hex="002E"/>
  <outline>
    <contour>
      <point x="197" y="-14" type="curve" smooth="yes"/>
      <point x="235" y="-14"/>
      <point x="256" y="4"/>
      <point x="256" y="39" type="curve" smooth="yes"/>
      <point x="256" y="43" type="line" smooth="yes"/>
      <point x="256" y="77"/>
      <point x="235" y="94"/>
      <point x="197" y="94" type="curve" smooth="yes"/>
      <point x="162" y="94"/>
      <point x="140" y="77"/>
      <point x="140" y="43" type="curve" smooth="yes"/>
      <point x="140" y="39" type="line" smooth="yes"/>
      <point x="140" y="4"/>
      <point x="162" y="-14"/>
    </contour>
  </outline>
</glyph>
<glyph name="four" format="2">
  <advance width="1352"/>
  <unicode hex="0034"/>
  <outline>
    <contour>
      <point x="1050" y="0" type="line"/>
      <point x="1050" y="1278" type="line"/>
      <point x="949" y="1278" type="line"/>
      <point x="78" y="373" type="line"/>
      <point x="78" y="309" type="line"/>
      <point x="1324" y="309" type="line"/>
      <point x="1324" y="345" type="line"/>
      <point x="102" y="345" type="line"/>
      <point x="119" y="320" type="line"/>
      <point x="119" y="362" type="line"/>
      <point x="969" y="1244" type="line"/>
      <point x="1012" y="1244" type="line"/>
      <point x="1011" y="998" type="line"/>
      <point x="1011" y="0" type="line"/>
    </contour>
  </outline>
</glyph>
<glyph name="seven" format="2">
  <advance width="1248"/>
  <unicode hex="0037"/>
  <outline>
    <contour>
      <point x="421" y="0" type="line"/>
      <point x="1162" y="1241" type="line"/>
      <point x="1162" y="1278" type="line"/>
      <point x="94" y="1278" type="line"/>
      <point x="94" y="1242" type="line"/>
      <point x="1121" y="1242" type="line"/>
      <point x="375" y="0" type="line"/>
    </contour>
  </outline>
</glyph>
<glyph name="K" format="2">
  <advance width="1506"/>
  <unicode hex="004B"/>
  <anchor x="753" y="0" name="bottom"/>
  <anchor x="753" y="1278" name="top"/>
  <outline>
    <contour>
      <point x="1410" y="0" type="line"/>
      <point x="575" y="664" type="line"/>
      <point x="575" y="640" type="line"/>
      <point x="1394" y="1278" type="line"/>
      <point x="1335" y="1278" type="line"/>
      <point x="552" y="668" type="line"/>
      <point x="266" y="668" type="line"/>
      <point x="266" y="634" type="line"/>
      <point x="550" y="634" type="line"/>
      <point x="1346" y="0" type="line"/>
    </contour>
    <contour>
      <point x="276" y="0" type="line"/>
      <point x="276" y="1278" type="line"/>
      <point x="236" y="1278" type="line"/>
      <point x="236" y="0" type="line"/>
    </contour>
  </outline>
</glyph>
<glyph name="N" format="2">
  <advance width="1658"/>
  <unicode hex="004E"/>
  <anchor x="829" y="0" name="bottom"/>
  <anchor x="829" y="1278" name="top"/>
  <outline>
    <contour>
      <point x="236" y="1278" type="line"/>
      <point x="236" y="0" type="line"/>
      <point x="276" y="0" type="line"/>
      <point x="276" y="609" type="line"/>
      <point x="275" y="1246" type="line"/>
      <point x="293" y="1246" type="line"/>
      <point x="1344" y="0" type="line"/>
      <point x="1422" y="0" type="line"/>
      <point x="1422" y="1278" type="line"/>
      <point x="1382" y="1278" type="line"/>
      <point x="1382" y="586" type="line"/>
      <point x="1383" y="32" type="line"/>
      <point x="1365" y="32" type="line"/>
      <point x="314" y="1278" type="line"/>
    </contour>
  </outline>
</glyph>
<glyph name="X" format="2">
  <advance width="1537"/>
  <unicode hex="0058"/>
  <anchor x="769" y="0" name="bottom"/>
  <anchor x="769" y="1278" name="top"/>
  <outline>
    <contour>
      <point x="146" y="0" type="line"/>
      <point x="762" y="626" type="line"/>
      <point x="776" y="626" type="line"/>
      <point x="1391" y="0" type="line"/>
      <point x="1441" y="0" type="line"/>
      <point x="795" y="656" type="line"/>
      <point x="795" y="649" type="line"/>
      <point x="1434" y="1278" type="line"/>
      <point x="1384" y="1278" type="line"/>
      <point x="776" y="678" type="line"/>
      <point x="762" y="678" type="line"/>
      <point x="153" y="1278" type="line"/>
      <point x="103" y="1278" type="line"/>
      <point x="742" y="649" type="line"/>
      <point x="742" y="656" type="line"/>
      <point x="96" y="0" type="line"/>
    </contour>
  </outline>
</glyph>
<glyph name="Y" format="2">
  <advance width="1480"/>
  <unicode hex="0059"/>
  <anchor x="740" y="0" name="bottom"/>
  <anchor x="740" y="1278" name="top"/>
  <anchor x="20" y="1278" name="topleft"/>
  <outline>
    <contour>
      <point x="757" y="405" type="line"/>
      <point x="1402" y="1278" type="line"/>
      <point x="1355" y="1278" type="line"/>
      <point x="895" y="654" type="line"/>
      <point x="746" y="453" type="line"/>
      <point x="734" y="453" type="line"/>
      <point x="586" y="654" type="line"/>
      <point x="125" y="1278" type="line"/>
      <point x="78" y="1278" type="line"/>
      <point x="723" y="405" type="line"/>
    </contour>
    <contour>
      <point x="759" y="0" type="line"/>
      <point x="759" y="438" type="line"/>
      <point x="721" y="438" type="line"/>
      <point x="721" y="0" type="line"/>
    </contour>
  </outline>
</glyph>
<glyph name="backslash" format="2">
  <advance width="1054"/>
  <unicode hex="005C"/>
  <outline>
    <contour>
      <point x="928" y="-221" type="line"/>
      <point x="82" y="1317" type="line"/>
      <point x="126" y="1317" type="line"/>
      <point x="972" y="-221" type="line"/>
    </contour>
  </outline>
</glyph>
<glyph name="j" format="2">
  <advance width="520"/>
  <unicode hex="006A"/>
  <outline>
    <component base="jbottom"/>
    <contour>
      <point x="314" y="172" type="line"/>
      <point x="314" y="952" type="line"/>
      <point x="276" y="952" type="line"/>
      <point x="276" y="172" type="line"/>
    </contour>
    <contour>
      <point x="294" y="1198" type="curve" smooth="yes"/>
      <point x="332" y="1198"/>
      <point x="353" y="1216"/>
      <point x="353" y="1250" type="curve" smooth="yes"/>
      <point x="353" y="1253" type="line" smooth="yes"/>
      <point x="353" y="1285"/>
      <point x="332" y="1303"/>
      <point x="294" y="1303" type="curve" smooth="yes"/>
      <point x="259" y="1303"/>
      <point x="237" y="1285"/>
      <point x="237" y="1253" type="curve" smooth="yes"/>
      <point x="237" y="1250" type="line" smooth="yes"/>
      <point x="237" y="1216"/>
      <point x="259" y="1198"/>
    </contour>
  </outline>
</glyph>
<glyph name="u" format="2">
  <advance width="1385"/>
  <unicode hex="0075"/>
  <anchor x="693" y="0" name="bottom"/>
  <anchor x="1231" y="0" name="ogonek"/>
  <anchor x="693" y="952" name="top"/>
  <anchor x="1365" y="952" name="topright"/>
  <outline>
    <contour>
      <point x="180" y="952" type="line"/>
      <point x="180" y="420" type="line" smooth="yes"/>
      <point x="180" y="153"/>
      <point x="293" y="-25"/>
      <point x="645" y="-25" type="curve" smooth="yes"/>
      <point x="960" y="-25"/>
      <point x="1145" y="165"/>
      <point x="1163" y="366" type="curve"/>
      <point x="1172" y="366" type="line"/>
      <point x="1156" y="395" type="line"/>
      <point x="1124" y="178"/>
      <point x="932" y="9"/>
      <point x="650" y="9" type="curve" smooth="yes"/>
      <point x="330" y="9"/>
      <point x="218" y="171"/>
      <point x="218" y="429" type="curve" smooth="yes"/>
      <point x="218" y="952" type="line"/>
    </contour>
    <contour>
      <point x="1145" y="952" type="line"/>
      <point x="1145" y="320" type="line"/>
      <point x="1149" y="320" type="line"/>
      <point x="1145" y="0" type="line"/>
      <point x="1183" y="0" type="line"/>
      <point x="1183" y="952" type="line"/>
    </contour>
  </outline>
</glyph>
<glyph name="y" format="2">
  <advance width="1291"/>
  <unicode hex="0079"/>
  <anchor x="877" y="0" name="bottom"/>
  <anchor x="646" y="952" name="top"/>
  <outline>
    <contour>
      <point x="630" y="59" type="line"/>
      <point x="115" y="952" type="line"/>
      <point x="72" y="952" type="line"/>
      <point x="607" y="27" type="line"/>
      <point x="658" y="27" type="line"/>
      <point x="651" y="37" type="line"/>
      <point x="434" y="-338" type="line"/>
      <point x="477" y="-338" type="line"/>
      <point x="1219" y="952" type="line"/>
      <point x="1176" y="952" type="line"/>
      <point x="656" y="50" type="line"/>
      <point x="674" y="59" type="line"/>
    </contour>
  </outline>
</glyph>
<glyph name="cent" format="2">
  <advance width="1245"/>
  <unicode hex="00A2"/>
  <outline>
    <component base="c"/>
    <contour>
      <point x="701" y="1225" type="line"/>
      <point x="665" y="1225" type="line"/>
      <point x="665" y="961.936" type="line"/>
      <point x="701" y="961.936" type="line"/>
    </contour>
    <contour>
      <point x="701" y="-4.67499" type="line"/>
      <point x="665" y="-4.67499" type="line"/>
      <point x="665" y="-270" type="line"/>
      <point x="701" y="-270" type="line"/>
    </contour>
  </outline>
</glyph>
<glyph name="micro" format="2">
  <advance width="1407"/>
  <unicode hex="00B5"/>
  <outline>
    <contour>
      <point x="1167" y="952" type="line"/>
      <point x="1167" y="320" type="line"/>
      <point x="1171" y="320" type="line"/>
      <point x="1167" y="0" type="line"/>
      <point x="1205" y="0" type="line"/>
      <point x="1205" y="952" type="line"/>
    </contour>
    <contour>
      <point x="240" y="952" type="line"/>
      <point x="202" y="952" type="line"/>
      <point x="202" y="-338" type="line"/>
      <point x="240" y="-338" type="line"/>
      <point x="240" y="-160" type="line"/>
      <point x="232" y="282" type="line"/>
      <point x="230" y="282" type="line"/>
      <point x="276" y="87"/>
      <point x="458" y="-25"/>
      <point x="680" y="-25" type="curve" smooth="yes"/>
      <point x="982" y="-25"/>
      <point x="1167" y="165"/>
      <point x="1185" y="366" type="curve"/>
      <point x="1194" y="366" type="line"/>
      <point x="1178" y="395" type="line"/>
      <point x="1146" y="178"/>
      <point x="954" y="9"/>
      <point x="685" y="9" type="curve" smooth="yes"/>
      <point x="470" y="9"/>
      <point x="236" y="131"/>
      <point x="236" y="427" type="curve"/>
    </contour>
  </outline>
</glyph>
<glyph name="questiondown" format="2">
  <advance width="1293"/>
  <unicode hex="00BF"/>
  <outline>
    <contour>
      <point x="702" y="484" type="line" smooth="yes"/>
      <point x="324" y="451"/>
      <point x="134" y="304"/>
      <point x="134" y="55" type="curve" smooth="yes"/>
      <point x="134" y="38" type="line" smooth="yes"/>
      <point x="134" y="-203"/>
      <point x="282" y="-343"/>
      <point x="638" y="-343" type="curve" smooth="yes"/>
      <point x="899" y="-343"/>
      <point x="1088" y="-250"/>
      <point x="1188" y="-177" type="curve"/>
      <point x="1193" y="-135" type="line"/>
      <point x="1072" y="-224"/>
      <point x="874" y="-307"/>
      <point x="638" y="-307" type="curve" smooth="yes"/>
      <point x="303" y="-307"/>
      <point x="171" y="-180"/>
      <point x="171" y="38" type="curve" smooth="yes"/>
      <point x="171" y="54" type="line" smooth="yes"/>
      <point x="171" y="288"/>
      <point x="362" y="421"/>
      <point x="709" y="450" type="curve" smooth="yes"/>
      <point x="805" y="458" type="line"/>
      <point x="805" y="493" type="line"/>
    </contour>
    <contour>
      <point x="764" y="966" type="curve" smooth="yes"/>
      <point x="726" y="966"/>
      <point x="705" y="948"/>
      <point x="705" y="913" type="curve" smooth="yes"/>
      <point x="705" y="909" type="line" smooth="yes"/>
      <point x="705" y="875"/>
      <point x="726" y="858"/>
      <point x="764" y="858" type="curve" smooth="yes"/>
      <point x="799" y="858"/>
      <point x="821" y="875"/>
      <point x="821" y="909" type="curve" smooth="yes"/>
      <point x="821" y="913" type="line" smooth="yes"/>
      <point x="821" y="948"/>
      <point x="799" y="966"/>
    </contour>
  </outline>
</glyph>
<glyph name="combininganusvaraabovesign.mlm" format="2">
  <unicode hex="0D00"/>
  <outline>
    <contour>
      <point x="-1118" y="1524" type="line" smooth="yes"/>
      <point x="-1118" y="1373"/>
      <point x="-1017" y="1288"/>
      <point x="-829" y="1288" type="curve" smooth="yes"/>
      <point x="-641" y="1288"/>
      <point x="-540" y="1373"/>
      <point x="-540" y="1524" type="curve" smooth="yes"/>
      <point x="-540" y="1529" type="line" smooth="yes"/>
      <point x="-540" y="1680"/>
      <point x="-641" y="1765"/>
      <point x="-829" y="1765" type="curve" smooth="yes"/>
      <point x="-1017" y="1765"/>
      <point x="-1118" y="1680"/>
      <point x="-1118" y="1529" type="curve" smooth="yes"/>
    </contour>
    <contour>
      <point x="-576" y="1524" type="line" smooth="yes"/>
      <point x="-576" y="1394"/>
      <point x="-666" y="1322"/>
      <point x="-829" y="1322" type="curve" smooth="yes" name="n03.1"/>
      <point x="-992" y="1322"/>
      <point x="-1082" y="1394"/>
      <point x="-1082" y="1524" type="curve" smooth="yes"/>
      <point x="-1082" y="1529" type="line" smooth="yes"/>
      <point x="-1082" y="1657"/>
      <point x="-992" y="1732"/>
      <point x="-829" y="1732" type="curve" smooth="yes" name="n03"/>
      <point x="-666" y="1732"/>
      <point x="-576" y="1657"/>
      <point x="-576" y="1529" type="curve" smooth="yes"/>
    </contour>
  </outline>
</glyph>
<glyph name="Anuswara.mlm" format="2">
  <advance width="1200"/>
  <unicode hex="0D02"/>
  <outline>
    <contour>
      <point x="1006" y="368" type="curve" smooth="yes"/>
      <point x="1006" y="350" type="line" smooth="yes"/>
      <point x="1006" y="131"/>
      <point x="862" y="9"/>
      <point x="600" y="9" type="curve" smooth="yes"/>
      <point x="338" y="9"/>
      <point x="194" y="131"/>
      <point x="194" y="350" type="curve" smooth="yes"/>
      <point x="194" y="368" type="line" smooth="yes"/>
      <point x="194" y="585"/>
      <point x="338" y="709"/>
      <point x="600" y="709" type="curve" smooth="yes"/>
      <point x="862" y="709"/>
      <point x="1006" y="585"/>
    </contour>
    <contour>
      <point x="155" y="368" type="curve" smooth="yes"/>
      <point x="155" y="350" type="line" smooth="yes"/>
      <point x="155" y="108"/>
      <point x="312" y="-26"/>
      <point x="600" y="-26" type="curve" smooth="yes"/>
      <point x="888" y="-26"/>
      <point x="1045" y="108"/>
      <point x="1045" y="350" type="curve" smooth="yes"/>
      <point x="1045" y="368" type="line" smooth="yes"/>
      <point x="1045" y="608"/>
      <point x="888" y="744"/>
      <point x="600" y="744" type="curve" smooth="yes"/>
      <point x="312" y="744"/>
      <point x="155" y="608"/>
    </contour>
  </outline>
</glyph>
<glyph name="Visarga.mlm" format="2">
  <advance width="912"/>
  <unicode hex="0D03"/>
  <outline>
    <contour>
      <point x="759" y="241" type="curve" smooth="yes"/>
      <point x="759" y="234" type="line" smooth="yes"/>
      <point x="759" y="89"/>
      <point x="650" y="9"/>
      <point x="456" y="9" type="curve" smooth="yes"/>
      <point x="262" y="9"/>
      <point x="153" y="89"/>
      <point x="153" y="234" type="curve" smooth="yes"/>
      <point x="153" y="241" type="line" smooth="yes"/>
      <point x="153" y="386"/>
      <point x="262" y="466"/>
      <point x="456" y="466" type="curve" smooth="yes"/>
      <point x="650" y="466"/>
      <point x="759" y="386"/>
    </contour>
    <contour>
      <point x="114" y="241" type="curve" smooth="yes"/>
      <point x="114" y="234" type="line" smooth="yes"/>
      <point x="114" y="67"/>
      <point x="234" y="-26"/>
      <point x="456" y="-26" type="curve" smooth="yes"/>
      <point x="678" y="-26"/>
      <point x="798" y="67"/>
      <point x="798" y="234" type="curve" smooth="yes"/>
      <point x="798" y="241" type="line" smooth="yes"/>
      <point x="798" y="407"/>
      <point x="678" y="501"/>
      <point x="456" y="501" type="curve" smooth="yes"/>
      <point x="234" y="501"/>
      <point x="114" y="407"/>
    </contour>
    <contour>
      <point x="759" y="901" type="curve" smooth="yes"/>
      <point x="759" y="894" type="line" smooth="yes"/>
      <point x="759" y="751"/>
      <point x="650" y="672"/>
      <point x="456" y="672" type="curve" smooth="yes"/>
      <point x="262" y="672"/>
      <point x="153" y="751"/>
      <point x="153" y="894" type="curve" smooth="yes"/>
      <point x="153" y="901" type="line" smooth="yes"/>
      <point x="153" y="1044"/>
      <point x="262" y="1123"/>
      <point x="456" y="1123" type="curve" smooth="yes"/>
      <point x="650" y="1123"/>
      <point x="759" y="1044"/>
    </contour>
    <contour>
      <point x="114" y="901" type="curve" smooth="yes"/>
      <point x="114" y="894" type="line" smooth="yes"/>
      <point x="114" y="729"/>
      <point x="234" y="637"/>
      <point x="456" y="637" type="curve" smooth="yes"/>
      <point x="678" y="637"/>
      <point x="798" y="729"/>
      <point x="798" y="894" type="curve" smooth="yes"/>
      <point x="798" y="901" type="line" smooth="yes"/>
      <point x="798" y="1066"/>
      <point x="678" y="1158"/>
      <point x="456" y="1158" type="curve" smooth="yes"/>
      <point x="234" y="1158"/>
      <point x="114" y="1066"/>
    </contour>
  </outline>
</glyph>
<glyph name="vowelU.mlm" format="2">
  <advance width="1781"/>
  <unicode hex="0D09"/>
  <outline>
    <contour>
      <point x="885" y="1158" type="curve" smooth="yes"/>
      <point x="406" y="1158"/>
      <point x="174" y="990"/>
      <point x="174" y="650" type="curve" smooth="yes"/>
      <point x="174" y="637" type="line" smooth="yes"/>
      <point x="174" y="384"/>
      <point x="313" y="249"/>
      <point x="580" y="249" type="curve" smooth="yes"/>
      <point x="816" y="249"/>
      <point x="950" y="355"/>
      <point x="950" y="549" type="curve" smooth="yes"/>
      <point x="950" y="560" type="line" smooth="yes"/>
      <point x="950" y="747"/>
      <point x="816" y="852"/>
      <point x="582" y="852" type="curve" smooth="yes"/>
      <point x="390.995" y="852"/>
      <point x="240.777" y="760.198"/>
      <point x="198" y="623" type="curve"/>
      <point x="212" y="607" type="line"/>
      <point x="265.71" y="735.221"/>
      <point x="397.995" y="817"/>
      <point x="582" y="817" type="curve" smooth="yes"/>
      <point x="791" y="817"/>
      <point x="911" y="724"/>
      <point x="911" y="560" type="curve" smooth="yes"/>
      <point x="911" y="549" type="line" smooth="yes"/>
      <point x="911" y="378"/>
      <point x="791" y="284"/>
      <point x="580" y="284" type="curve" smooth="yes"/>
      <point x="338" y="284"/>
      <point x="212" y="407"/>
      <point x="212" y="637" type="curve"/>
      <point x="212" y="639" type="line"/>
      <point x="219" y="657.921" type="line"/>
      <point x="212" y="657.921" type="line"/>
      <point x="212.045" y="657.804" type="line"/>
      <point x="211.642" y="963.56"/>
      <point x="433.733" y="1123"/>
      <point x="885" y="1123" type="curve" smooth="yes"/>
      <point x="1344" y="1123"/>
      <point x="1564" y="947"/>
      <point x="1564" y="598" type="curve" smooth="yes"/>
      <point x="1564" y="581" type="line" smooth="yes"/>
      <point x="1564" y="226"/>
      <point x="1341" y="51"/>
      <point x="946" y="51" type="curve" smooth="yes"/>
      <point x="443" y="51" type="line" smooth="yes"/>
      <point x="267" y="51"/>
      <point x="174" y="-26"/>
      <point x="174" y="-181" type="curve" smooth="yes"/>
      <point x="174" y="-338"/>
      <point x="267" y="-415"/>
      <point x="443" y="-415" type="curve" smooth="yes"/>
      <point x="1584" y="-415" type="line"/>
      <point x="1596" y="-382" type="line"/>
      <point x="443" y="-382" type="line" smooth="yes"/>
      <point x="294" y="-382"/>
      <point x="213" y="-317"/>
      <point x="213" y="-181" type="curve" smooth="yes"/>
      <point x="213" y="-47"/>
      <point x="294" y="18"/>
      <point x="443" y="18" type="curve" smooth="yes"/>
      <point x="948" y="18" type="line" smooth="yes"/>
      <point x="1371" y="18"/>
      <point x="1603" y="207"/>
      <point x="1603" y="581" type="curve" smooth="yes"/>
      <point x="1603" y="598" type="line" smooth="yes"/>
      <point x="1603" y="970"/>
      <point x="1371" y="1158"/>
    </contour>
  </outline>
</glyph>
<glyph name="vowelRu.mlm" format="2">
  <advance width="2070"/>
  <unicode hex="0D0B"/>
  <outline>
    <contour>
      <point x="540" y="1153" type="curve" smooth="yes"/>
      <point x="278" y="1153"/>
      <point x="142" y="1012"/>
      <point x="142" y="769" type="curve" smooth="yes"/>
      <point x="142" y="746" type="line" smooth="yes"/>
      <point x="142" y="466.149"/>
      <point x="334" y="307.8"/>
      <point x="719" y="259" type="curve" smooth="yes"/>
      <point x="734.013" y="257.097"/>
      <point x="751" y="255"/>
      <point x="767" y="253" type="curve"/>
      <point x="999" y="275" type="line"/>
      <point x="452" y="275"/>
      <point x="179" y="427.353"/>
      <point x="179" y="746" type="curve"/>
      <point x="179" y="746" type="line"/>
      <point x="189" y="746" type="line"/>
      <point x="179" y="767" type="line"/>
      <point x="179" y="769" type="line"/>
      <point x="179" y="989"/>
      <point x="302" y="1118"/>
      <point x="540" y="1118" type="curve" smooth="yes"/>
      <point x="739" y="1118"/>
      <point x="860" y="1029"/>
      <point x="860" y="857" type="curve" smooth="yes"/>
      <point x="860" y="847" type="line" smooth="yes"/>
      <point x="860" y="685"/>
      <point x="745" y="589"/>
      <point x="550" y="589" type="curve" smooth="yes"/>
      <point x="367" y="589"/>
      <point x="237" y="671.174"/>
      <point x="179" y="799" type="curve"/>
      <point x="164" y="780" type="line"/>
      <point x="211.876" y="646.821"/>
      <point x="355.504" y="554"/>
      <point x="550" y="554" type="curve" smooth="yes"/>
      <point x="770" y="554"/>
      <point x="899" y="665"/>
      <point x="899" y="847" type="curve" smooth="yes"/>
      <point x="899" y="857" type="line" smooth="yes"/>
      <point x="899" y="1048"/>
      <point x="765" y="1153"/>
    </contour>
    <contour>
      <point x="1120" y="-331" type="line" smooth="yes"/>
      <point x="1542" y="-331"/>
      <point x="1766" y="-237"/>
      <point x="1766" y="-28" type="curve" smooth="yes"/>
      <point x="1766" y="136"/>
      <point x="1624" y="229"/>
      <point x="1352" y="259" type="curve"/>
      <point x="1352" y="264" type="line"/>
      <point x="1122" y="275" type="line"/>
      <point x="948" y="275" type="line"/>
      <point x="719" y="265" type="line"/>
      <point x="719" y="258" type="line"/>
      <point x="446" y="227"/>
      <point x="304" y="136"/>
      <point x="304" y="-28" type="curve" smooth="yes"/>
      <point x="304" y="-237"/>
      <point x="527" y="-331"/>
      <point x="948" y="-331" type="curve" smooth="yes"/>
    </contour>
    <contour>
      <point x="1122" y="241" type="line" smooth="yes"/>
      <point x="1513" y="241"/>
      <point x="1726" y="160"/>
      <point x="1726" y="-28" type="curve" smooth="yes"/>
      <point x="1726" y="-216"/>
      <point x="1513" y="-297"/>
      <point x="1122" y="-297" type="curve" smooth="yes"/>
      <point x="950" y="-297" type="line" smooth="yes"/>
      <point x="557" y="-297"/>
      <point x="343" y="-216"/>
      <point x="343" y="-28" type="curve" smooth="yes"/>
      <point x="343" y="160"/>
      <point x="557" y="241"/>
      <point x="950" y="241" type="curve" smooth="yes"/>
    </contour>
    <contour>
      <point x="1891" y="746" type="line"/>
      <point x="1891" y="427.353"/>
      <point x="1618" y="275"/>
      <point x="1071" y="275" type="curve"/>
      <point x="1303" y="253" type="line"/>
      <point x="1320" y="255"/>
      <point x="1336" y="258"/>
      <point x="1352" y="260" type="curve" smooth="yes"/>
      <point x="1736" y="309"/>
      <point x="1928" y="467"/>
      <point x="1928" y="748" type="curve" smooth="yes"/>
      <point x="1928" y="769" type="line" smooth="yes"/>
      <point x="1928" y="1012"/>
      <point x="1792" y="1153"/>
      <point x="1530" y="1153" type="curve" smooth="yes"/>
      <point x="1305" y="1153"/>
      <point x="1171" y="1048"/>
      <point x="1171" y="857" type="curve" smooth="yes"/>
      <point x="1171" y="847" type="line" smooth="yes"/>
      <point x="1171" y="665"/>
      <point x="1300" y="554"/>
      <point x="1520" y="554" type="curve" smooth="yes"/>
      <point x="1715" y="554"/>
      <point x="1859" y="647.643"/>
      <point x="1907" y="782" type="curve"/>
      <point x="1891" y="800" type="line"/>
      <point x="1833" y="671.565"/>
      <point x="1703" y="589"/>
      <point x="1520" y="589" type="curve" smooth="yes"/>
      <point x="1325" y="589"/>
      <point x="1210" y="685"/>
      <point x="1210" y="847" type="curve" smooth="yes"/>
      <point x="1210" y="857" type="line" smooth="yes"/>
      <point x="1210" y="1029"/>
      <point x="1331" y="1118"/>
      <point x="1530" y="1118" type="curve" smooth="yes"/>
      <point x="1768" y="1118"/>
      <point x="1891" y="989"/>
      <point x="1891" y="769" type="curve"/>
      <point x="1891" y="767" type="line"/>
      <point x="1880" y="746" type="line"/>
      <point x="1891" y="746" type="line"/>
    </contour>
  </outline>
</glyph>
<glyph name="vowelLru.mlm" format="2">
  <advance width="2947"/>
  <unicode hex="0D0C"/>
  <outline>
    <contour>
      <point x="844" y="1153" type="curve" smooth="yes"/>
      <point x="399" y="1153"/>
      <point x="174" y="926"/>
      <point x="174" y="465" type="curve" smooth="yes"/>
      <point x="174" y="444" type="line" smooth="yes"/>
      <point x="174" y="136"/>
      <point x="325" y="-32"/>
      <point x="609" y="-32" type="curve" smooth="yes"/>
      <point x="863" y="-32"/>
      <point x="1007" y="98"/>
      <point x="1007" y="327" type="curve" smooth="yes"/>
      <point x="1007" y="337" type="line" smooth="yes"/>
      <point x="1007" y="561"/>
      <point x="863" y="688"/>
      <point x="611" y="688" type="curve" smooth="yes"/>
      <point x="405" y="688"/>
      <point x="247" y="583"/>
      <point x="198" y="430" type="curve"/>
      <point x="212" y="414" type="line"/>
      <point x="274" y="559"/>
      <point x="412" y="653"/>
      <point x="611" y="653" type="curve" smooth="yes"/>
      <point x="838" y="653"/>
      <point x="968" y="538"/>
      <point x="968" y="337" type="curve" smooth="yes"/>
      <point x="968" y="327" type="line" smooth="yes"/>
      <point x="968" y="119"/>
      <point x="838" y="3"/>
      <point x="609" y="3" type="curve" smooth="yes"/>
      <point x="351" y="3"/>
      <point x="212" y="158"/>
      <point x="212" y="444" type="curve"/>
      <point x="212" y="445" type="line"/>
      <point x="219" y="466" type="line"/>
      <point x="212" y="466" type="line"/>
      <point x="212" y="466" type="line"/>
      <point x="212" y="904"/>
      <point x="425" y="1118"/>
      <point x="844" y="1118" type="curve" smooth="yes"/>
      <point x="1249" y="1118"/>
      <point x="1452" y="938"/>
      <point x="1452" y="621" type="curve" smooth="yes"/>
      <point x="1452" y="549" type="line"/>
      <point x="1466" y="549" type="line"/>
      <point x="1469" y="755" type="line"/>
      <point x="1411" y="1035"/>
      <point x="1180" y="1153"/>
    </contour>
    <contour>
      <point x="1452" y="7" type="line"/>
      <point x="1489" y="7" type="line"/>
      <point x="1489" y="612" type="line"/>
      <point x="1452" y="612" type="line"/>
    </contour>
    <contour>
      <point x="2084" y="1153" type="curve" smooth="yes"/>
      <point x="1755" y="1153"/>
      <point x="1527" y="1035"/>
      <point x="1471" y="755" type="curve"/>
      <point x="1462" y="755" type="line"/>
      <point x="1464" y="549" type="line"/>
      <point x="1489" y="549" type="line"/>
      <point x="1489" y="621" type="line" smooth="yes"/>
      <point x="1489" y="938"/>
      <point x="1688" y="1118"/>
      <point x="2084" y="1118" type="curve" smooth="yes"/>
      <point x="2501.36" y="1118"/>
      <point x="2710.04" y="910.963"/>
      <point x="2735" y="560" type="curve"/>
      <point x="2735" y="560" type="line"/>
      <point x="2726" y="560" type="line"/>
      <point x="2736" y="532" type="line"/>
      <point x="2736" y="493" type="line" smooth="yes"/>
      <point x="2736" y="173"/>
      <point x="2612" y="3"/>
      <point x="2346" y="3" type="curve" smooth="yes"/>
      <point x="2116" y="3"/>
      <point x="1974" y="123"/>
      <point x="1974" y="342" type="curve" smooth="yes"/>
      <point x="1974" y="353" type="line" smooth="yes"/>
      <point x="1974" y="566"/>
      <point x="2100" y="684"/>
      <point x="2343" y="684" type="curve" smooth="yes"/>
      <point x="2518" y="684"/>
      <point x="2643" y="626"/>
      <point x="2736" y="523" type="curve"/>
      <point x="2743" y="551" type="line"/>
      <point x="2660" y="649"/>
      <point x="2529" y="719"/>
      <point x="2343" y="719" type="curve" smooth="yes"/>
      <point x="2075" y="719"/>
      <point x="1935" y="589"/>
      <point x="1935" y="353" type="curve" smooth="yes"/>
      <point x="1935" y="342" type="line" smooth="yes"/>
      <point x="1935" y="103"/>
      <point x="2091" y="-32"/>
      <point x="2346" y="-32" type="curve" smooth="yes"/>
      <point x="2634" y="-32"/>
      <point x="2774" y="151"/>
      <point x="2774" y="484" type="curve" smooth="yes"/>
      <point x="2774" y="500" type="line" smooth="yes"/>
      <point x="2774" y="917"/>
      <point x="2543" y="1153"/>
    </contour>
  </outline>
</glyph>
<glyph name="vowelshortE.mlm" format="2">
  <advance width="3260"/>
  <unicode hex="0D0E"/>
  <outline>
    <contour>
      <point x="630" y="741" type="curve" smooth="yes"/>
      <point x="319" y="741"/>
      <point x="167" y="604"/>
      <point x="167" y="345" type="curve" smooth="yes"/>
      <point x="167" y="331" type="line" smooth="yes"/>
      <point x="167" y="203"/>
      <point x="217" y="84"/>
      <point x="310" y="0" type="curve"/>
      <point x="363" y="0" type="line"/>
      <point x="263" y="86"/>
      <point x="206" y="203"/>
      <point x="206" y="331" type="curve" smooth="yes"/>
      <point x="206" y="345" type="line" smooth="yes"/>
      <point x="206" y="583"/>
      <point x="349" y="706"/>
      <point x="630" y="706" type="curve" smooth="yes"/>
      <point x="911" y="706"/>
      <point x="1054" y="583"/>
      <point x="1054" y="345" type="curve" smooth="yes"/>
      <point x="1054" y="331" type="line" smooth="yes"/>
      <point x="1054" y="206"/>
      <point x="995" y="89"/>
      <point x="891" y="5" type="curve"/>
      <point x="891" y="0" type="line"/>
      <point x="933" y="0" type="line"/>
      <point x="1038" y="84"/>
      <point x="1093" y="203"/>
      <point x="1093" y="331" type="curve" smooth="yes"/>
      <point x="1093" y="345" type="line" smooth="yes"/>
      <point x="1093" y="604"/>
      <point x="941" y="741"/>
    </contour>
    <contour>
      <point x="949" y="32" type="line"/>
      <point x="891" y="0" type="line"/>
      <point x="1601" y="0" type="line"/>
      <point x="1613" y="0" type="line"/>
      <point x="2339" y="0" type="line"/>
      <point x="2341" y="32" type="line"/>
    </contour>
    <contour>
      <point x="2334" y="1158" type="curve" smooth="yes"/>
      <point x="1827" y="1158"/>
      <point x="1565" y="878"/>
      <point x="1565" y="329" type="curve" smooth="yes"/>
      <point x="1565" y="297" type="line" smooth="yes"/>
      <point x="1565" y="-214"/>
      <point x="1713" y="-459"/>
      <point x="2021" y="-459" type="curve" smooth="yes"/>
      <point x="2253" y="-459"/>
      <point x="2366" y="-334"/>
      <point x="2366" y="-74" type="curve" smooth="yes"/>
      <point x="2366" y="959" type="line"/>
      <point x="2329" y="959" type="line"/>
      <point x="2329" y="16" type="line"/>
      <point x="2329" y="9" type="line"/>
      <point x="2329" y="-74" type="line" smooth="yes"/>
      <point x="2329" y="-312"/>
      <point x="2229" y="-425"/>
      <point x="2021" y="-425" type="curve" smooth="yes"/>
      <point x="1765" y="-425"/>
      <point x="1663" y="-224"/>
      <point x="1624" y="4" type="curve"/>
      <point x="1622" y="12" type="line"/>
      <point x="1620" y="21" type="line"/>
      <point x="1608" y="115"/>
      <point x="1603" y="212"/>
      <point x="1603" y="299" type="curve" smooth="yes" name="n14"/>
      <point x="1603" y="329" type="line" smooth="yes"/>
      <point x="1603" y="855"/>
      <point x="1853" y="1123"/>
      <point x="2334" y="1123" type="curve" smooth="yes"/>
      <point x="2799" y="1123"/>
      <point x="3046" y="857"/>
      <point x="3046" y="329" type="curve" smooth="yes"/>
      <point x="3046" y="315" type="line" smooth="yes"/>
      <point x="3046" y="32"/>
      <point x="2958" y="-214"/>
      <point x="2788" y="-407" type="curve"/>
      <point x="2835" y="-407" type="line"/>
      <point x="2993" y="-231"/>
      <point x="3085" y="32"/>
      <point x="3085" y="315" type="curve" smooth="yes"/>
      <point x="3085" y="329" type="line" smooth="yes"/>
      <point x="3085" y="880"/>
      <point x="2825" y="1158"/>
    </contour>
  </outline>
</glyph>
<glyph name="vowelshortO.mlm" format="2">
  <advance width="1925"/>
  <unicode hex="0D12"/>
  <outline>
    <contour>
      <point x="1389" y="-23" type="curve" smooth="yes"/>
      <point x="1633" y="-23"/>
      <point x="1755" y="77"/>
      <point x="1755" y="271" type="curve" smooth="yes"/>
      <point x="1755" y="282" type="line" smooth="yes"/>
      <point x="1755" y="428"/>
      <point x="1661" y="519"/>
      <point x="1474" y="540" type="curve"/>
      <point x="1474" y="542" type="line"/>
      <point x="1632" y="565"/>
      <point x="1715" y="652"/>
      <point x="1715" y="796" type="curve" smooth="yes"/>
      <point x="1715" y="803" type="line" smooth="yes"/>
      <point x="1715" y="1042"/>
      <point x="1482" y="1158"/>
      <point x="1045" y="1158" type="curve" smooth="yes"/>
      <point x="460" y="1158"/>
      <point x="174" y="930"/>
      <point x="174" y="465" type="curve" smooth="yes"/>
      <point x="174" y="444" type="line" smooth="yes"/>
      <point x="174" y="136"/>
      <point x="323" y="-32"/>
      <point x="605" y="-32" type="curve" smooth="yes"/>
      <point x="859" y="-32"/>
      <point x="999" y="99"/>
      <point x="999" y="327" type="curve" smooth="yes"/>
      <point x="999" y="337" type="line" smooth="yes"/>
      <point x="999" y="561"/>
      <point x="857" y="688"/>
      <point x="608" y="688" type="curve" smooth="yes"/>
      <point x="405" y="688"/>
      <point x="246" y="584.192"/>
      <point x="198" y="431" type="curve"/>
      <point x="212" y="415" type="line"/>
      <point x="270" y="560.22"/>
      <point x="412" y="653"/>
      <point x="608" y="653" type="curve" smooth="yes"/>
      <point x="832" y="653"/>
      <point x="960" y="538"/>
      <point x="960" y="337" type="curve" smooth="yes"/>
      <point x="960" y="327" type="line" smooth="yes"/>
      <point x="960" y="120"/>
      <point x="835" y="3"/>
      <point x="605" y="3" type="curve" smooth="yes"/>
      <point x="348" y="3"/>
      <point x="212" y="158"/>
      <point x="212" y="444" type="curve"/>
      <point x="212" y="445" type="line"/>
      <point x="222" y="467" type="line"/>
      <point x="212" y="467" type="line"/>
      <point x="212" y="468" type="line"/>
      <point x="212" y="907.985"/>
      <point x="486" y="1123"/>
      <point x="1045" y="1123" type="curve" smooth="yes"/>
      <point x="1460" y="1123"/>
      <point x="1676" y="1018"/>
      <point x="1676" y="803" type="curve" smooth="yes"/>
      <point x="1676" y="796" type="line" smooth="yes"/>
      <point x="1676" y="639"/>
      <point x="1568" y="560"/>
      <point x="1359" y="558" type="curve" smooth="yes"/>
      <point x="1221" y="557" type="line"/>
      <point x="1221" y="524" type="line"/>
      <point x="1361" y="523" type="line" smooth="yes"/>
      <point x="1596" y="521"/>
      <point x="1716" y="440"/>
      <point x="1716" y="282" type="curve" smooth="yes"/>
      <point x="1716" y="271" type="line" smooth="yes"/>
      <point x="1716" y="102"/>
      <point x="1606" y="12"/>
      <point x="1386" y="12" type="curve" smooth="yes"/>
      <point x="1323" y="12"/>
      <point x="1245" y="18"/>
      <point x="1177" y="33" type="curve"/>
      <point x="1184" y="-4" type="line"/>
      <point x="1249" y="-18"/>
      <point x="1324" y="-23"/>
    </contour>
  </outline>
</glyph>
<glyph name="Kha.mlm" format="2">
  <advance width="2507"/>
  <unicode hex="0D16"/>
  <outline>
    <contour>
      <point x="2235" y="1123" type="line"/>
      <point x="2235" y="0" type="line"/>
      <point x="2272" y="0" type="line"/>
      <point x="2272" y="1123" type="line"/>
    </contour>
    <contour>
      <point x="1464" y="33" type="line"/>
      <point x="1406" y="0" type="line"/>
      <point x="2242" y="0" type="line"/>
      <point x="2242" y="33" type="line"/>
    </contour>
    <contour>
      <point x="897" y="1158" type="curve" smooth="yes"/>
      <point x="415.801" y="1158"/>
      <point x="174" y="930.01"/>
      <point x="174" y="467" type="curve" smooth="yes"/>
      <point x="174" y="446" type="line" smooth="yes"/>
      <point x="174" y="136.706"/>
      <point x="326.736" y="-32"/>
      <point x="614" y="-32" type="curve" smooth="yes"/>
      <point x="868" y="-32"/>
      <point x="1013" y="99"/>
      <point x="1013" y="329" type="curve" smooth="yes"/>
      <point x="1013" y="339" type="line" smooth="yes"/>
      <point x="1013" y="565"/>
      <point x="868" y="693"/>
      <point x="614" y="693" type="curve" smooth="yes"/>
      <point x="406.504" y="693"/>
      <point x="247.356" y="586.779"/>
      <point x="198" y="432" type="curve"/>
      <point x="212" y="416" type="line"/>
      <point x="274.466" y="562.82"/>
      <point x="413.504" y="658"/>
      <point x="614" y="658" type="curve" smooth="yes"/>
      <point x="843" y="658"/>
      <point x="974" y="542"/>
      <point x="974" y="339" type="curve" smooth="yes"/>
      <point x="974" y="329" type="line" smooth="yes"/>
      <point x="974" y="121"/>
      <point x="843" y="3"/>
      <point x="614" y="3" type="curve" smooth="yes"/>
      <point x="352.751" y="3"/>
      <point x="212" y="158.703"/>
      <point x="212" y="446" type="curve"/>
      <point x="212" y="447" type="line"/>
      <point x="219" y="468" type="line"/>
      <point x="212" y="468" type="line"/>
      <point x="212" y="468" type="line"/>
      <point x="212" y="908.015"/>
      <point x="441.865" y="1123"/>
      <point x="897" y="1123" type="curve" smooth="yes"/>
      <point x="1361" y="1123"/>
      <point x="1592" y="928"/>
      <point x="1592" y="528" type="curve" smooth="yes"/>
      <point x="1592" y="516" type="line" smooth="yes"/>
      <point x="1592" y="317"/>
      <point x="1522" y="141"/>
      <point x="1406" y="5" type="curve"/>
      <point x="1406" y="0" type="line"/>
      <point x="1450" y="0" type="line"/>
      <point x="1563" y="137"/>
      <point x="1631" y="315"/>
      <point x="1631" y="516" type="curve" smooth="yes"/>
      <point x="1631" y="528" type="line" smooth="yes"/>
      <point x="1631" y="950"/>
      <point x="1388" y="1158"/>
    </contour>
  </outline>
</glyph>
<glyph name="Gha.mlm" format="2">
  <advance width="3323"/>
  <unicode hex="0D18"/>
  <outline>
    <contour>
      <point x="900" y="494" type="line"/>
      <point x="856" y="461" type="line"/>
      <point x="1436" y="461" type="line"/>
      <point x="1436" y="494" type="line"/>
    </contour>
    <contour>
      <point x="598" y="1107" type="curve" smooth="yes"/>
      <point x="309" y="1107"/>
      <point x="166" y="984"/>
      <point x="166" y="750" type="curve" smooth="yes"/>
      <point x="166" y="736" type="line" smooth="yes"/>
      <point x="166" y="629"/>
      <point x="205" y="529"/>
      <point x="277" y="461" type="curve"/>
      <point x="330" y="461" type="line"/>
      <point x="249" y="531"/>
      <point x="205" y="629"/>
      <point x="205" y="736" type="curve" smooth="yes"/>
      <point x="205" y="750" type="line" smooth="yes"/>
      <point x="205" y="962"/>
      <point x="339" y="1072"/>
      <point x="598" y="1072" type="curve" smooth="yes"/>
      <point x="857" y="1072"/>
      <point x="991" y="962"/>
      <point x="991" y="750" type="curve" smooth="yes"/>
      <point x="991" y="736" type="line" smooth="yes"/>
      <point x="991" y="632"/>
      <point x="942" y="534"/>
      <point x="856" y="466" type="curve"/>
      <point x="856" y="461" type="line"/>
      <point x="898" y="461" type="line"/>
      <point x="985" y="529"/>
      <point x="1030" y="629"/>
      <point x="1030" y="736" type="curve" smooth="yes"/>
      <point x="1030" y="750" type="line" smooth="yes"/>
      <point x="1030" y="984"/>
      <point x="887" y="1107"/>
    </contour>
    <contour>
      <point x="2447" y="494" type="line"/>
      <point x="1464" y="494" type="line"/>
      <point x="1464" y="652" type="line" smooth="yes"/>
      <point x="1464" y="959"/>
      <point x="1636" y="1120"/>
      <point x="1958" y="1120" type="curve" smooth="yes"/>
      <point x="2280" y="1120"/>
      <point x="2447" y="959"/>
      <point x="2447" y="652" type="curve" smooth="yes"/>
    </contour>
    <contour>
      <point x="1958" y="1155" type="curve" smooth="yes"/>
      <point x="1611" y="1155"/>
      <point x="1427" y="983"/>
      <point x="1427" y="652" type="curve" smooth="yes"/>
      <point x="1427" y="0" type="line"/>
      <point x="3088" y="0" type="line"/>
      <point x="3088" y="1123" type="line"/>
      <point x="3051" y="1123" type="line"/>
      <point x="3051" y="33" type="line"/>
      <point x="1464" y="33" type="line"/>
      <point x="1464" y="461" type="line"/>
      <point x="2484" y="461" type="line"/>
      <point x="2484" y="652" type="line" smooth="yes"/>
      <point x="2484" y="983"/>
      <point x="2305" y="1155"/>
    </contour>
  </outline>
</glyph>
<glyph name="Ja.mlm" format="2">
  <advance width="2308"/>
  <unicode hex="0D1C"/>
  <outline>
    <contour>
      <point x="1346" y="97" type="line"/>
      <point x="1453" y="22"/>
      <point x="1604" y="-42"/>
      <point x="1788" y="-42" type="curve" smooth="yes"/>
      <point x="2007" y="-42"/>
      <point x="2119" y="37"/>
      <point x="2119" y="192" type="curve" smooth="yes"/>
      <point x="2119" y="195" type="line" smooth="yes"/>
      <point x="2119" y="331"/>
      <point x="2043" y="404"/>
      <point x="1891" y="421" type="curve"/>
      <point x="1887" y="421"/>
      <point x="1883" y="425"/>
      <point x="1879" y="425" type="curve"/>
      <point x="1860" y="426"/>
      <point x="1840" y="427"/>
      <point x="1819" y="427" type="curve" smooth="yes"/>
      <point x="1632" y="427"/>
      <point x="1476" y="362"/>
      <point x="1323" y="289" type="curve" smooth="yes"/>
      <point x="988" y="128" type="line" smooth="yes"/>
      <point x="827" y="51"/>
      <point x="661" y="-20"/>
      <point x="460" y="-20" type="curve" smooth="yes"/>
      <point x="306" y="-20"/>
      <point x="226" y="34"/>
      <point x="226" y="153" type="curve" smooth="yes"/>
      <point x="226" y="157" type="line" smooth="yes"/>
      <point x="226" y="274"/>
      <point x="304" y="336"/>
      <point x="446" y="338" type="curve"/>
      <point x="370" y="375" type="line"/>
      <point x="371" y="360" type="line"/>
      <point x="268" y="344"/>
      <point x="187" y="282"/>
      <point x="187" y="155" type="curve" smooth="yes"/>
      <point x="187" y="151" type="line" smooth="yes"/>
      <point x="187" y="14"/>
      <point x="279" y="-55"/>
      <point x="460" y="-55" type="curve" smooth="yes"/>
      <point x="669" y="-55"/>
      <point x="840" y="18"/>
      <point x="1006" y="97" type="curve" smooth="yes"/>
      <point x="1344" y="259" type="line" smooth="yes"/>
      <point x="1491" y="329"/>
      <point x="1640" y="392"/>
      <point x="1818" y="392" type="curve" smooth="yes"/>
      <point x="1993" y="392"/>
      <point x="2080" y="329"/>
      <point x="2080" y="195" type="curve" smooth="yes"/>
      <point x="2080" y="192" type="line" smooth="yes"/>
      <point x="2080" y="59"/>
      <point x="1982" y="-7"/>
      <point x="1788" y="-7" type="curve" smooth="yes"/>
      <point x="1598" y="-7"/>
      <point x="1456" y="64"/>
      <point x="1343" y="143" type="curve"/>
    </contour>
    <contour>
      <point x="192" y="694" type="curve" smooth="yes"/>
      <point x="192" y="681" type="line" smooth="yes"/>
      <point x="192" y="508.882"/>
      <point x="261" y="399.536"/>
      <point x="391" y="356" type="curve"/>
      <point x="398" y="354"/>
      <point x="404" y="347"/>
      <point x="411" y="345" type="curve" smooth="yes"/>
      <point x="452" y="333"/>
      <point x="497" y="326"/>
      <point x="548" y="326" type="curve" smooth="yes"/>
      <point x="758" y="326"/>
      <point x="880" y="423"/>
      <point x="880" y="605" type="curve" smooth="yes"/>
      <point x="880" y="616" type="line" smooth="yes"/>
      <point x="880" y="792"/>
      <point x="760" y="892"/>
      <point x="554" y="892" type="curve" smooth="yes"/>
      <point x="384" y="892"/>
      <point x="252" y="803.023"/>
      <point x="214" y="667" type="curve"/>
      <point x="229" y="651" type="line"/>
      <point x="276" y="778.085"/>
      <point x="392" y="857"/>
      <point x="554" y="857" type="curve" smooth="yes"/>
      <point x="736" y="857"/>
      <point x="841" y="769"/>
      <point x="841" y="616" type="curve" smooth="yes"/>
      <point x="841" y="605" type="line" smooth="yes"/>
      <point x="841" y="449"/>
      <point x="733" y="361"/>
      <point x="548" y="361" type="curve" smooth="yes"/>
      <point x="340" y="361"/>
      <point x="230" y="472"/>
      <point x="230" y="677" type="curve"/>
      <point x="230" y="679" type="line"/>
      <point x="244" y="709.821" type="line"/>
      <point x="230" y="709.821" type="line"/>
      <point x="230.285" y="709.944" type="line"/>
      <point x="230.247" y="961.398"/>
      <point x="391.243" y="1118"/>
      <point x="759" y="1118" type="curve" smooth="yes"/>
      <point x="1090" y="1118"/>
      <point x="1255" y="977"/>
      <point x="1255" y="729" type="curve" smooth="yes"/>
      <point x="1255" y="472" type="line"/>
      <point x="1292" y="472" type="line"/>
      <point x="1292" y="759" type="line" smooth="yes"/>
      <point x="1292" y="1002"/>
      <point x="1421" y="1118"/>
      <point x="1682" y="1118" type="curve" smooth="yes"/>
      <point x="1944" y="1118"/>
      <point x="2075" y="995"/>
      <point x="2075" y="771" type="curve" smooth="yes"/>
      <point x="2075" y="757" type="line" smooth="yes"/>
      <point x="2075" y="576"/>
      <point x="1994" y="465"/>
      <point x="1832" y="421" type="curve"/>
      <point x="1912" y="410" type="line"/>
      <point x="1913" y="418" type="line"/>
      <point x="2044" y="469"/>
      <point x="2114" y="583"/>
      <point x="2114" y="757" type="curve" smooth="yes"/>
      <point x="2114" y="771" type="line" smooth="yes"/>
      <point x="2114" y="1016"/>
      <point x="1973" y="1153"/>
      <point x="1684" y="1153" type="curve" smooth="yes"/>
      <point x="1440" y="1153"/>
      <point x="1301" y="1058"/>
      <point x="1271" y="859" type="curve"/>
      <point x="1269" y="859" type="line"/>
      <point x="1224" y="1049"/>
      <point x="1051" y="1153"/>
      <point x="758" y="1153" type="curve" smooth="yes"/>
      <point x="381" y="1153"/>
      <point x="192" y="1003.3"/>
    </contour>
  </outline>
</glyph>
<glyph name="Jha.mlm" format="2">
  <advance width="4115"/>
  <unicode hex="0D1D"/>
  <outline>
    <contour>
      <point x="3018" y="495" type="line"/>
      <point x="3018" y="1111" type="line"/>
      <point x="2981" y="1111" type="line"/>
      <point x="2981" y="495" type="line"/>
    </contour>
    <contour>
      <point x="2198" y="422" type="curve" smooth="yes"/>
      <point x="2198" y="501"/>
      <point x="2198" y="546"/>
      <point x="2198" y="625" type="curve" smooth="yes"/>
      <point x="2198" y="991"/>
      <point x="1987" y="1153"/>
      <point x="1577" y="1153" type="curve" smooth="yes"/>
      <point x="1441" y="1153"/>
      <point x="1317" y="1128"/>
      <point x="1211" y="1082" type="curve"/>
      <point x="1188" y="1074" type="line"/>
      <point x="947" y="963"/>
      <point x="811" y="745"/>
      <point x="811" y="470" type="curve" smooth="yes"/>
      <point x="811" y="452" type="line" smooth="yes"/>
      <point x="811" y="132"/>
      <point x="952" y="-32"/>
      <point x="1225" y="-32" type="curve" smooth="yes"/>
      <point x="1498" y="-32"/>
      <point x="1639" y="132"/>
      <point x="1639" y="452" type="curve" smooth="yes"/>
      <point x="1639" y="470" type="line" smooth="yes"/>
      <point x="1639" y="745"/>
      <point x="1503" y="963"/>
      <point x="1262" y="1074" type="curve"/>
      <point x="1239" y="1082" type="line"/>
      <point x="1133" y="1128"/>
      <point x="1009" y="1153"/>
      <point x="873" y="1153" type="curve" smooth="yes"/>
      <point x="405" y="1153"/>
      <point x="174" y="941"/>
      <point x="174" y="524" type="curve" smooth="yes"/>
      <point x="174" y="507" type="line" smooth="yes"/>
      <point x="174" y="308"/>
      <point x="243" y="137"/>
      <point x="354" y="0" type="curve"/>
      <point x="405" y="0" type="line"/>
      <point x="285" y="137"/>
      <point x="213" y="308"/>
      <point x="213" y="507" type="curve" smooth="yes"/>
      <point x="213" y="524" type="line" smooth="yes"/>
      <point x="213" y="918"/>
      <point x="429" y="1118"/>
      <point x="873" y="1118" type="curve" smooth="yes"/>
      <point x="993" y="1118"/>
      <point x="1104" y="1098"/>
      <point x="1197" y="1063" type="curve"/>
      <point x="1199" y="1063"/>
      <point x="1219" y="1056"/>
      <point x="1221" y="1056" type="curve"/>
      <point x="1462" y="950"/>
      <point x="1600" y="736"/>
      <point x="1600" y="470" type="curve" smooth="yes"/>
      <point x="1600" y="452" type="line" smooth="yes"/>
      <point x="1600" y="154"/>
      <point x="1471" y="3"/>
      <point x="1225" y="3" type="curve" smooth="yes"/>
      <point x="979" y="3"/>
      <point x="850" y="154"/>
      <point x="850" y="452" type="curve" smooth="yes"/>
      <point x="850" y="470" type="line" smooth="yes"/>
      <point x="850" y="736"/>
      <point x="987" y="950"/>
      <point x="1228" y="1056" type="curve"/>
      <point x="1230" y="1056"/>
      <point x="1251" y="1063"/>
      <point x="1253" y="1063" type="curve"/>
      <point x="1346" y="1098"/>
      <point x="1457" y="1118"/>
      <point x="1577" y="1118" type="curve" smooth="yes"/>
      <point x="1964" y="1118"/>
      <point x="2161" y="968"/>
      <point x="2161" y="625" type="curve" smooth="yes"/>
      <point x="2161" y="544"/>
      <point x="2161" y="502"/>
      <point x="2161" y="421" type="curve" smooth="yes"/>
      <point x="2161" y="122"/>
      <point x="2309" y="-32"/>
      <point x="2591" y="-32" type="curve" smooth="yes"/>
      <point x="2823" y="-32"/>
      <point x="2966" y="84"/>
      <point x="2999" y="308" type="curve"/>
      <point x="3011" y="308" type="line"/>
      <point x="3011" y="649" type="line"/>
      <point x="2981" y="649" type="line"/>
      <point x="2981" y="458" type="line" smooth="yes"/>
      <point x="2981" y="156"/>
      <point x="2850" y="3"/>
      <point x="2591" y="3" type="curve" smooth="yes"/>
      <point x="2332" y="3"/>
      <point x="2198" y="143"/>
    </contour>
    <contour>
      <point x="3001" y="308" type="line"/>
      <point x="3041" y="83"/>
      <point x="3190" y="-34"/>
      <point x="3443" y="-34" type="curve" smooth="yes"/>
      <point x="3774" y="-34"/>
      <point x="3939" y="156"/>
      <point x="3939" y="524" type="curve" smooth="yes"/>
      <point x="3939" y="540" type="line" smooth="yes"/>
      <point x="3939" y="778"/>
      <point x="3850" y="966"/>
      <point x="3704" y="1116" type="curve"/>
      <point x="3653" y="1116" type="line"/>
      <point x="3806" y="966"/>
      <point x="3900" y="778"/>
      <point x="3900" y="540" type="curve" smooth="yes"/>
      <point x="3900" y="524" type="line" smooth="yes"/>
      <point x="3900" y="178"/>
      <point x="3747" y="1"/>
      <point x="3441" y="1" type="curve" smooth="yes"/>
      <point x="3159" y="1"/>
      <point x="3018" y="153"/>
      <point x="3018" y="457" type="curve" smooth="yes"/>
      <point x="3018" y="635" type="line"/>
      <point x="3001" y="635" type="line"/>
    </contour>
  </outline>
</glyph>
<glyph name="Ddha.mlm" format="2">
  <advance width="3373"/>
  <unicode hex="0D22"/>
  <outline>
    <contour>
      <point x="1948" y="495" type="line"/>
      <point x="1948" y="1111" type="line"/>
      <point x="1911" y="1111" type="line"/>
      <point x="1911" y="495" type="line"/>
    </contour>
    <contour>
      <point x="1519" y="-32" type="curve" smooth="yes"/>
      <point x="1755" y="-32"/>
      <point x="1895" y="82"/>
      <point x="1932" y="313" type="curve"/>
      <point x="1943" y="313" type="line"/>
      <point x="1941" y="649" type="line"/>
      <point x="1911" y="649" type="line"/>
      <point x="1911" y="449" type="line" smooth="yes"/>
      <point x="1911" y="153"/>
      <point x="1778" y="3"/>
      <point x="1519" y="3" type="curve" smooth="yes"/>
      <point x="1257" y="3"/>
      <point x="1116" y="144"/>
      <point x="1116" y="431" type="curve" smooth="yes"/>
      <point x="1116" y="538"/>
      <point x="1116" y="604"/>
      <point x="1116" y="711" type="curve" smooth="yes"/>
      <point x="1116" y="1003"/>
      <point x="962" y="1153"/>
      <point x="670" y="1153" type="curve" smooth="yes"/>
      <point x="338" y="1153"/>
      <point x="176" y="969"/>
      <point x="176" y="605" type="curve" smooth="yes"/>
      <point x="176" y="579" type="line" smooth="yes"/>
      <point x="176" y="336"/>
      <point x="264" y="148"/>
      <point x="422" y="0" type="curve"/>
      <point x="477" y="0" type="line"/>
      <point x="310" y="150"/>
      <point x="215" y="333"/>
      <point x="215" y="579" type="curve" smooth="yes"/>
      <point x="215" y="605" type="line" smooth="yes"/>
      <point x="215" y="950"/>
      <point x="367" y="1118"/>
      <point x="670" y="1118" type="curve" smooth="yes"/>
      <point x="938" y="1118"/>
      <point x="1079" y="981"/>
      <point x="1079" y="706" type="curve" smooth="yes"/>
      <point x="1079" y="599"/>
      <point x="1079" y="533"/>
      <point x="1079" y="426" type="curve" smooth="yes"/>
      <point x="1079" y="122"/>
      <point x="1234" y="-32"/>
    </contour>
    <contour>
      <point x="2539" y="-32" type="curve" smooth="yes"/>
      <point x="2980" y="-32"/>
      <point x="3200" y="190"/>
      <point x="3200" y="641" type="curve" smooth="yes"/>
      <point x="3200" y="662" type="line" smooth="yes"/>
      <point x="3200" y="981"/>
      <point x="3051" y="1153"/>
      <point x="2768" y="1153" type="curve" smooth="yes"/>
      <point x="2520" y="1153"/>
      <point x="2377" y="1022"/>
      <point x="2377" y="793" type="curve" smooth="yes"/>
      <point x="2377" y="783" type="line" smooth="yes"/>
      <point x="2377" y="558"/>
      <point x="2520" y="430"/>
      <point x="2768" y="430" type="curve" smooth="yes"/>
      <point x="2972" y="430"/>
      <point x="3127" y="529"/>
      <point x="3176" y="678" type="curve"/>
      <point x="3162" y="693" type="line"/>
      <point x="3102" y="553"/>
      <point x="2965" y="465"/>
      <point x="2768" y="465" type="curve" smooth="yes"/>
      <point x="2544" y="465"/>
      <point x="2415" y="581"/>
      <point x="2415" y="783" type="curve" smooth="yes"/>
      <point x="2415" y="793" type="line" smooth="yes"/>
      <point x="2415" y="1000"/>
      <point x="2544" y="1118"/>
      <point x="2768" y="1118" type="curve" smooth="yes"/>
      <point x="3026" y="1118"/>
      <point x="3162" y="958"/>
      <point x="3162" y="662" type="curve"/>
      <point x="3162" y="661" type="line"/>
      <point x="3152" y="643" type="line"/>
      <point x="3162" y="643" type="line"/>
      <point x="3162" y="641" type="line"/>
      <point x="3162" y="213"/>
      <point x="2956" y="3"/>
      <point x="2539" y="3" type="curve" smooth="yes"/>
      <point x="2145" y="3"/>
      <point x="1948" y="165"/>
      <point x="1948" y="452" type="curve" smooth="yes"/>
      <point x="1948" y="572" type="line"/>
      <point x="1934" y="572" type="line"/>
      <point x="1934" y="313" type="line"/>
      <point x="1994" y="65"/>
      <point x="2230" y="-32"/>
    </contour>
  </outline>
</glyph>
<glyph name="Tha.mlm" format="2">
  <advance width="2169"/>
  <unicode hex="0D25"/>
  <outline>
    <contour>
      <point x="272" y="0" type="line"/>
      <point x="272" y="1123" type="line" name="n12"/>
      <point x="235" y="1123" type="line" name="n13"/>
      <point x="235" y="0" type="line"/>
    </contour>
    <contour>
      <point x="247" y="33" type="line"/>
      <point x="247" y="0" type="line"/>
      <point x="997" y="0" type="line"/>
      <point x="997" y="33" type="line"/>
    </contour>
    <contour>
      <point x="1006" y="33" type="line"/>
      <point x="999" y="0" type="line"/>
      <point x="1952" y="0" type="line" name="n00"/>
      <point x="1952" y="667" type="line" smooth="yes"/>
      <point x="1952" y="999"/>
      <point x="1786" y="1153"/>
      <point x="1465" y="1153" type="curve" smooth="yes"/>
      <point x="1142" y="1153"/>
      <point x="981" y="999"/>
      <point x="981" y="667" type="curve" smooth="yes"/>
      <point x="981" y="0" type="line"/>
      <point x="1018" y="0" type="line"/>
      <point x="1018" y="667" type="line" smooth="yes"/>
      <point x="1018" y="975"/>
      <point x="1167" y="1118"/>
      <point x="1465" y="1118" type="curve" smooth="yes"/>
      <point x="1761" y="1118"/>
      <point x="1915" y="975"/>
      <point x="1915" y="667" type="curve" smooth="yes"/>
      <point x="1915" y="33" type="line"/>
    </contour>
  </outline>
</glyph>
<glyph name="Bha.mlm" format="2">
  <advance width="1696"/>
  <unicode hex="0D2D"/>
  <outline>
    <contour>
      <point x="1518" y="891" type="curve" smooth="yes"/>
      <point x="1518" y="1055"/>
      <point x="1328" y="1158"/>
      <point x="950" y="1158" type="curve" smooth="yes"/>
      <point x="440" y="1158"/>
      <point x="179" y="968"/>
      <point x="179" y="524" type="curve" smooth="yes"/>
      <point x="179" y="507" type="line" smooth="yes"/>
      <point x="179" y="308"/>
      <point x="237" y="136"/>
      <point x="325" y="0" type="curve"/>
      <point x="373" y="0" type="line"/>
      <point x="278" y="136"/>
      <point x="218" y="308"/>
      <point x="218" y="507" type="curve" smooth="yes"/>
      <point x="218" y="524" type="line" smooth="yes"/>
      <point x="218" y="945"/>
      <point x="463" y="1123"/>
      <point x="950" y="1123" type="curve" smooth="yes"/>
      <point x="1304" y="1123"/>
      <point x="1479" y="1032"/>
      <point x="1479" y="891" type="curve" smooth="yes"/>
      <point x="1479" y="814"/>
      <point x="1434" y="777"/>
      <point x="1298" y="774" type="curve" smooth="yes"/>
      <point x="1001" y="767" type="line" smooth="yes"/>
      <point x="829" y="763"/>
      <point x="751" y="692"/>
      <point x="751" y="574" type="curve" smooth="yes"/>
      <point x="751" y="565" type="line" smooth="yes"/>
      <point x="751" y="447"/>
      <point x="829" y="376"/>
      <point x="1001" y="371" type="curve" smooth="yes"/>
      <point x="1268" y="364" type="line" smooth="yes"/>
      <point x="1456" y="359"/>
      <point x="1520" y="313"/>
      <point x="1520" y="202" type="curve" smooth="yes"/>
      <point x="1520" y="195" type="line" smooth="yes"/>
      <point x="1520" y="72"/>
      <point x="1387" y="12"/>
      <point x="1121" y="12" type="curve" smooth="yes"/>
      <point x="1010" y="12"/>
      <point x="873" y="29"/>
      <point x="753" y="68" type="curve"/>
      <point x="760" y="30" type="line"/>
      <point x="876" y="-7"/>
      <point x="1008" y="-23"/>
      <point x="1124" y="-23" type="curve" smooth="yes"/>
      <point x="1413" y="-23"/>
      <point x="1559" y="47"/>
      <point x="1559" y="195" type="curve" smooth="yes"/>
      <point x="1559" y="202" type="line" smooth="yes"/>
      <point x="1559" y="334"/>
      <point x="1483" y="392"/>
      <point x="1277" y="397" type="curve" smooth="yes"/>
      <point x="1010" y="404" type="line" smooth="yes"/>
      <point x="853" y="408"/>
      <point x="790" y="468"/>
      <point x="790" y="565" type="curve" smooth="yes"/>
      <point x="790" y="574" type="line" smooth="yes"/>
      <point x="790" y="671"/>
      <point x="853" y="730"/>
      <point x="1010" y="734" type="curve" smooth="yes"/>
      <point x="1307" y="741" type="line" smooth="yes"/>
      <point x="1460" y="745"/>
      <point x="1518" y="793"/>
    </contour>
  </outline>
</glyph>
<glyph name="Ma.mlm" format="2">
  <advance width="1772"/>
  <unicode hex="0D2E"/>
  <outline>
    <contour>
      <point x="237" y="33" type="line"/>
      <point x="235" y="0" type="line"/>
      <point x="1546" y="0" type="line"/>
      <point x="1546" y="33" type="line"/>
    </contour>
    <contour>
      <point x="886" y="1123" type="curve" smooth="yes"/>
      <point x="1305" y="1123"/>
      <point x="1518" y="920"/>
      <point x="1518" y="519" type="curve" smooth="yes"/>
      <point x="1518" y="0" type="line"/>
      <point x="1555" y="0" type="line"/>
      <point x="1555" y="519" type="line" smooth="yes"/>
      <point x="1555" y="943"/>
      <point x="1328" y="1158"/>
      <point x="886" y="1158" type="curve" smooth="yes"/>
      <point x="444" y="1158"/>
      <point x="217" y="943"/>
      <point x="217" y="519" type="curve" smooth="yes"/>
      <point x="217" y="0" type="line"/>
      <point x="254" y="0" type="line"/>
      <point x="254" y="519" type="line" smooth="yes"/>
      <point x="254" y="920"/>
      <point x="465" y="1123"/>
    </contour>
    <contour>
      <point x="1011" y="652" type="line" smooth="yes"/>
      <point x="1011" y="924.191"/>
      <point x="871.346" y="1077"/>
      <point x="625" y="1077" type="curve" smooth="yes"/>
      <point x="576.085" y="1077"/>
      <point x="522.915" y="1068.33"/>
      <point x="474" y="1051" type="curve"/>
      <point x="464" y="1021" type="line"/>
      <point x="516.778" y="1038.33"/>
      <point x="567.444" y="1047"/>
      <point x="616" y="1047" type="curve" smooth="yes"/>
      <point x="842.467" y="1047"/>
      <point x="972" y="905.181"/>
      <point x="972" y="652" type="curve" smooth="yes"/>
      <point x="972" y="645" type="line" smooth="yes" name="n15"/>
      <point x="972" y="343.218"/>
      <point x="764.6" y="121.015"/>
      <point x="454" y="28" type="curve"/>
      <point x="498" y="14" type="line"/>
      <point x="805.6" y="104.881"/>
      <point x="1011" y="338.278"/>
      <point x="1011" y="645" type="curve" smooth="yes"/>
    </contour>
  </outline>
</glyph>
<glyph name="Lla.mlm" format="2">
  <advance width="1807"/>
  <unicode hex="0D33"/>
  <outline>
    <contour>
      <point x="443" y="-415" type="curve" smooth="yes"/>
      <point x="1623" y="-415" type="line"/>
      <point x="1630" y="-382" type="line"/>
      <point x="443" y="-382" type="line" smooth="yes"/>
      <point x="294" y="-382"/>
      <point x="213" y="-317"/>
      <point x="213" y="-181" type="curve" smooth="yes"/>
      <point x="213" y="-47"/>
      <point x="294" y="18"/>
      <point x="443" y="18" type="curve" smooth="yes"/>
      <point x="1266" y="18" type="line" smooth="yes"/>
      <point x="1515" y="18"/>
      <point x="1637" y="115"/>
      <point x="1637" y="290" type="curve" smooth="yes"/>
      <point x="1637" y="301" type="line" smooth="yes"/>
      <point x="1637" y="455"/>
      <point x="1540" y="553"/>
      <point x="1352" y="574" type="curve"/>
      <point x="1352" y="576" type="line"/>
      <point x="1521" y="598"/>
      <point x="1616" y="682"/>
      <point x="1616" y="825" type="curve" smooth="yes"/>
      <point x="1616" y="832" type="line" smooth="yes"/>
      <point x="1616" y="1049"/>
      <point x="1405" y="1158"/>
      <point x="964" y="1158" type="curve" smooth="yes"/>
      <point x="431.778" y="1158"/>
      <point x="174" y="988.016"/>
      <point x="174" y="644" type="curve" smooth="yes"/>
      <point x="174" y="631" type="line" smooth="yes"/>
      <point x="174" y="381.912"/>
      <point x="310.261" y="249"/>
      <point x="572" y="249" type="curve" smooth="yes"/>
      <point x="801.638" y="249"/>
      <point x="932" y="355"/>
      <point x="932" y="549" type="curve" smooth="yes"/>
      <point x="932" y="560" type="line" smooth="yes"/>
      <point x="932" y="747"/>
      <point x="801.636" y="852"/>
      <point x="574" y="852" type="curve" smooth="yes"/>
      <point x="386.974" y="852"/>
      <point x="239.886" y="757.793"/>
      <point x="198" y="617" type="curve"/>
      <point x="212" y="604" type="line"/>
      <point x="264.548" y="734.053"/>
      <point x="393.973" y="817"/>
      <point x="574" y="817" type="curve" smooth="yes"/>
      <point x="776.635" y="817"/>
      <point x="893" y="724"/>
      <point x="893" y="560" type="curve" smooth="yes"/>
      <point x="893" y="549" type="line" smooth="yes"/>
      <point x="893" y="378"/>
      <point x="776.637" y="284"/>
      <point x="572" y="284" type="curve" smooth="yes"/>
      <point x="335.261" y="284"/>
      <point x="212" y="403.612"/>
      <point x="212" y="633" type="curve"/>
      <point x="212" y="635" type="line"/>
      <point x="219" y="653.921" type="line"/>
      <point x="212" y="653.921" type="line"/>
      <point x="212.045" y="653.804" type="line"/>
      <point x="211.594" y="958.532"/>
      <point x="459.757" y="1123"/>
      <point x="964" y="1123" type="curve" smooth="yes"/>
      <point x="1378" y="1123"/>
      <point x="1577" y="1024"/>
      <point x="1577" y="832" type="curve" smooth="yes"/>
      <point x="1577" y="825" type="line" smooth="yes"/>
      <point x="1577" y="670"/>
      <point x="1463" y="593"/>
      <point x="1238" y="591" type="curve" smooth="yes"/>
      <point x="1126" y="590" type="line"/>
      <point x="1126" y="557" type="line"/>
      <point x="1239" y="556" type="line" smooth="yes"/>
      <point x="1477" y="554"/>
      <point x="1598" y="470"/>
      <point x="1598" y="301" type="curve" smooth="yes"/>
      <point x="1598" y="290" type="line" smooth="yes"/>
      <point x="1598" y="136"/>
      <point x="1488" y="51"/>
      <point x="1264" y="51" type="curve" smooth="yes"/>
      <point x="443" y="51" type="line" smooth="yes"/>
      <point x="267" y="51"/>
      <point x="174" y="-26"/>
      <point x="174" y="-181" type="curve" smooth="yes"/>
      <point x="174" y="-338"/>
      <point x="267" y="-415"/>
    </contour>
  </outline>
</glyph>
<glyph name="Zha.mlm" format="2">
  <advance width="1704"/>
  <unicode hex="0D34"/>
  <outline>
    <contour>
      <point x="810" y="806" type="curve" smooth="yes"/>
      <point x="810" y="817" type="line" smooth="yes"/>
      <point x="810" y="1012"/>
      <point x="934" y="1121"/>
      <point x="1163" y="1121" type="curve" smooth="yes"/>
      <point x="1404" y="1121"/>
      <point x="1527" y="1010"/>
      <point x="1527" y="818" type="curve" smooth="yes"/>
      <point x="1527" y="801" type="line" smooth="yes"/>
      <point x="1527" y="537"/>
      <point x="1316" y="375"/>
      <point x="892" y="375" type="curve" smooth="yes"/>
      <point x="420" y="375"/>
      <point x="189" y="521"/>
      <point x="189" y="808" type="curve" smooth="yes"/>
      <point x="189" y="822" type="line" smooth="yes"/>
      <point x="189" y="943"/>
      <point x="225" y="1042"/>
      <point x="285" y="1118" type="curve"/>
      <point x="241" y="1118" type="line"/>
      <point x="185" y="1042"/>
      <point x="150" y="943"/>
      <point x="150" y="822" type="curve" smooth="yes"/>
      <point x="150" y="808" type="line" smooth="yes"/>
      <point x="150" y="498"/>
      <point x="394" y="340"/>
      <point x="892" y="340" type="curve" smooth="yes"/>
      <point x="1344" y="340"/>
      <point x="1566" y="514"/>
      <point x="1566" y="801" type="curve" smooth="yes"/>
      <point x="1566" y="818" type="line" smooth="yes"/>
      <point x="1566" y="1034"/>
      <point x="1431" y="1156"/>
      <point x="1163" y="1156" type="curve" smooth="yes"/>
      <point x="904" y="1156"/>
      <point x="771" y="1035"/>
      <point x="771" y="817" type="curve" smooth="yes"/>
      <point x="771" y="806" type="line" smooth="yes"/>
      <point x="771" y="621"/>
      <point x="885" y="487"/>
      <point x="1008" y="366" type="curve"/>
      <point x="1016" y="357" type="line" smooth="yes"/>
      <point x="1065" y="301"/>
      <point x="1089" y="241"/>
      <point x="1089" y="176" type="curve" smooth="yes"/>
      <point x="1089" y="48"/>
      <point x="995" y="-18"/>
      <point x="801" y="-18" type="curve" smooth="yes"/>
      <point x="706" y="-18"/>
      <point x="582" y="0"/>
      <point x="482" y="46" type="curve"/>
      <point x="489" y="9" type="line"/>
      <point x="586" y="-35"/>
      <point x="707" y="-53"/>
      <point x="804" y="-53" type="curve" smooth="yes"/>
      <point x="1019" y="-53"/>
      <point x="1128" y="25"/>
      <point x="1128" y="176" type="curve" smooth="yes"/>
      <point x="1128" y="243"/>
      <point x="1102" y="305"/>
      <point x="1054" y="363" type="curve"/>
      <point x="1045" y="375" type="line"/>
      <point x="920" y="500"/>
      <point x="810" y="632"/>
    </contour>
  </outline>
</glyph>
<glyph name="Sha.mlm" format="2">
  <advance width="2505"/>
  <unicode hex="0D36"/>
  <outline>
    <contour>
      <point x="1672" y="1123" type="curve" smooth="yes"/>
      <point x="2070.13" y="1123"/>
      <point x="2268.78" y="914.108"/>
      <point x="2292.59" y="560" type="curve"/>
      <point x="2292.59" y="560" type="line"/>
      <point x="2283.59" y="560" type="line"/>
      <point x="2293.59" y="532" type="line"/>
      <point x="2293.59" y="493" type="line" smooth="yes"/>
      <point x="2293.59" y="173"/>
      <point x="2169.59" y="3"/>
      <point x="1903.59" y="3" type="curve" smooth="yes"/>
      <point x="1673.59" y="3"/>
      <point x="1531.59" y="123"/>
      <point x="1531.59" y="342" type="curve" smooth="yes"/>
      <point x="1531.59" y="353" type="line" smooth="yes"/>
      <point x="1531.59" y="566"/>
      <point x="1657.59" y="684"/>
      <point x="1900.59" y="684" type="curve" smooth="yes"/>
      <point x="2075.59" y="684"/>
      <point x="2200.59" y="626"/>
      <point x="2293.59" y="523" type="curve"/>
      <point x="2300.59" y="551" type="line"/>
      <point x="2217.59" y="649"/>
      <point x="2086.59" y="719"/>
      <point x="1900.59" y="719" type="curve" smooth="yes"/>
      <point x="1632.59" y="719"/>
      <point x="1492.59" y="589"/>
      <point x="1492.59" y="353" type="curve" smooth="yes"/>
      <point x="1492.59" y="342" type="line" smooth="yes"/>
      <point x="1492.59" y="103"/>
      <point x="1648.59" y="-32"/>
      <point x="1903.59" y="-32" type="curve" smooth="yes"/>
      <point x="2191.59" y="-32"/>
      <point x="2331.59" y="151"/>
      <point x="2331.59" y="484" type="curve" smooth="yes"/>
      <point x="2331.59" y="500" type="line" smooth="yes"/>
      <point x="2331.59" y="920.193"/>
      <point x="2111.04" y="1158"/>
      <point x="1672" y="1158" type="curve" smooth="yes"/>
      <point x="1241" y="1158"/>
      <point x="1029" y="954"/>
      <point x="1029" y="558" type="curve" smooth="yes"/>
      <point x="1029" y="489"/>
      <point x="1029" y="458"/>
      <point x="1029" y="389" type="curve" smooth="yes"/>
      <point x="1029" y="136"/>
      <point x="896" y="3"/>
      <point x="644" y="3" type="curve" smooth="yes"/>
      <point x="360" y="3"/>
      <point x="215" y="165"/>
      <point x="215" y="491" type="curve" smooth="yes"/>
      <point x="215" y="517" type="line" smooth="yes"/>
      <point x="215" y="770"/>
      <point x="313" y="963"/>
      <point x="484" y="1118" type="curve"/>
      <point x="431" y="1118" type="line"/>
      <point x="267" y="965"/>
      <point x="176" y="767"/>
      <point x="176" y="517" type="curve" smooth="yes"/>
      <point x="176" y="491" type="line" smooth="yes"/>
      <point x="176" y="146"/>
      <point x="332" y="-32"/>
      <point x="644" y="-32" type="curve" smooth="yes"/>
      <point x="920" y="-32"/>
      <point x="1066" y="113"/>
      <point x="1066" y="384" type="curve" smooth="yes"/>
      <point x="1066" y="453"/>
      <point x="1066" y="484"/>
      <point x="1066" y="553" type="curve" smooth="yes"/>
      <point x="1066" y="930"/>
      <point x="1265" y="1123"/>
    </contour>
  </outline>
</glyph>
<glyph name="verticalbarviramasign.mlm" format="2">
  <unicode hex="0D3B"/>
  <outline>
    <contour>
      <point x="-845" y="1734" type="line"/>
      <point x="-845" y="1295" type="line"/>
      <point x="-810" y="1295" type="line"/>
      <point x="-810" y="1734" type="line"/>
    </contour>
  </outline>
</glyph>
<glyph name="circularviramasign.mlm" format="2">
  <unicode hex="0D3C"/>
  <outline>
    <contour>
      <point x="-326" y="1427" type="line" smooth="yes"/>
      <point x="-326" y="1254"/>
      <point x="-214" y="1158"/>
      <point x="-9" y="1158" type="curve" smooth="yes"/>
      <point x="196" y="1158"/>
      <point x="308" y="1254"/>
      <point x="308" y="1427" type="curve" smooth="yes"/>
      <point x="308" y="1434" type="line" smooth="yes"/>
      <point x="308" y="1607"/>
      <point x="196" y="1704"/>
      <point x="-9" y="1704" type="curve" smooth="yes"/>
      <point x="-214" y="1704"/>
      <point x="-326" y="1607"/>
      <point x="-326" y="1434" type="curve" smooth="yes"/>
    </contour>
    <contour>
      <point x="272" y="1427" type="line" smooth="yes"/>
      <point x="272" y="1277"/>
      <point x="173" y="1192"/>
      <point x="-9" y="1192" type="curve" smooth="yes" name="n03"/>
      <point x="-191" y="1192"/>
      <point x="-290" y="1277"/>
      <point x="-290" y="1427" type="curve" smooth="yes"/>
      <point x="-290" y="1434" type="line" smooth="yes"/>
      <point x="-290" y="1584"/>
      <point x="-191" y="1670"/>
      <point x="-9" y="1670" type="curve" smooth="yes" name="n03"/>
      <point x="173" y="1670"/>
      <point x="272" y="1584"/>
      <point x="272" y="1434" type="curve" smooth="yes"/>
    </contour>
  </outline>
</glyph>
<glyph name="Praslesham.mlm" format="2">
  <advance width="838"/>
  <unicode hex="0D3D"/>
  <outline>
    <contour>
      <point x="407" y="-116" type="curve" smooth="yes"/>
      <point x="491" y="1183" type="line" smooth="yes"/>
      <point x="505" y="1387"/>
      <point x="586" y="1498"/>
      <point x="785" y="1498" type="curve" smooth="yes"/>
      <point x="877" y="1498"/>
      <point x="970" y="1473"/>
      <point x="1033" y="1441" type="curve"/>
      <point x="1026" y="1480" type="line"/>
      <point x="966" y="1508"/>
      <point x="882" y="1533"/>
      <point x="785" y="1533" type="curve" smooth="yes"/>
      <point x="560" y="1533"/>
      <point x="468" y="1410"/>
      <point x="454" y="1183" type="curve" smooth="yes"/>
      <point x="370" y="-116" type="line" smooth="yes"/>
      <point x="356" y="-324"/>
      <point x="264" y="-438"/>
      <point x="56" y="-438" type="curve" smooth="yes"/>
      <point x="-51" y="-438"/>
      <point x="-152" y="-410"/>
      <point x="-229" y="-375" type="curve"/>
      <point x="-222" y="-414" type="line"/>
      <point x="-150" y="-446"/>
      <point x="-57" y="-473"/>
      <point x="56" y="-473" type="curve" smooth="yes"/>
      <point x="290" y="-473"/>
      <point x="391" y="-347"/>
    </contour>
  </outline>
</glyph>
<glyph name="matraA.mlm" format="2">
  <advance width="1221"/>
  <unicode hex="0D3E"/>
  <outline>
    <contour>
      <point x="529" y="0" type="curve" smooth="yes"/>
      <point x="359" y="0"/>
      <point x="233" y="54"/>
      <point x="120" y="150" type="curve"/>
      <point x="127" y="106" type="line"/>
      <point x="225" y="21"/>
      <point x="356" y="-35"/>
      <point x="533" y="-35" type="curve" smooth="yes"/>
      <point x="875" y="-35"/>
      <point x="1045" y="168"/>
      <point x="1045" y="553" type="curve" smooth="yes"/>
      <point x="1045" y="568" type="line" smooth="yes"/>
      <point x="1045" y="953"/>
      <point x="874" y="1155"/>
      <point x="526" y="1155" type="curve" smooth="yes"/>
      <point x="352" y="1155"/>
      <point x="224" y="1103"/>
      <point x="127" y="1021" type="curve"/>
      <point x="120" y="977" type="line"/>
      <point x="232" y="1068"/>
      <point x="359" y="1120"/>
      <point x="529" y="1120" type="curve" smooth="yes"/>
      <point x="849" y="1120"/>
      <point x="1006" y="929"/>
      <point x="1006" y="568" type="curve" smooth="yes"/>
      <point x="1006" y="553" type="line" smooth="yes"/>
      <point x="1006" y="192"/>
      <point x="848" y="0"/>
    </contour>
  </outline>
</glyph>
<glyph name="matraI.mlm" format="2">
  <advance width="566"/>
  <unicode hex="0D3F"/>
  <outline>
    <contour>
      <point x="331" y="0" type="line"/>
      <point x="331" y="1169" type="line" smooth="yes"/>
      <point x="331" y="1468"/>
      <point x="200" y="1624"/>
      <point x="-82" y="1624" type="curve" smooth="yes"/>
      <point x="-269" y="1624"/>
      <point x="-413" y="1556"/>
      <point x="-519" y="1485" type="curve"/>
      <point x="-526" y="1440" type="line"/>
      <point x="-411" y="1521"/>
      <point x="-264" y="1589"/>
      <point x="-82" y="1589" type="curve" smooth="yes"/>
      <point x="174" y="1589"/>
      <point x="294" y="1445"/>
      <point x="294" y="1169" type="curve" smooth="yes"/>
      <point x="294" y="0" type="line"/>
    </contour>
  </outline>
</glyph>
<glyph name="matraU.mlm" format="2">
  <advance width="1057"/>
  <unicode hex="0D41"/>
  <outline>
    <contour>
      <point x="499" y="-363" type="curve" smooth="yes"/>
      <point x="261" y="-363"/>
      <point x="127" y="-253"/>
      <point x="127" y="-58" type="curve" smooth="yes"/>
      <point x="127" y="-48" type="line" smooth="yes"/>
      <point x="127" y="147"/>
      <point x="261" y="257"/>
      <point x="499" y="257" type="curve" smooth="yes"/>
      <point x="738" y="257"/>
      <point x="872" y="147"/>
      <point x="872" y="-48" type="curve" smooth="yes"/>
      <point x="872" y="-58" type="line" smooth="yes"/>
      <point x="872" y="-253"/>
      <point x="738" y="-363"/>
    </contour>
    <contour>
      <point x="499" y="292" type="curve" smooth="yes"/>
      <point x="235" y="292"/>
      <point x="88" y="170"/>
      <point x="88" y="-48" type="curve" smooth="yes"/>
      <point x="88" y="-58" type="line" smooth="yes"/>
      <point x="88" y="-276"/>
      <point x="235" y="-398"/>
      <point x="499" y="-398" type="curve" smooth="yes"/>
      <point x="763" y="-398"/>
      <point x="911" y="-276"/>
      <point x="911" y="-58" type="curve" smooth="yes"/>
      <point x="911" y="-48" type="line" smooth="yes"/>
      <point x="911" y="163"/>
      <point x="776" y="279"/>
      <point x="531" y="290" type="curve"/>
      <point x="520" y="290"/>
      <point x="510" y="292"/>
    </contour>
    <contour>
      <point x="899" y="773" type="curve" smooth="yes"/>
      <point x="899" y="787" type="line" smooth="yes"/>
      <point x="899" y="1025"/>
      <point x="763" y="1155"/>
      <point x="512" y="1155" type="curve" smooth="yes"/>
      <point x="357" y="1155"/>
      <point x="237" y="1101"/>
      <point x="153" y="1024" type="curve"/>
      <point x="144" y="973" type="line"/>
      <point x="236" y="1063"/>
      <point x="361" y="1120"/>
      <point x="510" y="1120" type="curve" smooth="yes"/>
      <point x="737" y="1120"/>
      <point x="860" y="1000"/>
      <point x="860" y="787" type="curve" smooth="yes"/>
      <point x="860" y="773" type="line" smooth="yes" name="n15"/>
      <point x="860" y="542"/>
      <point x="704" y="362"/>
      <point x="485" y="290" type="curve"/>
      <point x="533" y="275" type="line"/>
      <point x="747" y="348"/>
      <point x="899" y="536"/>
    </contour>
  </outline>
</glyph>
<glyph name="matraUu.mlm" format="2">
  <advance width="1057"/>
  <unicode hex="0D42"/>
  <outline>
    <contour>
      <point x="499" y="-70" type="curve" smooth="yes"/>
      <point x="316" y="-70"/>
      <point x="197" y="4"/>
      <point x="154" y="139" type="curve"/>
      <point x="138" y="121" type="line"/>
      <point x="141" y="94" type="line"/>
      <point x="187" y="-35"/>
      <point x="318" y="-105"/>
      <point x="499" y="-105" type="curve" smooth="yes"/>
      <point x="680" y="-105"/>
      <point x="804" y="-35"/>
      <point x="858" y="94" type="curve"/>
      <point x="855" y="120" type="line"/>
      <point x="845" y="139" type="line"/>
      <point x="802" y="4"/>
      <point x="682" y="-70"/>
    </contour>
    <contour>
      <point x="499" y="-363" type="curve" smooth="yes"/>
      <point x="260" y="-363"/>
      <point x="126" y="-253"/>
      <point x="126" y="-58" type="curve" smooth="yes"/>
      <point x="126" y="-48" type="line" smooth="yes"/>
      <point x="126" y="147"/>
      <point x="260" y="257"/>
      <point x="499" y="257" type="curve" smooth="yes"/>
      <point x="739" y="257"/>
      <point x="873" y="147"/>
      <point x="873" y="-48" type="curve" smooth="yes"/>
      <point x="873" y="-58" type="line" smooth="yes"/>
      <point x="873" y="-253"/>
      <point x="739" y="-363"/>
    </contour>
    <contour>
      <point x="499" y="292" type="curve" smooth="yes"/>
      <point x="235" y="292"/>
      <point x="88" y="170"/>
      <point x="88" y="-48" type="curve" smooth="yes"/>
      <point x="88" y="-58" type="line" smooth="yes"/>
      <point x="88" y="-276"/>
      <point x="235" y="-398"/>
      <point x="499" y="-398" type="curve" smooth="yes"/>
      <point x="763" y="-398"/>
      <point x="911" y="-276"/>
      <point x="911" y="-58" type="curve" smooth="yes"/>
      <point x="911" y="-48" type="line" smooth="yes"/>
      <point x="911" y="163"/>
      <point x="776" y="279"/>
      <point x="531" y="290" type="curve"/>
      <point x="520" y="290"/>
      <point x="510" y="292"/>
    </contour>
    <contour>
      <point x="899" y="773" type="curve" smooth="yes"/>
      <point x="899" y="787" type="line" smooth="yes"/>
      <point x="899" y="1025"/>
      <point x="763" y="1155"/>
      <point x="512" y="1155" type="curve" smooth="yes"/>
      <point x="357" y="1155"/>
      <point x="237" y="1101"/>
      <point x="153" y="1024" type="curve"/>
      <point x="144" y="973" type="line"/>
      <point x="236" y="1063"/>
      <point x="361" y="1120"/>
      <point x="510" y="1120" type="curve" smooth="yes"/>
      <point x="737" y="1120"/>
      <point x="860" y="1000"/>
      <point x="860" y="787" type="curve" smooth="yes"/>
      <point x="860" y="773" type="line" smooth="yes" name="n15"/>
      <point x="860" y="542"/>
      <point x="704" y="362"/>
      <point x="485" y="290" type="curve"/>
      <point x="533" y="275" type="line"/>
      <point x="747" y="348"/>
      <point x="899" y="536"/>
    </contour>
  </outline>
</glyph>
<glyph name="matraRru.mlm" format="2">
  <advance width="588"/>
  <unicode hex="0D44"/>
  <outline>
    <contour>
      <point x="586" y="-116" type="line"/>
      <point x="551" y="-67"/>
      <point x="498" y="-40"/>
      <point x="421" y="-40" type="curve" smooth="yes"/>
      <point x="303" y="-40"/>
      <point x="237" y="-98"/>
      <point x="218" y="-190" type="curve"/>
      <point x="216" y="-190" type="line"/>
      <point x="198" y="-98"/>
      <point x="130" y="-40"/>
      <point x="7" y="-40" type="curve" smooth="yes"/>
      <point x="-149" y="-40"/>
      <point x="-230" y="-123"/>
      <point x="-230" y="-266" type="curve" smooth="yes"/>
      <point x="-230" y="-273" type="line" smooth="yes"/>
      <point x="-230" y="-469"/>
      <point x="-82" y="-581"/>
      <point x="194" y="-581" type="curve" smooth="yes" name="n03"/>
      <point x="472" y="-581"/>
      <point x="623" y="-459"/>
      <point x="623" y="-236" type="curve" smooth="yes"/>
      <point x="623" y="-227" type="line" smooth="yes"/>
      <point x="623" y="91"/>
      <point x="271" y="307"/>
      <point x="271" y="696" type="curve" smooth="yes"/>
      <point x="271" y="867"/>
      <point x="302" y="984"/>
      <point x="348" y="1123" type="curve"/>
      <point x="312" y="1123" type="line"/>
      <point x="260" y="984"/>
      <point x="232" y="867"/>
      <point x="232" y="696" type="curve" smooth="yes"/>
      <point x="232" y="360"/>
      <point x="478" y="154"/>
      <point x="572" y="-98" type="curve"/>
      <point x="570" y="-99" type="line"/>
      <point x="572" y="-123" type="line"/>
      <point x="581" y="-158"/>
      <point x="584" y="-194"/>
      <point x="584" y="-229" type="curve" smooth="yes"/>
      <point x="584" y="-236" type="line" smooth="yes"/>
      <point x="584" y="-433"/>
      <point x="446" y="-546"/>
      <point x="194" y="-546" type="curve" smooth="yes"/>
      <point x="-55" y="-546"/>
      <point x="-191" y="-447"/>
      <point x="-191" y="-273" type="curve" smooth="yes"/>
      <point x="-191" y="-266" type="line" smooth="yes"/>
      <point x="-191" y="-144"/>
      <point x="-120" y="-75"/>
      <point x="7" y="-75" type="curve" smooth="yes"/>
      <point x="135" y="-75"/>
      <point x="194" y="-144"/>
      <point x="198" y="-259" type="curve" smooth="yes"/>
      <point x="200" y="-319" type="line"/>
      <point x="234" y="-319" type="line"/>
      <point x="236" y="-259" type="line" smooth="yes"/>
      <point x="240" y="-144"/>
      <point x="296" y="-75"/>
      <point x="421" y="-75" type="curve" smooth="yes"/>
      <point x="497" y="-75"/>
      <point x="547" y="-96"/>
      <point x="579" y="-139" type="curve"/>
    </contour>
  </outline>
</glyph>
<glyph name="matraE.mlm" format="2">
  <advance width="1175"/>
  <unicode hex="0D47"/>
  <outline>
    <contour>
      <point x="231" y="790" type="line"/>
      <point x="241" y="790" type="line"/>
      <point x="231" y="808" type="line"/>
      <point x="231" y="810" type="line"/>
      <point x="231" y="1014"/>
      <point x="368" y="1123"/>
      <point x="628" y="1123" type="curve" smooth="yes"/>
      <point x="859" y="1123"/>
      <point x="991" y="1038"/>
      <point x="991" y="887" type="curve" smooth="yes"/>
      <point x="991" y="876" type="line" smooth="yes"/>
      <point x="991" y="732"/>
      <point x="859" y="649"/>
      <point x="628" y="649" type="curve" smooth="yes"/>
      <point x="433" y="649"/>
      <point x="291" y="722"/>
      <point x="231" y="836" type="curve"/>
      <point x="216" y="820" type="line"/>
      <point x="265" y="697"/>
      <point x="424" y="614"/>
      <point x="628" y="614" type="curve" smooth="yes"/>
      <point x="883" y="614"/>
      <point x="1030" y="709"/>
      <point x="1030" y="876" type="curve" smooth="yes"/>
      <point x="1030" y="887" type="line" smooth="yes"/>
      <point x="1030" y="1059"/>
      <point x="883" y="1158"/>
      <point x="628" y="1158" type="curve" smooth="yes"/>
      <point x="343" y="1158"/>
      <point x="194" y="1037"/>
      <point x="194" y="810" type="curve" smooth="yes"/>
      <point x="194" y="313" type="line" smooth="yes"/>
      <point x="194" y="86"/>
      <point x="343" y="-35"/>
      <point x="628" y="-35" type="curve" smooth="yes"/>
      <point x="883" y="-35"/>
      <point x="1030" y="64"/>
      <point x="1030" y="236" type="curve" smooth="yes"/>
      <point x="1030" y="246" type="line" smooth="yes"/>
      <point x="1030" y="413"/>
      <point x="883" y="509"/>
      <point x="628" y="509" type="curve" smooth="yes"/>
      <point x="424" y="509"/>
      <point x="265" y="426"/>
      <point x="216" y="303" type="curve"/>
      <point x="231" y="287" type="line"/>
      <point x="291" y="401"/>
      <point x="433" y="474"/>
      <point x="628" y="474" type="curve" smooth="yes"/>
      <point x="859" y="474"/>
      <point x="991" y="390"/>
      <point x="991" y="246" type="curve" smooth="yes"/>
      <point x="991" y="236" type="line" smooth="yes"/>
      <point x="991" y="85"/>
      <point x="859" y="0"/>
      <point x="628" y="0" type="curve" smooth="yes"/>
      <point x="368" y="0"/>
      <point x="231" y="109"/>
      <point x="231" y="313" type="curve"/>
      <point x="231" y="315" type="line"/>
      <point x="242" y="333" type="line"/>
      <point x="231" y="333" type="line"/>
    </contour>
  </outline>
</glyph>
<glyph name="Virama.mlm" format="2">
  <unicode hex="0D4D"/>
  <outline>
    <contour>
      <point x="-271" y="1339" type="curve" smooth="yes"/>
      <point x="-496" y="1339"/>
      <point x="-642" y="1447"/>
      <point x="-642" y="1649" type="curve" smooth="yes"/>
      <point x="-642" y="1665" type="line"/>
      <point x="-678" y="1665" type="line"/>
      <point x="-678" y="1647" type="line" smooth="yes"/>
      <point x="-678" y="1432"/>
      <point x="-526" y="1306"/>
      <point x="-271" y="1306" type="curve" smooth="yes"/>
      <point x="-16" y="1306"/>
      <point x="136" y="1432"/>
      <point x="136" y="1647" type="curve" smooth="yes"/>
      <point x="136" y="1665" type="line"/>
      <point x="100" y="1665" type="line"/>
      <point x="100" y="1649" type="line" smooth="yes"/>
      <point x="100" y="1447"/>
      <point x="-46" y="1339"/>
    </contour>
  </outline>
</glyph>
<glyph name="dotreph.mlm" format="2">
  <unicode hex="0D4E"/>
  <outline>
    <contour>
      <point x="-1230" y="1440" type="line" smooth="yes"/>
      <point x="-1230" y="1398"/>
      <point x="-1204" y="1376"/>
      <point x="-1153" y="1376" type="curve" smooth="yes"/>
      <point x="-1102" y="1376"/>
      <point x="-1075" y="1398"/>
      <point x="-1075" y="1440" type="curve" smooth="yes"/>
      <point x="-1075" y="1443" type="line" smooth="yes"/>
      <point x="-1075" y="1485"/>
      <point x="-1102" y="1507"/>
      <point x="-1153" y="1507" type="curve" smooth="yes"/>
      <point x="-1204" y="1507"/>
      <point x="-1230" y="1485"/>
      <point x="-1230" y="1443" type="curve" smooth="yes"/>
    </contour>
  </outline>
</glyph>
<glyph name="parasign.mlm" format="2">
  <advance width="3197"/>
  <unicode hex="0D4F"/>
  <outline>
    <contour>
      <point x="212" y="444" type="curve" smooth="yes"/>
      <point x="212" y="459" type="line" smooth="yes"/>
      <point x="212" y="737"/>
      <point x="321" y="959"/>
      <point x="509" y="1123" type="curve"/>
      <point x="462" y="1123" type="line"/>
      <point x="282" y="959"/>
      <point x="173" y="737"/>
      <point x="173" y="459" type="curve" smooth="yes"/>
      <point x="173" y="444" type="line" smooth="yes"/>
      <point x="173" y="-149"/>
      <point x="636" y="-451"/>
      <point x="1622" y="-451" type="curve" smooth="yes"/>
      <point x="2575" y="-451"/>
      <point x="3022" y="-143"/>
      <point x="3022" y="496" type="curve" smooth="yes"/>
      <point x="3022" y="514" type="line" smooth="yes"/>
      <point x="3022" y="936"/>
      <point x="2844" y="1153"/>
      <point x="2477" y="1153" type="curve" smooth="yes"/>
      <point x="2217" y="1153"/>
      <point x="2064" y="1034"/>
      <point x="2020" y="788" type="curve"/>
      <point x="2009" y="788" type="line"/>
      <point x="2009" y="468" type="line"/>
      <point x="2041" y="468" type="line"/>
      <point x="2041" y="656" type="line" smooth="yes"/>
      <point x="2041" y="962"/>
      <point x="2186" y="1118"/>
      <point x="2475" y="1118" type="curve" smooth="yes"/>
      <point x="2817" y="1118"/>
      <point x="2983" y="914"/>
      <point x="2983" y="514" type="curve" smooth="yes"/>
      <point x="2983" y="496" type="line" smooth="yes"/>
      <point x="2983" y="-120"/>
      <point x="2541" y="-416"/>
      <point x="1622" y="-416" type="curve" smooth="yes"/>
      <point x="670" y="-416"/>
      <point x="212" y="-126"/>
    </contour>
    <contour>
      <point x="2004" y="7" type="line"/>
      <point x="2041" y="7" type="line"/>
      <point x="2041" y="612" type="line"/>
      <point x="2004" y="612" type="line"/>
    </contour>
    <contour>
      <point x="1400" y="1153" type="curve" smooth="yes"/>
      <point x="952.343" y="1153"/>
      <point x="726" y="926"/>
      <point x="726" y="465" type="curve" smooth="yes"/>
      <point x="726" y="444" type="line" smooth="yes"/>
      <point x="726" y="136"/>
      <point x="877" y="-32"/>
      <point x="1161" y="-32" type="curve" smooth="yes"/>
      <point x="1415" y="-32"/>
      <point x="1559" y="98"/>
      <point x="1559" y="327" type="curve" smooth="yes"/>
      <point x="1559" y="337" type="line" smooth="yes"/>
      <point x="1559" y="561"/>
      <point x="1415" y="688"/>
      <point x="1163" y="688" type="curve" smooth="yes"/>
      <point x="957" y="688"/>
      <point x="799" y="583"/>
      <point x="750" y="430" type="curve"/>
      <point x="764" y="414" type="line"/>
      <point x="826" y="559"/>
      <point x="964" y="653"/>
      <point x="1163" y="653" type="curve" smooth="yes"/>
      <point x="1390" y="653"/>
      <point x="1520" y="538"/>
      <point x="1520" y="337" type="curve" smooth="yes"/>
      <point x="1520" y="327" type="line" smooth="yes"/>
      <point x="1520" y="119"/>
      <point x="1390" y="3"/>
      <point x="1161" y="3" type="curve" smooth="yes"/>
      <point x="903" y="3"/>
      <point x="764" y="158"/>
      <point x="764" y="444" type="curve"/>
      <point x="764" y="445" type="line"/>
      <point x="771" y="466" type="line"/>
      <point x="764" y="466" type="line"/>
      <point x="764" y="466" type="line"/>
      <point x="764" y="904"/>
      <point x="978.348" y="1118"/>
      <point x="1400" y="1118" type="curve" smooth="yes"/>
      <point x="1800" y="1118"/>
      <point x="2004" y="945"/>
      <point x="2004" y="639" type="curve" smooth="yes"/>
      <point x="2004" y="549" type="line"/>
      <point x="2018" y="549" type="line"/>
      <point x="2018" y="788" type="line"/>
      <point x="1953" y="1045"/>
      <point x="1714" y="1153"/>
    </contour>
  </outline>
</glyph>
<glyph name="chilluZh.mlm" format="2">
  <advance width="1792"/>
  <unicode hex="0D56"/>
  <outline>
    <contour>
      <point x="677" y="1116" type="curve" smooth="yes"/>
      <point x="677" y="875"/>
      <point x="563" y="629"/>
      <point x="514" y="414" type="curve"/>
      <point x="512" y="409"/>
      <point x="512" y="403"/>
      <point x="510" y="398" type="curve"/>
      <point x="498" y="345"/>
      <point x="491" y="294"/>
      <point x="491" y="246" type="curve" smooth="yes"/>
      <point x="491" y="49"/>
      <point x="613" y="-53"/>
      <point x="854" y="-53" type="curve" smooth="yes"/>
      <point x="1104" y="-53"/>
      <point x="1230" y="32"/>
      <point x="1230" y="199" type="curve" smooth="yes"/>
      <point x="1230" y="264"/>
      <point x="1213" y="313"/>
      <point x="1169" y="373" type="curve"/>
      <point x="1158" y="385" type="line" smooth="yes"/>
      <point x="1054" y="501"/>
      <point x="959" y="627"/>
      <point x="959" y="796" type="curve" smooth="yes"/>
      <point x="959" y="806" type="line" smooth="yes"/>
      <point x="959" y="1008"/>
      <point x="1076" y="1121"/>
      <point x="1287" y="1121" type="curve" smooth="yes"/>
      <point x="1505" y="1121"/>
      <point x="1615" y="1010"/>
      <point x="1615" y="818" type="curve" smooth="yes"/>
      <point x="1615" y="801" type="line" smooth="yes"/>
      <point x="1615" y="537"/>
      <point x="1380" y="375"/>
      <point x="910" y="375" type="curve" smooth="yes"/>
      <point x="430" y="375"/>
      <point x="189" y="521"/>
      <point x="189" y="808" type="curve" smooth="yes"/>
      <point x="189" y="822" type="line" smooth="yes"/>
      <point x="189" y="943"/>
      <point x="225" y="1042"/>
      <point x="285" y="1118" type="curve"/>
      <point x="241" y="1118" type="line"/>
      <point x="185" y="1042"/>
      <point x="150" y="943"/>
      <point x="150" y="822" type="curve" smooth="yes"/>
      <point x="150" y="808" type="line" smooth="yes"/>
      <point x="150" y="498"/>
      <point x="403" y="340"/>
      <point x="910" y="340" type="curve" smooth="yes"/>
      <point x="1408" y="340"/>
      <point x="1654" y="514"/>
      <point x="1654" y="801" type="curve" smooth="yes"/>
      <point x="1654" y="818" type="line" smooth="yes"/>
      <point x="1654" y="1034"/>
      <point x="1532" y="1156"/>
      <point x="1287" y="1156" type="curve" smooth="yes"/>
      <point x="1046" y="1156"/>
      <point x="920" y="1031"/>
      <point x="920" y="806" type="curve" smooth="yes"/>
      <point x="920" y="796" type="line" smooth="yes"/>
      <point x="920" y="611"/>
      <point x="1017" y="491"/>
      <point x="1121" y="378" type="curve" smooth="yes"/>
      <point x="1132" y="366" type="line"/>
      <point x="1176" y="308"/>
      <point x="1192" y="264"/>
      <point x="1192" y="199" type="curve" smooth="yes"/>
      <point x="1192" y="55"/>
      <point x="1081" y="-18"/>
      <point x="854" y="-18" type="curve" smooth="yes"/>
      <point x="636" y="-18"/>
      <point x="530" y="72"/>
      <point x="530" y="246" type="curve" smooth="yes"/>
      <point x="530" y="290"/>
      <point x="535" y="338"/>
      <point x="546" y="389" type="curve"/>
      <point x="548" y="394"/>
      <point x="547" y="400"/>
      <point x="549" y="405" type="curve"/>
      <point x="598" y="618"/>
      <point x="716" y="866"/>
      <point x="716" y="1116" type="curve" smooth="yes"/>
      <point x="716" y="1280"/>
      <point x="665" y="1436"/>
      <point x="547" y="1582" type="curve"/>
      <point x="507" y="1582" type="line"/>
      <point x="637" y="1410"/>
      <point x="677" y="1273"/>
    </contour>
  </outline>
</glyph>
<glyph name="onefortieth.mlm" format="2">
  <advance width="2564"/>
  <unicode hex="0D59"/>
  <outline>
    <contour>
      <point x="892" y="1123" type="curve" smooth="yes"/>
      <point x="1330" y="1123"/>
      <point x="1553" y="916"/>
      <point x="1553" y="495" type="curve" smooth="yes"/>
      <point x="1553" y="475" type="line" smooth="yes"/>
      <point x="1553" y="171"/>
      <point x="1415" y="3"/>
      <point x="1160" y="3" type="curve" smooth="yes"/>
      <point x="935" y="3"/>
      <point x="810" y="114"/>
      <point x="810" y="313" type="curve" smooth="yes"/>
      <point x="810" y="324" type="line" smooth="yes"/>
      <point x="810" y="518"/>
      <point x="943" y="627"/>
      <point x="1177" y="627" type="curve" smooth="yes"/>
      <point x="1556" y="627" type="line"/>
      <point x="1570" y="660" type="line"/>
      <point x="1176" y="660" type="line" smooth="yes"/>
      <point x="919" y="660"/>
      <point x="771" y="540"/>
      <point x="771" y="324" type="curve" smooth="yes"/>
      <point x="771" y="313" type="line" smooth="yes"/>
      <point x="771" y="93"/>
      <point x="910" y="-32"/>
      <point x="1160" y="-32" type="curve" smooth="yes"/>
      <point x="1440" y="-32"/>
      <point x="1591" y="146"/>
      <point x="1591" y="473" type="curve" smooth="yes"/>
      <point x="1591" y="495" type="line" smooth="yes"/>
      <point x="1591" y="939"/>
      <point x="1355" y="1158"/>
      <point x="892" y="1158" type="curve" smooth="yes"/>
      <point x="408" y="1158"/>
      <point x="174" y="938"/>
      <point x="174" y="510" type="curve" smooth="yes"/>
      <point x="174" y="496" type="line" smooth="yes"/>
      <point x="174" y="304"/>
      <point x="243" y="132"/>
      <point x="352" y="0" type="curve"/>
      <point x="403" y="0" type="line"/>
      <point x="285" y="132"/>
      <point x="213" y="304"/>
      <point x="213" y="496" type="curve" smooth="yes"/>
      <point x="213" y="510" type="line" smooth="yes"/>
      <point x="213" y="915"/>
      <point x="434" y="1123"/>
    </contour>
    <contour>
      <point x="1874" y="656" type="line"/>
      <point x="1874" y="824" type="line" smooth="yes"/>
      <point x="1874" y="1012"/>
      <point x="1982" y="1107"/>
      <point x="2186" y="1107" type="curve" smooth="yes"/>
      <point x="2362" y="1107"/>
      <point x="2460" y="1022"/>
      <point x="2460" y="876" type="curve" smooth="yes"/>
      <point x="2460" y="866" type="line" smooth="yes"/>
      <point x="2460" y="734"/>
      <point x="2365" y="660"/>
      <point x="2189" y="660" type="curve" smooth="yes"/>
      <point x="1563" y="660" type="line"/>
      <point x="1575" y="627" type="line"/>
      <point x="2191" y="627" type="line" smooth="yes"/>
      <point x="2390" y="627"/>
      <point x="2499" y="711"/>
      <point x="2499" y="866" type="curve" smooth="yes"/>
      <point x="2499" y="876" type="line" smooth="yes"/>
      <point x="2499" y="1043"/>
      <point x="2387" y="1142"/>
      <point x="2186" y="1142" type="curve" smooth="yes"/>
      <point x="1961" y="1142"/>
      <point x="1837" y="1036"/>
      <point x="1837" y="827" type="curve" smooth="yes"/>
      <point x="1837" y="656" type="line"/>
    </contour>
  </outline>
</glyph>
<glyph name="onetenth.mlm" format="2">
  <advance width="3838"/>
  <unicode hex="0D5C"/>
  <outline>
    <contour>
      <point x="2733" y="419" type="curve" smooth="yes"/>
      <point x="2733" y="123"/>
      <point x="2889" y="-32"/>
      <point x="3181" y="-32" type="curve" smooth="yes"/>
      <point x="3504" y="-32"/>
      <point x="3662" y="152"/>
      <point x="3662" y="509" type="curve" smooth="yes"/>
      <point x="3662" y="535" type="line" smooth="yes"/>
      <point x="3662" y="778"/>
      <point x="3570" y="970"/>
      <point x="3406" y="1118" type="curve"/>
      <point x="3354" y="1118" type="line"/>
      <point x="3525" y="968"/>
      <point x="3623" y="781"/>
      <point x="3623" y="535" type="curve" smooth="yes"/>
      <point x="3623" y="509" type="line" smooth="yes"/>
      <point x="3623" y="171"/>
      <point x="3476" y="3"/>
      <point x="3181" y="3" type="curve" smooth="yes"/>
      <point x="2912" y="3"/>
      <point x="2770" y="146"/>
      <point x="2770" y="424" type="curve" smooth="yes"/>
      <point x="2770" y="533"/>
      <point x="2770" y="599"/>
      <point x="2770" y="708" type="curve" smooth="yes"/>
      <point x="2770" y="1004"/>
      <point x="2622" y="1153"/>
      <point x="2335" y="1153" type="curve" smooth="yes"/>
      <point x="2048" y="1153"/>
      <point x="1900" y="1004"/>
      <point x="1900" y="708" type="curve" smooth="yes"/>
      <point x="1900" y="596"/>
      <point x="1900" y="531"/>
      <point x="1900" y="419" type="curve" smooth="yes"/>
      <point x="1900" y="144"/>
      <point x="1766" y="3"/>
      <point x="1508" y="3" type="curve" smooth="yes"/>
      <point x="1250" y="3"/>
      <point x="1116" y="144"/>
      <point x="1116" y="419" type="curve" smooth="yes"/>
      <point x="1116" y="529"/>
      <point x="1116" y="594"/>
      <point x="1116" y="704" type="curve" smooth="yes"/>
      <point x="1116" y="1001"/>
      <point x="964" y="1153"/>
      <point x="672" y="1153" type="curve" smooth="yes"/>
      <point x="339" y="1153"/>
      <point x="176" y="969"/>
      <point x="176" y="605" type="curve" smooth="yes"/>
      <point x="176" y="579" type="line" smooth="yes"/>
      <point x="176" y="336"/>
      <point x="264" y="148"/>
      <point x="422" y="0" type="curve"/>
      <point x="477" y="0" type="line"/>
      <point x="310" y="150"/>
      <point x="215" y="333"/>
      <point x="215" y="579" type="curve" smooth="yes"/>
      <point x="215" y="605" type="line" smooth="yes"/>
      <point x="215" y="950"/>
      <point x="367" y="1118"/>
      <point x="672" y="1118" type="curve" smooth="yes"/>
      <point x="940" y="1118"/>
      <point x="1079" y="977"/>
      <point x="1079" y="699" type="curve" smooth="yes"/>
      <point x="1079" y="589"/>
      <point x="1079" y="523"/>
      <point x="1079" y="413" type="curve" smooth="yes"/>
      <point x="1079" y="120"/>
      <point x="1227" y="-32"/>
      <point x="1508" y="-32" type="curve" smooth="yes"/>
      <point x="1789" y="-32"/>
      <point x="1937" y="120"/>
      <point x="1937" y="413" type="curve" smooth="yes"/>
      <point x="1937" y="525"/>
      <point x="1937" y="590"/>
      <point x="1937" y="702" type="curve" smooth="yes"/>
      <point x="1937" y="978"/>
      <point x="2073" y="1118"/>
      <point x="2335" y="1118" type="curve" smooth="yes"/>
      <point x="2597" y="1118"/>
      <point x="2733" y="978"/>
      <point x="2733" y="702" type="curve" smooth="yes"/>
      <point x="2733" y="593"/>
      <point x="2733" y="528"/>
    </contour>
  </outline>
</glyph>
<glyph name="threetwentieths.mlm" format="2">
  <advance width="5056"/>
  <unicode hex="0D5D"/>
  <outline>
    <contour>
      <point x="649" y="459" type="line"/>
      <point x="686" y="459" type="line"/>
      <point x="686" y="1111" type="line"/>
      <point x="649" y="1111" type="line"/>
    </contour>
    <contour>
      <point x="265" y="-32" type="curve" smooth="yes"/>
      <point x="494" y="-32"/>
      <point x="634" y="74"/>
      <point x="667" y="275" type="curve"/>
      <point x="679" y="275" type="line"/>
      <point x="679" y="649" type="line"/>
      <point x="649" y="649" type="line"/>
      <point x="649" y="424" type="line" smooth="yes"/>
      <point x="649" y="146"/>
      <point x="520" y="3"/>
      <point x="265" y="3" type="curve" smooth="yes"/>
      <point x="177" y="3"/>
      <point x="101" y="15"/>
      <point x="40" y="40" type="curve"/>
      <point x="53" y="0" type="line"/>
      <point x="113" y="-21"/>
      <point x="183" y="-32"/>
    </contour>
    <contour>
      <point x="1901" y="1153" type="curve" smooth="yes"/>
      <point x="1609" y="1153"/>
      <point x="1457" y="1001"/>
      <point x="1457" y="704" type="curve" smooth="yes"/>
      <point x="1457" y="595"/>
      <point x="1457" y="530"/>
      <point x="1457" y="421" type="curve" smooth="yes"/>
      <point x="1457" y="143"/>
      <point x="1327" y="2"/>
      <point x="1081" y="2" type="curve" smooth="yes"/>
      <point x="819" y="2"/>
      <point x="686" y="144"/>
      <point x="686" y="424" type="curve" smooth="yes"/>
      <point x="686" y="567" type="line"/>
      <point x="664" y="493" type="line"/>
      <point x="669" y="275" type="line"/>
      <point x="704" y="73"/>
      <point x="845" y="-33"/>
      <point x="1081" y="-33" type="curve" smooth="yes"/>
      <point x="1350" y="-33"/>
      <point x="1494" y="119"/>
      <point x="1494" y="415" type="curve" smooth="yes"/>
      <point x="1494" y="524"/>
      <point x="1494" y="590"/>
      <point x="1494" y="699" type="curve" smooth="yes"/>
      <point x="1494" y="977"/>
      <point x="1635" y="1118"/>
      <point x="1903" y="1118" type="curve" smooth="yes"/>
      <point x="2171" y="1118"/>
      <point x="2309" y="977"/>
      <point x="2309" y="699" type="curve" smooth="yes"/>
      <point x="2309" y="590"/>
      <point x="2309" y="524"/>
      <point x="2309" y="415" type="curve" smooth="yes"/>
      <point x="2309" y="121"/>
      <point x="2456" y="-32"/>
      <point x="2732" y="-32" type="curve" smooth="yes"/>
      <point x="3008" y="-32"/>
      <point x="3156" y="121"/>
      <point x="3156" y="415" type="curve" smooth="yes"/>
      <point x="3156" y="526"/>
      <point x="3156" y="591"/>
      <point x="3156" y="702" type="curve" smooth="yes"/>
      <point x="3156" y="978"/>
      <point x="3291" y="1118"/>
      <point x="3553" y="1118" type="curve" smooth="yes"/>
      <point x="3815" y="1118"/>
      <point x="3951" y="978"/>
      <point x="3951" y="702" type="curve" smooth="yes"/>
      <point x="3951" y="593"/>
      <point x="3951" y="528"/>
      <point x="3951" y="419" type="curve" smooth="yes"/>
      <point x="3951" y="123"/>
      <point x="4108" y="-32"/>
      <point x="4400" y="-32" type="curve" smooth="yes"/>
      <point x="4723" y="-32"/>
      <point x="4880" y="152"/>
      <point x="4880" y="509" type="curve" smooth="yes"/>
      <point x="4880" y="535" type="line" smooth="yes"/>
      <point x="4880" y="778"/>
      <point x="4789" y="970"/>
      <point x="4625" y="1118" type="curve"/>
      <point x="4572" y="1118" type="line"/>
      <point x="4743" y="968"/>
      <point x="4841" y="781"/>
      <point x="4841" y="535" type="curve" smooth="yes"/>
      <point x="4841" y="509" type="line" smooth="yes"/>
      <point x="4841" y="171"/>
      <point x="4695" y="3"/>
      <point x="4400" y="3" type="curve" smooth="yes"/>
      <point x="4131" y="3"/>
      <point x="3988" y="146"/>
      <point x="3988" y="424" type="curve" smooth="yes"/>
      <point x="3988" y="533"/>
      <point x="3988" y="599"/>
      <point x="3988" y="708" type="curve" smooth="yes"/>
      <point x="3988" y="1004"/>
      <point x="3840" y="1153"/>
      <point x="3553" y="1153" type="curve" smooth="yes"/>
      <point x="3266" y="1153"/>
      <point x="3119" y="1004"/>
      <point x="3119" y="708" type="curve" smooth="yes"/>
      <point x="3119" y="597"/>
      <point x="3119" y="532"/>
      <point x="3119" y="421" type="curve" smooth="yes"/>
      <point x="3119" y="145"/>
      <point x="2985" y="3"/>
      <point x="2732" y="3" type="curve" smooth="yes"/>
      <point x="2479" y="3"/>
      <point x="2346" y="145"/>
      <point x="2346" y="421" type="curve" smooth="yes"/>
      <point x="2346" y="530"/>
      <point x="2346" y="595"/>
      <point x="2346" y="704" type="curve" smooth="yes"/>
      <point x="2346" y="1001"/>
      <point x="2193" y="1153"/>
    </contour>
  </outline>
</glyph>
<glyph name="vowelRuu.mlm" format="2">
  <advance width="2070"/>
  <unicode hex="0D60"/>
  <outline>
    <contour>
      <point x="1120" y="-331" type="line" smooth="yes"/>
      <point x="1542" y="-331"/>
      <point x="1766" y="-232"/>
      <point x="1766" y="-11" type="curve" smooth="yes"/>
      <point x="1766" y="163"/>
      <point x="1624" y="261"/>
      <point x="1352" y="293" type="curve"/>
      <point x="1352" y="298" type="line"/>
      <point x="1122" y="309" type="line"/>
      <point x="948" y="309" type="line"/>
      <point x="719" y="299" type="line"/>
      <point x="719" y="292" type="line"/>
      <point x="446" y="259"/>
      <point x="304" y="163"/>
      <point x="304" y="-11" type="curve" smooth="yes"/>
      <point x="304" y="-232"/>
      <point x="527" y="-331"/>
      <point x="948" y="-331" type="curve" smooth="yes"/>
    </contour>
    <contour>
      <point x="1122" y="275" type="line" smooth="yes"/>
      <point x="1513" y="275"/>
      <point x="1726" y="189"/>
      <point x="1726" y="-11" type="curve" smooth="yes"/>
      <point x="1726" y="-211"/>
      <point x="1513" y="-297"/>
      <point x="1122" y="-297" type="curve" smooth="yes"/>
      <point x="950" y="-297" type="line" smooth="yes"/>
      <point x="557" y="-297"/>
      <point x="343" y="-211"/>
      <point x="343" y="-11" type="curve" smooth="yes"/>
      <point x="343" y="189"/>
      <point x="557" y="275"/>
      <point x="950" y="275" type="curve" smooth="yes"/>
    </contour>
    <contour>
      <point x="838" y="125" type="curve" smooth="yes"/>
      <point x="690" y="125"/>
      <point x="613" y="49"/>
      <point x="613" y="-81" type="curve" smooth="yes"/>
      <point x="613" y="-103" type="line"/>
      <point x="650" y="-103" type="line"/>
      <point x="650" y="-81" type="line" smooth="yes"/>
      <point x="650" y="31"/>
      <point x="716" y="94"/>
      <point x="838" y="94" type="curve" smooth="yes"/>
      <point x="959" y="94"/>
      <point x="1012" y="31"/>
      <point x="1019" y="-74" type="curve" smooth="yes"/>
      <point x="1021" y="-102" type="line"/>
      <point x="1053" y="-102" type="line"/>
      <point x="1055" y="-74" type="line" smooth="yes"/>
      <point x="1062" y="31"/>
      <point x="1115" y="94"/>
      <point x="1236" y="94" type="curve" smooth="yes"/>
      <point x="1358" y="94"/>
      <point x="1424" y="31"/>
      <point x="1424" y="-81" type="curve" smooth="yes"/>
      <point x="1424" y="-103" type="line"/>
      <point x="1461" y="-103" type="line"/>
      <point x="1461" y="-81" type="line" smooth="yes"/>
      <point x="1461" y="49"/>
      <point x="1384" y="125"/>
      <point x="1236" y="125" type="curve" smooth="yes"/>
      <point x="1118" y="125"/>
      <point x="1054" y="75"/>
      <point x="1037" y="-5" type="curve"/>
      <point x="1037" y="-5" type="line"/>
      <point x="1020" y="75"/>
      <point x="956" y="125"/>
    </contour>
    <contour>
      <point x="1891" y="766" type="line"/>
      <point x="1891" y="456.825"/>
      <point x="1618" y="309"/>
      <point x="1071" y="309" type="curve"/>
      <point x="1303" y="287" type="line"/>
      <point x="1320" y="289"/>
      <point x="1336" y="292.016"/>
      <point x="1352" y="294" type="curve" smooth="yes"/>
      <point x="1736" y="341.603"/>
      <point x="1928" y="495.061"/>
      <point x="1928" y="768" type="curve" smooth="yes"/>
      <point x="1928" y="789" type="line" smooth="yes"/>
      <point x="1928" y="1019.34"/>
      <point x="1792" y="1153"/>
      <point x="1530" y="1153" type="curve" smooth="yes"/>
      <point x="1305" y="1153"/>
      <point x="1171" y="1051.55"/>
      <point x="1171" y="867" type="curve" smooth="yes"/>
      <point x="1171" y="857" type="line" smooth="yes"/>
      <point x="1171" y="681.212"/>
      <point x="1300" y="574"/>
      <point x="1520" y="574" type="curve" smooth="yes"/>
      <point x="1715" y="574"/>
      <point x="1859" y="667.643"/>
      <point x="1907" y="802" type="curve"/>
      <point x="1891" y="820" type="line"/>
      <point x="1833" y="691.565"/>
      <point x="1703" y="609"/>
      <point x="1520" y="609" type="curve" smooth="yes"/>
      <point x="1325" y="609"/>
      <point x="1210" y="701.279"/>
      <point x="1210" y="857" type="curve" smooth="yes"/>
      <point x="1210" y="867" type="line" smooth="yes"/>
      <point x="1210" y="1032.41"/>
      <point x="1331" y="1118"/>
      <point x="1530" y="1118" type="curve" smooth="yes"/>
      <point x="1768" y="1118"/>
      <point x="1891" y="996.393"/>
      <point x="1891" y="789" type="curve"/>
      <point x="1891" y="787" type="line"/>
      <point x="1880" y="766" type="line"/>
      <point x="1891" y="766" type="line"/>
    </contour>
    <contour>
      <point x="999" y="309" type="line"/>
      <point x="452" y="309"/>
      <point x="179" y="456.825"/>
      <point x="179" y="766" type="curve"/>
      <point x="179" y="766" type="line"/>
      <point x="189" y="766" type="line"/>
      <point x="179" y="787" type="line"/>
      <point x="179" y="789" type="line"/>
      <point x="179" y="996.393"/>
      <point x="302" y="1118"/>
      <point x="540" y="1118" type="curve" smooth="yes"/>
      <point x="739" y="1118"/>
      <point x="860" y="1032.41"/>
      <point x="860" y="867" type="curve" smooth="yes"/>
      <point x="860" y="857" type="line" smooth="yes"/>
      <point x="860" y="701.279"/>
      <point x="745" y="609"/>
      <point x="550" y="609" type="curve" smooth="yes"/>
      <point x="367" y="609"/>
      <point x="237" y="691.174"/>
      <point x="179" y="819" type="curve"/>
      <point x="164" y="800" type="line"/>
      <point x="211.876" y="666.821"/>
      <point x="355.504" y="574"/>
      <point x="550" y="574" type="curve" smooth="yes"/>
      <point x="770" y="574"/>
      <point x="899" y="681.212"/>
      <point x="899" y="857" type="curve" smooth="yes"/>
      <point x="899" y="867" type="line" smooth="yes"/>
      <point x="899" y="1051.55"/>
      <point x="765" y="1153"/>
      <point x="540" y="1153" type="curve" smooth="yes"/>
      <point x="278" y="1153"/>
      <point x="142" y="1019.34"/>
      <point x="142" y="789" type="curve" smooth="yes"/>
      <point x="142" y="766" type="line" smooth="yes"/>
      <point x="142" y="494.194"/>
      <point x="334.005" y="340.441"/>
      <point x="719" y="293" type="curve" smooth="yes"/>
      <point x="734.019" y="291.149"/>
      <point x="751" y="289"/>
      <point x="767" y="287" type="curve"/>
    </contour>
  </outline>
</glyph>
<glyph name="vowelLruu.mlm" format="2">
  <advance width="3422"/>
  <unicode hex="0D61"/>
  <outline>
    <contour>
      <point x="2707" y="796" type="line"/>
      <point x="3028" y="752"/>
      <point x="3224" y="576"/>
      <point x="3224" y="255" type="curve" smooth="yes"/>
      <point x="3224" y="245" type="line" smooth="yes"/>
      <point x="3224" y="-127"/>
      <point x="2985" y="-333"/>
      <point x="2542" y="-333" type="curve" smooth="yes"/>
      <point x="2352" y="-333"/>
      <point x="2192" y="-308"/>
      <point x="2056" y="-257" type="curve"/>
      <point x="2070" y="-297" type="line"/>
      <point x="2207" y="-345"/>
      <point x="2359" y="-368"/>
      <point x="2542" y="-368" type="curve" smooth="yes"/>
      <point x="3007" y="-368"/>
      <point x="3263" y="-148"/>
      <point x="3263" y="245" type="curve" smooth="yes"/>
      <point x="3263" y="257" type="line" smooth="yes"/>
      <point x="3263" y="585"/>
      <point x="3056" y="788"/>
      <point x="2693" y="832" type="curve"/>
    </contour>
    <contour>
      <point x="2084" y="1118" type="curve" smooth="yes"/>
      <point x="2369" y="1118"/>
      <point x="2571" y="1011"/>
      <point x="2661" y="822" type="curve"/>
      <point x="2669" y="806" type="line"/>
      <point x="2706" y="720"/>
      <point x="2726" y="618"/>
      <point x="2726" y="507" type="curve" smooth="yes"/>
      <point x="2726" y="491" type="line" smooth="yes"/>
      <point x="2726" y="209"/>
      <point x="2592" y="65"/>
      <point x="2345" y="65" type="curve" smooth="yes"/>
      <point x="2102" y="65"/>
      <point x="1970" y="183"/>
      <point x="1970" y="394" type="curve" smooth="yes"/>
      <point x="1970" y="405" type="line" smooth="yes"/>
      <point x="1970" y="664"/>
      <point x="2161" y="806"/>
      <point x="2538" y="806" type="curve" smooth="yes"/>
      <point x="2591" y="806"/>
      <point x="2642" y="802"/>
      <point x="2690" y="797" type="curve"/>
      <point x="2670" y="834" type="line"/>
      <point x="2628" y="839"/>
      <point x="2584" y="841"/>
      <point x="2538" y="841" type="curve" smooth="yes"/>
      <point x="2137" y="841"/>
      <point x="1931" y="687"/>
      <point x="1931" y="405" type="curve" smooth="yes"/>
      <point x="1931" y="394" type="line" smooth="yes"/>
      <point x="1931" y="162"/>
      <point x="2077" y="30"/>
      <point x="2345" y="30" type="curve" smooth="yes"/>
      <point x="2620" y="30"/>
      <point x="2765" y="191"/>
      <point x="2765" y="489" type="curve" smooth="yes"/>
      <point x="2765" y="505" type="line" smooth="yes"/>
      <point x="2765" y="613"/>
      <point x="2747" y="713"/>
      <point x="2712" y="801" type="curve"/>
      <point x="2705" y="817" type="line" smooth="yes"/>
      <point x="2612" y="1027"/>
      <point x="2413" y="1153"/>
      <point x="2084" y="1153" type="curve" smooth="yes"/>
      <point x="1754" y="1153"/>
      <point x="1527" y="1035"/>
      <point x="1472" y="755" type="curve"/>
      <point x="1463" y="755" type="line"/>
      <point x="1465" y="549" type="line"/>
      <point x="1489" y="549" type="line"/>
      <point x="1489" y="621" type="line" smooth="yes"/>
      <point x="1489" y="938"/>
      <point x="1689" y="1118"/>
    </contour>
    <contour>
      <point x="844" y="1153" type="curve" smooth="yes"/>
      <point x="399" y="1153"/>
      <point x="174" y="926"/>
      <point x="174" y="465" type="curve" smooth="yes"/>
      <point x="174" y="444" type="line" smooth="yes"/>
      <point x="174" y="136"/>
      <point x="325" y="-32"/>
      <point x="609" y="-32" type="curve" smooth="yes"/>
      <point x="863" y="-32"/>
      <point x="1007" y="98"/>
      <point x="1007" y="327" type="curve" smooth="yes"/>
      <point x="1007" y="337" type="line" smooth="yes"/>
      <point x="1007" y="561"/>
      <point x="863" y="688"/>
      <point x="611" y="688" type="curve" smooth="yes"/>
      <point x="405" y="688"/>
      <point x="247" y="583"/>
      <point x="198" y="430" type="curve"/>
      <point x="212" y="414" type="line"/>
      <point x="274" y="559"/>
      <point x="412" y="653"/>
      <point x="611" y="653" type="curve" smooth="yes"/>
      <point x="838" y="653"/>
      <point x="968" y="538"/>
      <point x="968" y="337" type="curve" smooth="yes"/>
      <point x="968" y="327" type="line" smooth="yes"/>
      <point x="968" y="119"/>
      <point x="838" y="3"/>
      <point x="609" y="3" type="curve" smooth="yes"/>
      <point x="351" y="3"/>
      <point x="212" y="158"/>
      <point x="212" y="444" type="curve"/>
      <point x="212" y="445" type="line"/>
      <point x="219" y="466" type="line"/>
      <point x="212" y="466" type="line"/>
      <point x="212" y="466" type="line"/>
      <point x="212" y="904"/>
      <point x="425" y="1118"/>
      <point x="844" y="1118" type="curve" smooth="yes"/>
      <point x="1249" y="1118"/>
      <point x="1452" y="938"/>
      <point x="1452" y="621" type="curve" smooth="yes"/>
      <point x="1452" y="549" type="line"/>
      <point x="1466" y="549" type="line"/>
      <point x="1469" y="755" type="line"/>
      <point x="1411" y="1035"/>
      <point x="1180" y="1153"/>
    </contour>
    <contour>
      <point x="1452" y="7" type="line"/>
      <point x="1489" y="7" type="line"/>
      <point x="1489" y="612" type="line"/>
      <point x="1452" y="612" type="line"/>
    </contour>
  </outline>
</glyph>
<glyph name="uni0D63" format="2">
  <unicode hex="0D63"/>
  <outline>
    <contour>
      <point x="-252" y="-148" type="curve"/>
      <point x="-238" y="-186" type="line"/>
      <point x="-62" y="-213"/>
      <point x="58" y="-287"/>
      <point x="58" y="-450" type="curve" smooth="yes"/>
      <point x="58" y="-455" type="line" smooth="yes"/>
      <point x="58" y="-635"/>
      <point x="-97" y="-726"/>
      <point x="-376" y="-726" type="curve" smooth="yes"/>
      <point x="-494" y="-726"/>
      <point x="-597" y="-714"/>
      <point x="-688" y="-684" type="curve"/>
      <point x="-674" y="-722" type="line"/>
      <point x="-586" y="-748"/>
      <point x="-490" y="-761"/>
      <point x="-376" y="-761" type="curve" smooth="yes"/>
      <point x="-73" y="-761"/>
      <point x="95" y="-655"/>
      <point x="95" y="-457" type="curve" smooth="yes"/>
      <point x="95" y="-450" type="line" smooth="yes"/>
      <point x="95" y="-258"/>
      <point x="-47" y="-174"/>
    </contour>
    <contour>
      <point x="-669" y="0" type="curve" smooth="yes"/>
      <point x="-471" y="0"/>
      <point x="-340" y="-62"/>
      <point x="-281" y="-155" type="curve"/>
      <point x="-272" y="-171" type="line"/>
      <point x="-256" y="-207"/>
      <point x="-246" y="-246"/>
      <point x="-246" y="-288" type="curve" smooth="yes"/>
      <point x="-246" y="-296" type="line" smooth="yes"/>
      <point x="-246" y="-434"/>
      <point x="-331" y="-503"/>
      <point x="-503" y="-503" type="curve" smooth="yes"/>
      <point x="-651" y="-503"/>
      <point x="-737" y="-452"/>
      <point x="-737" y="-356" type="curve" smooth="yes"/>
      <point x="-737" y="-351" type="line" smooth="yes"/>
      <point x="-737" y="-236"/>
      <point x="-625" y="-173"/>
      <point x="-428" y="-173" type="curve" smooth="yes"/>
      <point x="-369" y="-173"/>
      <point x="-312" y="-176"/>
      <point x="-260" y="-183" type="curve"/>
      <point x="-277" y="-145" type="line"/>
      <point x="-324" y="-140"/>
      <point x="-375" y="-138"/>
      <point x="-428" y="-138" type="curve" smooth="yes"/>
      <point x="-650" y="-138"/>
      <point x="-774" y="-213"/>
      <point x="-774" y="-351" type="curve" smooth="yes"/>
      <point x="-774" y="-356" type="line" smooth="yes"/>
      <point x="-774" y="-473"/>
      <point x="-676" y="-538"/>
      <point x="-503" y="-538" type="curve" smooth="yes"/>
      <point x="-305" y="-538"/>
      <point x="-209" y="-451"/>
      <point x="-209" y="-296" type="curve" smooth="yes"/>
      <point x="-209" y="-288" type="line" smooth="yes"/>
      <point x="-209" y="-248"/>
      <point x="-217" y="-209"/>
      <point x="-231" y="-174" type="curve"/>
      <point x="-238" y="-158" type="line"/>
      <point x="-295" y="-42"/>
      <point x="-439" y="34"/>
      <point x="-669" y="34" type="curve" smooth="yes"/>
      <point x="-923" y="34"/>
      <point x="-1060" y="-47"/>
      <point x="-1091" y="-202" type="curve"/>
      <point x="-1100" y="-202" type="line"/>
      <point x="-1099" y="-313" type="line"/>
      <point x="-1074" y="-324" type="line"/>
      <point x="-1074" y="-290" type="line" smooth="yes"/>
      <point x="-1074" y="-110"/>
      <point x="-950" y="0"/>
    </contour>
    <contour>
      <point x="-1110" y="-563" type="line"/>
      <point x="-1074" y="-563" type="line"/>
      <point x="-1074" y="-253" type="line"/>
      <point x="-1110" y="-253" type="line"/>
    </contour>
    <contour>
      <point x="-1528" y="34" type="curve" smooth="yes"/>
      <point x="-1843" y="34"/>
      <point x="-1998" y="-84"/>
      <point x="-1998" y="-313" type="curve" smooth="yes"/>
      <point x="-1998" y="-322" type="line" smooth="yes"/>
      <point x="-1998" y="-488"/>
      <point x="-1900" y="-581"/>
      <point x="-1695" y="-581" type="curve" smooth="yes"/>
      <point x="-1516" y="-581"/>
      <point x="-1415" y="-511"/>
      <point x="-1415" y="-383" type="curve" smooth="yes"/>
      <point x="-1415" y="-378" type="line" smooth="yes"/>
      <point x="-1415" y="-250"/>
      <point x="-1515" y="-181"/>
      <point x="-1692" y="-181" type="curve" smooth="yes"/>
      <point x="-1823" y="-181"/>
      <point x="-1923" y="-229"/>
      <point x="-1973" y="-308" type="curve"/>
      <point x="-1966" y="-341" type="line"/>
      <point x="-1925" y="-263"/>
      <point x="-1828" y="-215"/>
      <point x="-1692" y="-215" type="curve" smooth="yes"/>
      <point x="-1540" y="-215"/>
      <point x="-1452" y="-272"/>
      <point x="-1452" y="-378" type="curve" smooth="yes"/>
      <point x="-1452" y="-383" type="line" smooth="yes"/>
      <point x="-1452" y="-490"/>
      <point x="-1541" y="-547"/>
      <point x="-1695" y="-547" type="curve" smooth="yes"/>
      <point x="-1874" y="-547"/>
      <point x="-1961" y="-472"/>
      <point x="-1961" y="-322" type="curve" smooth="yes"/>
      <point x="-1961" y="-318" type="line"/>
      <point x="-1954" y="-291.12" type="line"/>
      <point x="-1960.74" y="-291.122" type="line"/>
      <point x="-1953.76" y="-96.1122"/>
      <point x="-1807.97" y="0"/>
      <point x="-1528" y="0" type="curve" smooth="yes"/>
      <point x="-1238" y="0"/>
      <point x="-1110" y="-110"/>
      <point x="-1110" y="-290" type="curve" smooth="yes"/>
      <point x="-1110" y="-324" type="line"/>
      <point x="-1085" y="-313" type="line"/>
      <point x="-1093" y="-202" type="line"/>
      <point x="-1126" y="-47"/>
      <point x="-1268" y="34"/>
    </contour>
  </outline>
</glyph>
<glyph name="one.mlm" format="2">
  <advance width="1886"/>
  <unicode hex="0D67"/>
  <outline>
    <contour>
      <point x="723" y="33" type="line"/>
      <point x="716" y="0" type="line"/>
      <point x="1669" y="0" type="line" name="n00"/>
      <point x="1669" y="667" type="line" smooth="yes"/>
      <point x="1669" y="999"/>
      <point x="1503" y="1153"/>
      <point x="1182" y="1153" type="curve" smooth="yes"/>
      <point x="859" y="1153"/>
      <point x="698" y="999"/>
      <point x="698" y="667" type="curve" smooth="yes"/>
      <point x="698" y="0" type="line"/>
      <point x="735" y="0" type="line"/>
      <point x="735" y="667" type="line" smooth="yes"/>
      <point x="735" y="975"/>
      <point x="884" y="1118"/>
      <point x="1182" y="1118" type="curve" smooth="yes"/>
      <point x="1478" y="1118"/>
      <point x="1632" y="975"/>
      <point x="1632" y="667" type="curve" smooth="yes"/>
      <point x="1632" y="33" type="line"/>
    </contour>
    <contour>
      <point x="719" y="33" type="line"/>
      <point x="270" y="33" type="line" smooth="yes"/>
      <point x="94" y="33"/>
      <point x="0" y="-46"/>
      <point x="0" y="-199" type="curve" smooth="yes"/>
      <point x="0" y="-354"/>
      <point x="94" y="-431"/>
      <point x="270" y="-431" type="curve" smooth="yes"/>
      <point x="687" y="-431" type="line"/>
      <point x="699" y="-398" type="line"/>
      <point x="270" y="-398" type="line" smooth="yes"/>
      <point x="120" y="-398"/>
      <point x="39" y="-333"/>
      <point x="39" y="-199" type="curve" smooth="yes"/>
      <point x="39" y="-67"/>
      <point x="120" y="0"/>
      <point x="270" y="0" type="curve" smooth="yes"/>
      <point x="731" y="0" type="line"/>
    </contour>
  </outline>
</glyph>
<glyph name="eight.mlm" format="2">
  <advance width="2290"/>
  <unicode hex="0D6E"/>
  <outline>
    <contour>
      <point x="2026" y="33" type="line"/>
      <point x="1186" y="33" type="line"/>
      <point x="1128" y="0" type="line"/>
      <point x="2026" y="0" type="line"/>
    </contour>
    <contour>
      <point x="2018" y="26" type="line"/>
      <point x="2018" y="23" type="line" smooth="yes"/>
      <point x="2018" y="-259"/>
      <point x="1835" y="-398"/>
      <point x="1492" y="-398" type="curve" smooth="yes"/>
      <point x="1339" y="-398"/>
      <point x="1205" y="-378"/>
      <point x="1098" y="-343" type="curve"/>
      <point x="1110" y="-384" type="line"/>
      <point x="1219" y="-417"/>
      <point x="1344" y="-433"/>
      <point x="1492" y="-433" type="curve" smooth="yes"/>
      <point x="1858" y="-433"/>
      <point x="2055" y="-281"/>
      <point x="2055" y="23" type="curve" smooth="yes"/>
      <point x="2055" y="1123" type="line"/>
      <point x="2018" y="1123" type="line"/>
    </contour>
    <contour>
      <point x="792" y="1123" type="curve" smooth="yes"/>
      <point x="1171" y="1123"/>
      <point x="1369" y="927"/>
      <point x="1369" y="561" type="curve" smooth="yes"/>
      <point x="1369" y="546" type="line" smooth="yes"/>
      <point x="1369" y="324"/>
      <point x="1276" y="142"/>
      <point x="1126" y="5" type="curve"/>
      <point x="1126" y="0" type="line"/>
      <point x="1175" y="0" type="line"/>
      <point x="1318" y="139"/>
      <point x="1408" y="317"/>
      <point x="1408" y="546" type="curve" smooth="yes"/>
      <point x="1408" y="561" type="line" smooth="yes"/>
      <point x="1408" y="952"/>
      <point x="1198" y="1158"/>
      <point x="792" y="1158" type="curve" smooth="yes"/>
      <point x="386" y="1158"/>
      <point x="176" y="952"/>
      <point x="176" y="561" type="curve" smooth="yes"/>
      <point x="176" y="546" type="line" smooth="yes"/>
      <point x="176" y="317"/>
      <point x="263" y="139"/>
      <point x="400" y="0" type="curve"/>
      <point x="454" y="0" type="line"/>
      <point x="306" y="137"/>
      <point x="215" y="321"/>
      <point x="215" y="546" type="curve" smooth="yes"/>
      <point x="215" y="561" type="line" smooth="yes"/>
      <point x="215" y="927"/>
      <point x="413" y="1123"/>
    </contour>
  </outline>
</glyph>
<glyph name="ten.mlm" format="2">
  <advance width="2391"/>
  <unicode hex="0D70"/>
  <outline>
    <contour>
      <point x="852" y="-32" type="curve" smooth="yes"/>
      <point x="1093" y="-32"/>
      <point x="1239" y="85"/>
      <point x="1274" y="310" type="curve"/>
      <point x="1287" y="310" type="line"/>
      <point x="1287" y="649" type="line"/>
      <point x="1257" y="649" type="line"/>
      <point x="1257" y="459" type="line" smooth="yes"/>
      <point x="1257" y="156"/>
      <point x="1121" y="4"/>
      <point x="852" y="4" type="curve" smooth="yes"/>
      <point x="583" y="4"/>
      <point x="447" y="156"/>
      <point x="447" y="459" type="curve" smooth="yes"/>
      <point x="447" y="649" type="line"/>
      <point x="417" y="649" type="line"/>
      <point x="417" y="238" type="line"/>
      <point x="447" y="238" type="line"/>
      <point x="498" y="60"/>
      <point x="639" y="-32"/>
    </contour>
    <contour>
      <point x="1294" y="495" type="line"/>
      <point x="1294" y="1111" type="line"/>
      <point x="1257" y="1111" type="line"/>
      <point x="1257" y="495" type="line"/>
    </contour>
    <contour>
      <point x="410" y="58" type="line" smooth="yes"/>
      <point x="410" y="-180"/>
      <point x="289" y="-297"/>
      <point x="60" y="-297" type="curve" smooth="yes"/>
      <point x="-39" y="-297"/>
      <point x="-125" y="-283"/>
      <point x="-194" y="-255" type="curve"/>
      <point x="-181" y="-296" type="line"/>
      <point x="-112" y="-321"/>
      <point x="-33" y="-333"/>
      <point x="60" y="-333" type="curve" smooth="yes"/>
      <point x="310" y="-333"/>
      <point x="445" y="-202"/>
      <point x="445" y="58" type="curve" smooth="yes"/>
      <point x="445" y="271" type="line"/>
      <point x="447" y="294" type="line"/>
      <point x="447" y="1123" type="line"/>
      <point x="410" y="1123" type="line"/>
    </contour>
    <contour>
      <point x="1277" y="310" type="line"/>
      <point x="1317" y="85"/>
      <point x="1466" y="-32"/>
      <point x="1719" y="-32" type="curve" smooth="yes"/>
      <point x="2050" y="-32"/>
      <point x="2215" y="158"/>
      <point x="2215" y="526" type="curve" smooth="yes"/>
      <point x="2215" y="542" type="line" smooth="yes"/>
      <point x="2215" y="780"/>
      <point x="2126" y="968"/>
      <point x="1980" y="1118" type="curve"/>
      <point x="1929" y="1118" type="line"/>
      <point x="2082" y="968"/>
      <point x="2176" y="780"/>
      <point x="2176" y="542" type="curve" smooth="yes"/>
      <point x="2176" y="526" type="line" smooth="yes"/>
      <point x="2176" y="180"/>
      <point x="2023" y="3"/>
      <point x="1717" y="3" type="curve" smooth="yes"/>
      <point x="1435" y="3"/>
      <point x="1294" y="155"/>
      <point x="1294" y="459" type="curve" smooth="yes"/>
      <point x="1294" y="637" type="line"/>
      <point x="1277" y="637" type="line"/>
    </contour>
  </outline>
</glyph>
<glyph name="onehalf.mlm" format="2">
  <advance width="2228"/>
  <unicode hex="0D74"/>
  <outline>
    <contour>
      <point x="1640" y="-32" type="curve" smooth="yes"/>
      <point x="1919" y="-32"/>
      <point x="2055" y="141"/>
      <point x="2055" y="456" type="curve" smooth="yes"/>
      <point x="2055" y="470" type="line" smooth="yes"/>
      <point x="2055" y="810"/>
      <point x="1875" y="1028"/>
      <point x="1517" y="1115" type="curve"/>
      <point x="1511" y="1116"/>
      <point x="1503" y="1118"/>
      <point x="1497" y="1119" type="curve"/>
      <point x="1383" y="1145"/>
      <point x="1252" y="1158"/>
      <point x="1102" y="1158" type="curve" smooth="yes"/>
      <point x="478.716" y="1158"/>
      <point x="174" y="930"/>
      <point x="174" y="465" type="curve" smooth="yes"/>
      <point x="174" y="444" type="line" smooth="yes"/>
      <point x="174" y="136"/>
      <point x="323" y="-32"/>
      <point x="605" y="-32" type="curve" smooth="yes"/>
      <point x="859" y="-32"/>
      <point x="999" y="99"/>
      <point x="999" y="327" type="curve" smooth="yes"/>
      <point x="999" y="337" type="line" smooth="yes"/>
      <point x="999" y="561"/>
      <point x="857" y="688"/>
      <point x="608" y="688" type="curve" smooth="yes"/>
      <point x="405" y="688"/>
      <point x="246" y="584.192"/>
      <point x="198" y="431" type="curve"/>
      <point x="212" y="415" type="line"/>
      <point x="270" y="560.22"/>
      <point x="412" y="653"/>
      <point x="608" y="653" type="curve" smooth="yes"/>
      <point x="832" y="653"/>
      <point x="960" y="538"/>
      <point x="960" y="337" type="curve" smooth="yes"/>
      <point x="960" y="327" type="line" smooth="yes"/>
      <point x="960" y="120"/>
      <point x="835" y="3"/>
      <point x="605" y="3" type="curve" smooth="yes"/>
      <point x="348" y="3"/>
      <point x="212" y="158"/>
      <point x="212" y="444" type="curve"/>
      <point x="212" y="445" type="line"/>
      <point x="222" y="467" type="line"/>
      <point x="212" y="467" type="line"/>
      <point x="212" y="468" type="line"/>
      <point x="212" y="907.985"/>
      <point x="504.749" y="1123"/>
      <point x="1102" y="1123" type="curve" smooth="yes"/>
      <point x="1249" y="1123"/>
      <point x="1373" y="1109"/>
      <point x="1485" y="1084" type="curve"/>
      <point x="1490" y="1082"/>
      <point x="1498" y="1083"/>
      <point x="1503" y="1081" type="curve"/>
      <point x="1835" y="997"/>
      <point x="2016" y="808"/>
      <point x="2016" y="470" type="curve" smooth="yes"/>
      <point x="2016" y="456" type="line" smooth="yes"/>
      <point x="2016" y="160"/>
      <point x="1894" y="3"/>
      <point x="1640" y="3" type="curve" smooth="yes"/>
      <point x="1409" y="3"/>
      <point x="1283" y="148"/>
      <point x="1283" y="412" type="curve" smooth="yes"/>
      <point x="1283" y="422" type="line" smooth="yes"/>
      <point x="1283" y="682"/>
      <point x="1394" y="884"/>
      <point x="1517" y="1092" type="curve"/>
      <point x="1519" y="1094"/>
      <point x="1524" y="1104"/>
      <point x="1526" y="1106" type="curve"/>
      <point x="1566" y="1180"/>
      <point x="1592" y="1255"/>
      <point x="1592" y="1329" type="curve" smooth="yes"/>
      <point x="1592" y="1428"/>
      <point x="1559" y="1510"/>
      <point x="1496" y="1582" type="curve"/>
      <point x="1455" y="1582" type="line"/>
      <point x="1527" y="1494"/>
      <point x="1554" y="1421"/>
      <point x="1554" y="1329" type="curve" smooth="yes"/>
      <point x="1554" y="1255"/>
      <point x="1529" y="1184"/>
      <point x="1489" y="1112" type="curve"/>
      <point x="1487" y="1110"/>
      <point x="1484" y="1104"/>
      <point x="1482" y="1102" type="curve"/>
      <point x="1359" y="898"/>
      <point x="1244" y="700"/>
      <point x="1244" y="422" type="curve" smooth="yes"/>
      <point x="1244" y="412" type="line" smooth="yes"/>
      <point x="1244" y="125"/>
      <point x="1384" y="-32"/>
    </contour>
  </outline>
</glyph>
<glyph name="threequarters.mlm" format="2">
  <advance width="2945"/>
  <unicode hex="0D75"/>
  <outline>
    <contour>
      <point x="844" y="1153" type="curve" smooth="yes"/>
      <point x="399" y="1153"/>
      <point x="174" y="926"/>
      <point x="174" y="465" type="curve" smooth="yes"/>
      <point x="174" y="444" type="line" smooth="yes"/>
      <point x="174" y="136"/>
      <point x="325" y="-32"/>
      <point x="609" y="-32" type="curve" smooth="yes"/>
      <point x="863" y="-32"/>
      <point x="1007" y="98"/>
      <point x="1007" y="327" type="curve" smooth="yes"/>
      <point x="1007" y="337" type="line" smooth="yes"/>
      <point x="1007" y="561"/>
      <point x="863" y="688"/>
      <point x="611" y="688" type="curve" smooth="yes"/>
      <point x="405" y="688"/>
      <point x="247" y="583"/>
      <point x="198" y="430" type="curve"/>
      <point x="212" y="414" type="line"/>
      <point x="274" y="559"/>
      <point x="412" y="653"/>
      <point x="611" y="653" type="curve" smooth="yes"/>
      <point x="838" y="653"/>
      <point x="968" y="538"/>
      <point x="968" y="337" type="curve" smooth="yes"/>
      <point x="968" y="327" type="line" smooth="yes"/>
      <point x="968" y="119"/>
      <point x="838" y="3"/>
      <point x="609" y="3" type="curve" smooth="yes"/>
      <point x="351" y="3"/>
      <point x="212" y="158"/>
      <point x="212" y="444" type="curve"/>
      <point x="212" y="445" type="line"/>
      <point x="219" y="466" type="line"/>
      <point x="212" y="466" type="line"/>
      <point x="212" y="466" type="line"/>
      <point x="212" y="904"/>
      <point x="425" y="1118"/>
      <point x="844" y="1118" type="curve" smooth="yes"/>
      <point x="1249" y="1118"/>
      <point x="1452" y="938"/>
      <point x="1452" y="621" type="curve" smooth="yes"/>
      <point x="1452" y="549" type="line"/>
      <point x="1466" y="549" type="line"/>
      <point x="1469" y="755" type="line"/>
      <point x="1411" y="1035"/>
      <point x="1180" y="1153"/>
    </contour>
    <contour>
      <point x="1452" y="7" type="line"/>
      <point x="1489" y="7" type="line"/>
      <point x="1489" y="612" type="line"/>
      <point x="1452" y="612" type="line"/>
    </contour>
    <contour>
      <point x="2088" y="1118" type="curve" smooth="yes"/>
      <point x="2130" y="1118"/>
      <point x="2178" y="1116"/>
      <point x="2218" y="1109" type="curve"/>
      <point x="2233" y="1107" type="line"/>
      <point x="2530" y="1056"/>
      <point x="2733" y="865"/>
      <point x="2733" y="480" type="curve" smooth="yes"/>
      <point x="2733" y="466" type="line" smooth="yes"/>
      <point x="2733" y="163"/>
      <point x="2613" y="3"/>
      <point x="2366" y="3" type="curve" smooth="yes"/>
      <point x="2140" y="3"/>
      <point x="2018" y="148"/>
      <point x="2018" y="412" type="curve" smooth="yes"/>
      <point x="2018" y="422" type="line" smooth="yes"/>
      <point x="2018" y="693"/>
      <point x="2131" y="903"/>
      <point x="2256" y="1119" type="curve"/>
      <point x="2256" y="1121"/>
      <point x="2265" y="1131"/>
      <point x="2265" y="1133" type="curve"/>
      <point x="2304" y="1198"/>
      <point x="2327" y="1264"/>
      <point x="2327" y="1329" type="curve" smooth="yes"/>
      <point x="2327" y="1428"/>
      <point x="2294" y="1510"/>
      <point x="2231" y="1582" type="curve"/>
      <point x="2190" y="1582" type="line"/>
      <point x="2262" y="1494"/>
      <point x="2289" y="1421"/>
      <point x="2289" y="1329" type="curve" smooth="yes"/>
      <point x="2289" y="1264"/>
      <point x="2266" y="1202"/>
      <point x="2227" y="1139" type="curve"/>
      <point x="2227" y="1139"/>
      <point x="2220" y="1130"/>
      <point x="2220" y="1128" type="curve"/>
      <point x="2095" y="917"/>
      <point x="1979" y="711"/>
      <point x="1979" y="422" type="curve" smooth="yes"/>
      <point x="1979" y="412" type="line" smooth="yes"/>
      <point x="1979" y="125"/>
      <point x="2115" y="-32"/>
      <point x="2366" y="-32" type="curve" smooth="yes"/>
      <point x="2638" y="-32"/>
      <point x="2772" y="144"/>
      <point x="2772" y="466" type="curve" smooth="yes"/>
      <point x="2772" y="480" type="line" smooth="yes"/>
      <point x="2772" y="880"/>
      <point x="2562" y="1087"/>
      <point x="2252" y="1139" type="curve" smooth="yes"/>
      <point x="2234" y="1142" type="line" smooth="yes"/>
      <point x="2188" y="1150"/>
      <point x="2139" y="1153"/>
      <point x="2088" y="1153" type="curve" smooth="yes"/>
      <point x="1757" y="1153"/>
      <point x="1529" y="1035"/>
      <point x="1472" y="755" type="curve"/>
      <point x="1463" y="755" type="line"/>
      <point x="1465" y="549" type="line"/>
      <point x="1489" y="549" type="line"/>
      <point x="1489" y="621" type="line" smooth="yes"/>
      <point x="1489" y="938"/>
      <point x="1690" y="1118"/>
    </contour>
  </outline>
</glyph>
<glyph name="chilluRr.mlm" format="2">
  <advance width="1798"/>
  <unicode hex="0D7C"/>
  <outline>
    <contour>
      <point x="814" y="422" type="curve" smooth="yes"/>
      <point x="814" y="412" type="line" smooth="yes"/>
      <point x="814" y="125"/>
      <point x="956" y="-32"/>
      <point x="1210" y="-32" type="curve" smooth="yes"/>
      <point x="1492" y="-32"/>
      <point x="1625" y="144"/>
      <point x="1625" y="466" type="curve" smooth="yes"/>
      <point x="1625" y="480" type="line" smooth="yes"/>
      <point x="1625" y="848"/>
      <point x="1446" y="1082"/>
      <point x="1094" y="1142" type="curve"/>
      <point x="1078" y="1146" type="line"/>
      <point x="1024" y="1153"/>
      <point x="965" y="1158"/>
      <point x="901" y="1158" type="curve" smooth="yes"/>
      <point x="411" y="1158"/>
      <point x="174" y="938"/>
      <point x="174" y="510" type="curve" smooth="yes"/>
      <point x="174" y="496" type="line" smooth="yes"/>
      <point x="174" y="304"/>
      <point x="243" y="132"/>
      <point x="352" y="0" type="curve"/>
      <point x="403" y="0" type="line"/>
      <point x="285" y="132"/>
      <point x="213" y="304"/>
      <point x="213" y="496" type="curve" smooth="yes"/>
      <point x="213" y="510" type="line" smooth="yes"/>
      <point x="213" y="915"/>
      <point x="437" y="1123"/>
      <point x="901" y="1123" type="curve" smooth="yes"/>
      <point x="956" y="1123"/>
      <point x="1009" y="1119"/>
      <point x="1057" y="1112" type="curve"/>
      <point x="1071" y="1111" type="line"/>
      <point x="1412" y="1056"/>
      <point x="1586" y="834"/>
      <point x="1586" y="480" type="curve" smooth="yes"/>
      <point x="1586" y="466" type="line" smooth="yes"/>
      <point x="1586" y="163"/>
      <point x="1468" y="3"/>
      <point x="1210" y="3" type="curve" smooth="yes"/>
      <point x="980" y="3"/>
      <point x="853" y="148"/>
      <point x="853" y="412" type="curve" smooth="yes"/>
      <point x="853" y="422" type="line" smooth="yes"/>
      <point x="853" y="693"/>
      <point x="967" y="903"/>
      <point x="1092" y="1119" type="curve"/>
      <point x="1094" y="1121"/>
      <point x="1099" y="1131"/>
      <point x="1101" y="1133" type="curve"/>
      <point x="1140" y="1198"/>
      <point x="1162" y="1264"/>
      <point x="1162" y="1329" type="curve" smooth="yes"/>
      <point x="1162" y="1428"/>
      <point x="1129" y="1510"/>
      <point x="1066" y="1582" type="curve"/>
      <point x="1026" y="1582" type="line"/>
      <point x="1098" y="1494"/>
      <point x="1124" y="1421"/>
      <point x="1124" y="1329" type="curve" smooth="yes"/>
      <point x="1124" y="1264"/>
      <point x="1102" y="1202"/>
      <point x="1063" y="1139" type="curve"/>
      <point x="1061" y="1137"/>
      <point x="1058" y="1130"/>
      <point x="1056" y="1128" type="curve"/>
      <point x="931" y="917"/>
      <point x="814" y="711"/>
    </contour>
  </outline>
</glyph>
<glyph name="chilluL.mlm" format="2">
  <advance width="2862"/>
  <unicode hex="0D7D"/>
  <outline>
    <contour>
      <point x="2650" y="449" type="curve" smooth="yes"/>
      <point x="2650" y="436" type="line" smooth="yes"/>
      <point x="2650" y="153"/>
      <point x="2529" y="3"/>
      <point x="2281" y="3" type="curve" smooth="yes"/>
      <point x="2054" y="3"/>
      <point x="1931" y="139"/>
      <point x="1931" y="387" type="curve" smooth="yes"/>
      <point x="1931" y="398" type="line" smooth="yes"/>
      <point x="1931" y="701"/>
      <point x="2085" y="899"/>
      <point x="2229" y="1063" type="curve"/>
      <point x="2230" y="1064"/>
      <point x="2239" y="1074"/>
      <point x="2240" y="1075" type="curve"/>
      <point x="2319" y="1163"/>
      <point x="2349" y="1250"/>
      <point x="2349" y="1329" type="curve" smooth="yes"/>
      <point x="2349" y="1428"/>
      <point x="2316" y="1510"/>
      <point x="2253" y="1582" type="curve"/>
      <point x="2212" y="1582" type="line"/>
      <point x="2284" y="1494"/>
      <point x="2311" y="1421"/>
      <point x="2311" y="1329" type="curve" smooth="yes"/>
      <point x="2311" y="1252"/>
      <point x="2281" y="1167"/>
      <point x="2205" y="1086" type="curve"/>
      <point x="2204" y="1085"/>
      <point x="2194" y="1073"/>
      <point x="2193" y="1072" type="curve"/>
      <point x="2049" y="903"/>
      <point x="1892" y="711"/>
      <point x="1892" y="398" type="curve" smooth="yes"/>
      <point x="1892" y="387" type="line" smooth="yes"/>
      <point x="1892" y="116"/>
      <point x="2029" y="-32"/>
      <point x="2281" y="-32" type="curve" smooth="yes"/>
      <point x="2554" y="-32"/>
      <point x="2689" y="132"/>
      <point x="2689" y="436" type="curve" smooth="yes"/>
      <point x="2689" y="449" type="line" smooth="yes"/>
      <point x="2689" y="803"/>
      <point x="2487" y="998"/>
      <point x="2232" y="1084" type="curve"/>
      <point x="2214" y="1089" type="line" smooth="yes"/>
      <point x="2068" y="1133"/>
      <point x="1910" y="1153"/>
      <point x="1753" y="1153" type="curve" smooth="yes"/>
      <point x="1552" y="1153"/>
      <point x="1373" y="1128"/>
      <point x="1227" y="1072" type="curve" smooth="yes"/>
      <point x="1213" y="1067" type="line"/>
      <point x="961" y="960"/>
      <point x="811" y="762"/>
      <point x="811" y="459" type="curve" smooth="yes"/>
      <point x="811" y="442" type="line" smooth="yes"/>
      <point x="811" y="129"/>
      <point x="952" y="-32"/>
      <point x="1225" y="-32" type="curve" smooth="yes"/>
      <point x="1498" y="-32"/>
      <point x="1639" y="132"/>
      <point x="1639" y="452" type="curve" smooth="yes"/>
      <point x="1639" y="470" type="line" smooth="yes"/>
      <point x="1639" y="745"/>
      <point x="1503" y="963"/>
      <point x="1262" y="1074" type="curve"/>
      <point x="1239" y="1082" type="line"/>
      <point x="1133" y="1128"/>
      <point x="1009" y="1153"/>
      <point x="873" y="1153" type="curve" smooth="yes"/>
      <point x="405" y="1153"/>
      <point x="174" y="941"/>
      <point x="174" y="524" type="curve" smooth="yes"/>
      <point x="174" y="507" type="line" smooth="yes"/>
      <point x="174" y="308"/>
      <point x="243" y="137"/>
      <point x="354" y="0" type="curve"/>
      <point x="405" y="0" type="line"/>
      <point x="285" y="137"/>
      <point x="213" y="308"/>
      <point x="213" y="507" type="curve" smooth="yes"/>
      <point x="213" y="524" type="line" smooth="yes"/>
      <point x="213" y="918"/>
      <point x="429" y="1118"/>
      <point x="873" y="1118" type="curve" smooth="yes"/>
      <point x="993" y="1118"/>
      <point x="1104" y="1098"/>
      <point x="1197" y="1063" type="curve"/>
      <point x="1221" y="1056" type="line"/>
      <point x="1462" y="950"/>
      <point x="1600" y="736"/>
      <point x="1600" y="470" type="curve" smooth="yes"/>
      <point x="1600" y="452" type="line" smooth="yes"/>
      <point x="1600" y="155"/>
      <point x="1471" y="3"/>
      <point x="1225" y="3" type="curve" smooth="yes"/>
      <point x="979" y="3"/>
      <point x="850" y="152"/>
      <point x="850" y="442" type="curve" smooth="yes"/>
      <point x="850" y="459" type="line" smooth="yes"/>
      <point x="850" y="756"/>
      <point x="998" y="945"/>
      <point x="1253" y="1044" type="curve"/>
      <point x="1271" y="1049" type="line"/>
      <point x="1407" y="1093"/>
      <point x="1570" y="1118"/>
      <point x="1753" y="1118" type="curve" smooth="yes"/>
      <point x="1903" y="1118"/>
      <point x="2057" y="1100"/>
      <point x="2196" y="1058" type="curve"/>
      <point x="2207" y="1054" type="line" smooth="yes"/>
      <point x="2457" y="968"/>
      <point x="2650" y="792"/>
    </contour>
  </outline>
</glyph>
<glyph name="chilluLl.mlm" format="2">
  <advance width="2482"/>
  <unicode hex="0D7E"/>
  <outline>
    <contour>
      <point x="1776" y="1149" type="line"/>
      <point x="1737" y="1154"/>
      <point x="1698" y="1158"/>
      <point x="1656" y="1158" type="curve" smooth="yes"/>
      <point x="1235" y="1158"/>
      <point x="1029" y="954"/>
      <point x="1029" y="558" type="curve" smooth="yes"/>
      <point x="1029" y="489"/>
      <point x="1029" y="458"/>
      <point x="1029" y="389" type="curve" smooth="yes"/>
      <point x="1029" y="136"/>
      <point x="896" y="3"/>
      <point x="644" y="3" type="curve" smooth="yes"/>
      <point x="360" y="3"/>
      <point x="215" y="165"/>
      <point x="215" y="491" type="curve" smooth="yes"/>
      <point x="215" y="517" type="line" smooth="yes"/>
      <point x="215" y="770"/>
      <point x="313" y="963"/>
      <point x="484" y="1118" type="curve"/>
      <point x="431" y="1118" type="line"/>
      <point x="267" y="965"/>
      <point x="176" y="767"/>
      <point x="176" y="517" type="curve" smooth="yes"/>
      <point x="176" y="491" type="line" smooth="yes"/>
      <point x="176" y="146"/>
      <point x="332" y="-32"/>
      <point x="644" y="-32" type="curve" smooth="yes"/>
      <point x="920" y="-32"/>
      <point x="1066" y="113"/>
      <point x="1066" y="384" type="curve" smooth="yes"/>
      <point x="1066" y="453"/>
      <point x="1066" y="484"/>
      <point x="1066" y="553" type="curve" smooth="yes"/>
      <point x="1066" y="930"/>
      <point x="1260" y="1123"/>
      <point x="1656" y="1123" type="curve" smooth="yes"/>
      <point x="1691" y="1123"/>
      <point x="1727" y="1121"/>
      <point x="1760" y="1116" type="curve" smooth="yes"/>
      <point x="1774" y="1114" type="line"/>
      <point x="2068" y="1063"/>
      <point x="2270" y="872"/>
      <point x="2270" y="480" type="curve" smooth="yes"/>
      <point x="2270" y="466" type="line" smooth="yes"/>
      <point x="2270" y="163"/>
      <point x="2149" y="3"/>
      <point x="1901" y="3" type="curve" smooth="yes"/>
      <point x="1674" y="3"/>
      <point x="1551" y="148"/>
      <point x="1551" y="412" type="curve" smooth="yes"/>
      <point x="1551" y="422" type="line" smooth="yes"/>
      <point x="1551" y="693"/>
      <point x="1666" y="903"/>
      <point x="1794" y="1119" type="curve"/>
      <point x="1796" y="1121"/>
      <point x="1801" y="1131"/>
      <point x="1803" y="1133" type="curve"/>
      <point x="1838" y="1198"/>
      <point x="1859" y="1264"/>
      <point x="1859" y="1329" type="curve" smooth="yes"/>
      <point x="1859" y="1428"/>
      <point x="1826" y="1510"/>
      <point x="1763" y="1582" type="curve"/>
      <point x="1723" y="1582" type="line"/>
      <point x="1795" y="1494"/>
      <point x="1821" y="1421"/>
      <point x="1821" y="1329" type="curve" smooth="yes"/>
      <point x="1821" y="1264"/>
      <point x="1800" y="1202"/>
      <point x="1765" y="1139" type="curve"/>
      <point x="1763" y="1137"/>
      <point x="1760" y="1130"/>
      <point x="1758" y="1128" type="curve"/>
      <point x="1630" y="917"/>
      <point x="1512" y="711"/>
      <point x="1512" y="422" type="curve" smooth="yes"/>
      <point x="1512" y="412" type="line" smooth="yes"/>
      <point x="1512" y="125"/>
      <point x="1649" y="-32"/>
      <point x="1901" y="-32" type="curve" smooth="yes"/>
      <point x="2174" y="-32"/>
      <point x="2309" y="144"/>
      <point x="2309" y="466" type="curve" smooth="yes"/>
      <point x="2309" y="480" type="line" smooth="yes"/>
      <point x="2309" y="887"/>
      <point x="2099" y="1093"/>
      <point x="1793" y="1146" type="curve" smooth="yes"/>
    </contour>
  </outline>
</glyph>
<glyph name="fivesuperior" format="2">
  <advance width="913"/>
  <unicode hex="2075"/>
  <outline>
    <contour>
      <point x="478" y="740" type="curve" smooth="yes"/>
      <point x="708" y="740"/>
      <point x="831" y="820"/>
      <point x="831" y="961" type="curve" smooth="yes"/>
      <point x="831" y="969" type="line" smooth="yes"/>
      <point x="831" y="1112"/>
      <point x="725" y="1178"/>
      <point x="514" y="1178" type="curve" smooth="yes"/>
      <point x="326" y="1178"/>
      <point x="215" y="1111"/>
      <point x="151" y="1051" type="curve"/>
      <point x="159" y="1047" type="line"/>
      <point x="160" y="1198" type="line"/>
      <point x="160" y="1389" type="line"/>
      <point x="793" y="1389" type="line"/>
      <point x="793" y="1422" type="line"/>
      <point x="126" y="1422" type="line"/>
      <point x="126" y="1030" type="line"/>
      <point x="156" y="1024" type="line"/>
      <point x="237" y="1096"/>
      <point x="350" y="1145"/>
      <point x="510" y="1145" type="curve" smooth="yes"/>
      <point x="701" y="1145"/>
      <point x="794" y="1090"/>
      <point x="794" y="968" type="curve" smooth="yes"/>
      <point x="794" y="962" type="line" smooth="yes"/>
      <point x="794" y="840"/>
      <point x="683" y="773"/>
      <point x="477" y="773" type="curve" smooth="yes"/>
      <point x="318" y="773"/>
      <point x="201" y="805"/>
      <point x="120" y="844" type="curve"/>
      <point x="125" y="807" type="line"/>
      <point x="194" y="777"/>
      <point x="305" y="740"/>
    </contour>
  </outline>
</glyph>
<glyph name="minus" format="2">
  <advance width="1351"/>
  <unicode hex="2212"/>
  <outline>
    <contour>
      <point x="1185" y="596" type="line"/>
      <point x="1185" y="630" type="line"/>
      <point x="166" y="630" type="line"/>
      <point x="166" y="596" type="line"/>
    </contour>
  </outline>
</glyph>
<glyph name="BaBa.mlm" format="2">
  <advance width="3359"/>
  <outline>
    <component base="Ba.mlm"/>
    <contour>
      <point x="3087" y="26" type="line" name="n31"/>
      <point x="3087" y="-517" type="line"/>
      <point x="3124" y="-517" type="line" name="n33"/>
      <point x="3124" y="25" type="line" name="n32"/>
    </contour>
    <contour>
      <point x="2000" y="-484" type="line"/>
      <point x="2325" y="-396"/>
      <point x="2603" y="-208"/>
      <point x="2677" y="18" type="curve"/>
      <point x="2642" y="25" type="line"/>
      <point x="2561" y="-209"/>
      <point x="2274" y="-376"/>
      <point x="1908" y="-484" type="curve"/>
      <point x="1915" y="-517" type="line"/>
      <point x="3094" y="-517" type="line"/>
      <point x="3094" y="-484" type="line"/>
    </contour>
  </outline>
</glyph>
<glyph name="BaDa.mlm" format="2">
  <advance width="3359"/>
  <outline>
    <component base="Ba.mlm"/>
    <contour>
      <point x="3057" y="-148" type="line" smooth="yes"/>
      <point x="3057" y="-31"/>
      <point x="2936" y="28"/>
      <point x="2704" y="28" type="curve" smooth="yes"/>
      <point x="2437" y="28"/>
      <point x="2304" y="-80"/>
      <point x="2304" y="-303" type="curve" smooth="yes"/>
      <point x="2304" y="-310" type="line" smooth="yes"/>
      <point x="2304" y="-414"/>
      <point x="2336" y="-496"/>
      <point x="2378" y="-567" type="curve"/>
      <point x="2420" y="-567" type="line"/>
      <point x="2374" y="-493"/>
      <point x="2341" y="-410"/>
      <point x="2341" y="-310" type="curve" smooth="yes"/>
      <point x="2341" y="-303" type="line" smooth="yes"/>
      <point x="2341" y="-99"/>
      <point x="2459" y="0"/>
      <point x="2704" y="0" type="curve" smooth="yes"/>
      <point x="2918" y="0"/>
      <point x="3020" y="-52"/>
      <point x="3020" y="-148" type="curve" smooth="yes"/>
      <point x="3020" y="-153" type="line" smooth="yes"/>
      <point x="3020" y="-221"/>
      <point x="2961" y="-257"/>
      <point x="2839" y="-257" type="curve" smooth="yes"/>
      <point x="2667" y="-257" type="line"/>
      <point x="2667" y="-290" type="line"/>
      <point x="2843" y="-290" type="line" smooth="yes"/>
      <point x="2971" y="-290"/>
      <point x="3038" y="-331"/>
      <point x="3038" y="-412" type="curve" smooth="yes"/>
      <point x="3038" y="-415" type="line" smooth="yes"/>
      <point x="3038" y="-501"/>
      <point x="2969" y="-546"/>
      <point x="2834" y="-546" type="curve" smooth="yes"/>
      <point x="2774" y="-546"/>
      <point x="2698" y="-536"/>
      <point x="2630" y="-517" type="curve"/>
      <point x="2638" y="-553" type="line"/>
      <point x="2702" y="-571"/>
      <point x="2776" y="-579"/>
      <point x="2836" y="-579" type="curve" smooth="yes"/>
      <point x="2995" y="-579"/>
      <point x="3075" y="-526"/>
      <point x="3075" y="-415" type="curve" smooth="yes"/>
      <point x="3075" y="-412" type="line" smooth="yes"/>
      <point x="3075" y="-339"/>
      <point x="3030" y="-293"/>
      <point x="2945" y="-275" type="curve"/>
      <point x="2945" y="-274" type="line"/>
      <point x="3019" y="-256"/>
      <point x="3057" y="-215"/>
      <point x="3057" y="-153" type="curve" smooth="yes"/>
    </contour>
  </outline>
</glyph>
<glyph name="BaLa.mlm" format="2">
  <advance width="3359"/>
  <outline>
    <component base="Ba.mlm"/>
    <contour>
      <point x="2045" y="34" type="curve" smooth="yes"/>
      <point x="1721" y="34"/>
      <point x="1563" y="-80"/>
      <point x="1563" y="-313" type="curve" smooth="yes"/>
      <point x="1563" y="-322" type="line" smooth="yes"/>
      <point x="1563" y="-488"/>
      <point x="1660" y="-581"/>
      <point x="1866" y="-581" type="curve" smooth="yes"/>
      <point x="2045" y="-581"/>
      <point x="2145" y="-511"/>
      <point x="2145" y="-383" type="curve" smooth="yes"/>
      <point x="2145" y="-378" type="line" smooth="yes"/>
      <point x="2145" y="-250"/>
      <point x="2046" y="-181"/>
      <point x="1869" y="-181" type="curve" smooth="yes"/>
      <point x="1738" y="-181"/>
      <point x="1638" y="-229"/>
      <point x="1588" y="-308" type="curve"/>
      <point x="1595" y="-341" type="line"/>
      <point x="1635" y="-263"/>
      <point x="1733" y="-215"/>
      <point x="1869" y="-215" type="curve" smooth="yes"/>
      <point x="2021" y="-215"/>
      <point x="2108" y="-272"/>
      <point x="2108" y="-378" type="curve" smooth="yes"/>
      <point x="2108" y="-383" type="line" smooth="yes"/>
      <point x="2108" y="-490"/>
      <point x="2020" y="-547"/>
      <point x="1866" y="-547" type="curve" smooth="yes"/>
      <point x="1686" y="-547"/>
      <point x="1600" y="-472"/>
      <point x="1600" y="-322" type="curve" smooth="yes"/>
      <point x="1600" y="-318" type="line"/>
      <point x="1613.78" y="-291.425" type="line"/>
      <point x="1600.26" y="-291.425" type="line"/>
      <point x="1607.23" y="-96.212"/>
      <point x="1756.1" y="0"/>
      <point x="2045" y="0" type="curve" smooth="yes"/>
      <point x="2337" y="0"/>
      <point x="2454" y="-110"/>
      <point x="2482" y="-281" type="curve" smooth="yes"/>
      <point x="2487" y="-311" type="line" smooth="yes"/>
      <point x="2514" y="-475"/>
      <point x="2596" y="-581"/>
      <point x="2813" y="-581" type="curve" smooth="yes"/>
      <point x="3024" y="-581"/>
      <point x="3126" y="-482"/>
      <point x="3126" y="-288" type="curve" smooth="yes"/>
      <point x="3126" y="-281" type="line" smooth="yes"/>
      <point x="3126" y="-156"/>
      <point x="3071" y="-57"/>
      <point x="2980" y="14" type="curve"/>
      <point x="2944" y="7" type="line"/>
      <point x="3036" y="-68"/>
      <point x="3089" y="-159"/>
      <point x="3089" y="-281" type="curve" smooth="yes"/>
      <point x="3089" y="-288" type="line" smooth="yes"/>
      <point x="3089" y="-463"/>
      <point x="2998" y="-547"/>
      <point x="2813" y="-547" type="curve" smooth="yes"/>
      <point x="2624" y="-547"/>
      <point x="2548" y="-458"/>
      <point x="2522" y="-304" type="curve" smooth="yes"/>
      <point x="2517" y="-274" type="line" smooth="yes"/>
      <point x="2493" y="-133"/>
      <point x="2418" y="-35"/>
      <point x="2250" y="7" type="curve" smooth="yes"/>
      <point x="2239" y="10"/>
      <point x="2235" y="12"/>
      <point x="2223" y="15" type="curve" smooth="yes"/>
      <point x="2175" y="28"/>
      <point x="2110" y="34"/>
    </contour>
  </outline>
</glyph>
<glyph name="CaCha.mlm" format="2">
  <advance width="2148"/>
  <outline>
    <component base="Ca.mlm"/>
    <contour>
      <point x="87" y="-537" type="line"/>
      <point x="99" y="-568" type="line"/>
      <point x="1136" y="-568" type="line"/>
      <point x="1118" y="-537" type="line"/>
    </contour>
    <contour>
      <point x="525" y="-549" type="curve"/>
      <point x="569" y="-558" type="line"/>
      <point x="690" y="-528"/>
      <point x="761" y="-451"/>
      <point x="761" y="-352" type="curve" smooth="yes"/>
      <point x="761" y="-343" type="line" smooth="yes"/>
      <point x="761" y="-205"/>
      <point x="670" y="-134"/>
      <point x="497" y="-134" type="curve" smooth="yes"/>
      <point x="329" y="-134"/>
      <point x="241" y="-201"/>
      <point x="241" y="-324" type="curve" smooth="yes"/>
      <point x="241" y="-329" type="line" smooth="yes"/>
      <point x="241" y="-361"/>
      <point x="252" y="-398"/>
      <point x="266" y="-421" type="curve"/>
      <point x="301" y="-421" type="line"/>
      <point x="287" y="-395"/>
      <point x="277" y="-361"/>
      <point x="277" y="-329" type="curve" smooth="yes"/>
      <point x="277" y="-324" type="line" smooth="yes"/>
      <point x="277" y="-222"/>
      <point x="352" y="-168"/>
      <point x="497" y="-168" type="curve" smooth="yes"/>
      <point x="646" y="-168"/>
      <point x="724" y="-225"/>
      <point x="724" y="-343" type="curve" smooth="yes"/>
      <point x="724" y="-352" type="line" smooth="yes"/>
      <point x="724" y="-446"/>
      <point x="650" y="-515"/>
    </contour>
    <contour>
      <point x="1458" y="28" type="curve" smooth="yes"/>
      <point x="1160" y="28"/>
      <point x="1014" y="-84"/>
      <point x="1014" y="-301" type="curve" smooth="yes"/>
      <point x="1014" y="-306" type="line" smooth="yes"/>
      <point x="1014" y="-408"/>
      <point x="1055" y="-497"/>
      <point x="1120" y="-568" type="curve"/>
      <point x="1155" y="-568" type="line"/>
      <point x="1155" y="-558" type="line"/>
      <point x="1092" y="-492"/>
      <point x="1051" y="-406"/>
      <point x="1051" y="-306" type="curve" smooth="yes"/>
      <point x="1051" y="-301" type="line" smooth="yes"/>
      <point x="1051" y="-103"/>
      <point x="1186" y="0"/>
      <point x="1458" y="0" type="curve" smooth="yes"/>
      <point x="1724.27" y="0"/>
      <point x="1864.93" y="-94.4349"/>
      <point x="1872.66" y="-288.811" type="curve"/>
      <point x="1859.82" y="-288.78" type="line"/>
      <point x="1873" y="-319" type="line"/>
      <point x="1873" y="-322" type="line" smooth="yes"/>
      <point x="1873" y="-471"/>
      <point x="1795" y="-547"/>
      <point x="1637" y="-547" type="curve" smooth="yes"/>
      <point x="1495" y="-547"/>
      <point x="1414" y="-490"/>
      <point x="1414" y="-384" type="curve" smooth="yes"/>
      <point x="1414" y="-378" type="line" smooth="yes"/>
      <point x="1414" y="-272"/>
      <point x="1494" y="-215"/>
      <point x="1634" y="-215" type="curve" smooth="yes"/>
      <point x="1756" y="-215"/>
      <point x="1843" y="-263"/>
      <point x="1878" y="-341" type="curve"/>
      <point x="1885" y="-308" type="line"/>
      <point x="1841" y="-229"/>
      <point x="1752" y="-181"/>
      <point x="1634" y="-181" type="curve" smooth="yes"/>
      <point x="1469" y="-181"/>
      <point x="1377" y="-250"/>
      <point x="1377" y="-378" type="curve" smooth="yes"/>
      <point x="1377" y="-384" type="line" smooth="yes"/>
      <point x="1377" y="-512"/>
      <point x="1471" y="-581"/>
      <point x="1637" y="-581" type="curve" smooth="yes"/>
      <point x="1820" y="-581"/>
      <point x="1910" y="-488"/>
      <point x="1910" y="-322" type="curve" smooth="yes"/>
      <point x="1910" y="-313" type="line" smooth="yes"/>
      <point x="1910" y="-83"/>
      <point x="1746" y="28"/>
    </contour>
  </outline>
</glyph>
<glyph name="DaDa.mlm" format="2">
  <advance width="1663"/>
  <outline>
    <contour>
      <point x="1479" y="326" type="curve" smooth="yes"/>
      <point x="1479" y="329" type="line" smooth="yes"/>
      <point x="1479" y="472"/>
      <point x="1391" y="563"/>
      <point x="1216" y="584" type="curve"/>
      <point x="1216" y="588" type="line"/>
      <point x="1377" y="611"/>
      <point x="1459" y="691"/>
      <point x="1459" y="825" type="curve" smooth="yes"/>
      <point x="1459" y="832" type="line" smooth="yes"/>
      <point x="1459" y="1047"/>
      <point x="1264" y="1158"/>
      <point x="883" y="1158" type="curve" smooth="yes"/>
      <point x="411" y="1158"/>
      <point x="179" y="956"/>
      <point x="179" y="542" type="curve" smooth="yes"/>
      <point x="179" y="517" type="line" smooth="yes"/>
      <point x="179" y="315"/>
      <point x="237" y="139"/>
      <point x="325" y="0" type="curve"/>
      <point x="373" y="0" type="line"/>
      <point x="278" y="139"/>
      <point x="218" y="315"/>
      <point x="218" y="517" type="curve" smooth="yes"/>
      <point x="218" y="542" type="line" smooth="yes"/>
      <point x="218" y="933"/>
      <point x="434" y="1123"/>
      <point x="883" y="1123" type="curve" smooth="yes"/>
      <point x="1241" y="1123"/>
      <point x="1420" y="1022"/>
      <point x="1420" y="832" type="curve" smooth="yes"/>
      <point x="1420" y="825" type="line" smooth="yes"/>
      <point x="1420" y="675"/>
      <point x="1309" y="602"/>
      <point x="1092" y="602" type="curve" smooth="yes"/>
      <point x="802" y="602" type="line"/>
      <point x="802" y="568" type="line"/>
      <point x="1096" y="568" type="line" smooth="yes"/>
      <point x="1324" y="568"/>
      <point x="1440" y="486"/>
      <point x="1440" y="329" type="curve" smooth="yes"/>
      <point x="1440" y="326" type="line" smooth="yes"/>
      <point x="1440" y="168"/>
      <point x="1327" y="86"/>
      <point x="1106" y="86" type="curve" smooth="yes"/>
      <point x="802" y="86" type="line"/>
      <point x="802" y="53" type="line"/>
      <point x="1106" y="53" type="line" smooth="yes"/>
      <point x="1326" y="53"/>
      <point x="1440" y="-26"/>
      <point x="1440" y="-181" type="curve" smooth="yes"/>
      <point x="1440" y="-192" type="line" smooth="yes"/>
      <point x="1440" y="-354"/>
      <point x="1317" y="-438"/>
      <point x="1065" y="-438" type="curve" smooth="yes"/>
      <point x="946" y="-438"/>
      <point x="798" y="-419"/>
      <point x="672" y="-375" type="curve"/>
      <point x="679" y="-412" type="line"/>
      <point x="801" y="-454"/>
      <point x="946" y="-473"/>
      <point x="1068" y="-473" type="curve" smooth="yes"/>
      <point x="1343" y="-473"/>
      <point x="1479" y="-379"/>
      <point x="1479" y="-192" type="curve" smooth="yes"/>
      <point x="1479" y="-181" type="line" smooth="yes"/>
      <point x="1479" y="-40"/>
      <point x="1393" y="48"/>
      <point x="1226" y="69" type="curve"/>
      <point x="1226" y="70" type="line"/>
      <point x="1394" y="91"/>
      <point x="1479" y="182"/>
    </contour>
  </outline>
</glyph>
<glyph name="DdaDda.mlm" format="2">
  <advance width="3045"/>
  <outline>
    <component base="Dda.mlm"/>
    <contour>
      <point x="1878" y="-579" type="curve" smooth="yes"/>
      <point x="2031" y="-579"/>
      <point x="2121" y="-521"/>
      <point x="2148" y="-404" type="curve"/>
      <point x="2153" y="-231" type="line"/>
      <point x="2131" y="-231" type="line"/>
      <point x="2131" y="-310" type="line" smooth="yes"/>
      <point x="2131" y="-467"/>
      <point x="2047" y="-545"/>
      <point x="1878" y="-545" type="curve" smooth="yes"/>
      <point x="1708" y="-545"/>
      <point x="1620" y="-464"/>
      <point x="1620" y="-301" type="curve" smooth="yes"/>
      <point x="1620" y="-289" type="line" smooth="yes"/>
      <point x="1620" y="-92"/>
      <point x="1499" y="17"/>
      <point x="1296" y="17" type="curve" smooth="yes"/>
      <point x="1075" y="17"/>
      <point x="964" y="-85"/>
      <point x="964" y="-282" type="curve" smooth="yes"/>
      <point x="964" y="-289" type="line" smooth="yes"/>
      <point x="964" y="-404"/>
      <point x="1016" y="-501"/>
      <point x="1098" y="-567" type="curve"/>
      <point x="1147" y="-567" type="line"/>
      <point x="1053" y="-492"/>
      <point x="1001" y="-401"/>
      <point x="1001" y="-289" type="curve" smooth="yes"/>
      <point x="1001" y="-282" type="line" smooth="yes"/>
      <point x="1001" y="-107"/>
      <point x="1099" y="-17"/>
      <point x="1298" y="-17" type="curve" smooth="yes"/>
      <point x="1483" y="-17"/>
      <point x="1584" y="-111"/>
      <point x="1584" y="-290" type="curve" smooth="yes"/>
      <point x="1584" y="-303" type="line" smooth="yes"/>
      <point x="1584" y="-485"/>
      <point x="1683" y="-579"/>
    </contour>
    <contour>
      <point x="2166" y="-301" type="line"/>
      <point x="2166" y="4" type="line"/>
      <point x="2131" y="4" type="line"/>
      <point x="2131" y="-301" type="line"/>
    </contour>
    <contour>
      <point x="2143" y="-231" type="line"/>
      <point x="2143" y="-404" type="line"/>
      <point x="2150" y="-404" type="line"/>
      <point x="2180" y="-521"/>
      <point x="2276" y="-579"/>
      <point x="2442" y="-579" type="curve" smooth="yes"/>
      <point x="2652" y="-579"/>
      <point x="2758" y="-478"/>
      <point x="2758" y="-283" type="curve" smooth="yes"/>
      <point x="2758" y="-276" type="line" smooth="yes"/>
      <point x="2758" y="-153"/>
      <point x="2713" y="-56"/>
      <point x="2633" y="24" type="curve"/>
      <point x="2586" y="24" type="line"/>
      <point x="2674" y="-61"/>
      <point x="2721" y="-153"/>
      <point x="2721" y="-276" type="curve" smooth="yes"/>
      <point x="2721" y="-283" type="line" smooth="yes"/>
      <point x="2721" y="-458"/>
      <point x="2626" y="-545"/>
      <point x="2442" y="-545" type="curve" smooth="yes"/>
      <point x="2258" y="-545"/>
      <point x="2166" y="-467"/>
      <point x="2166" y="-310" type="curve" smooth="yes"/>
      <point x="2166" y="-231" type="line"/>
    </contour>
  </outline>
</glyph>
<glyph name="GaGa.mlm" format="2">
  <advance width="2184"/>
  <outline>
    <component base="Ga.mlm"/>
    <contour>
      <point x="1291" y="-262" type="line" smooth="yes"/>
      <point x="1291" y="-90"/>
      <point x="1395" y="0"/>
      <point x="1585" y="0" type="curve" smooth="yes"/>
      <point x="1789" y="0"/>
      <point x="1889" y="-91"/>
      <point x="1889" y="-268" type="curve" smooth="yes"/>
      <point x="1889" y="-275" type="line" smooth="yes"/>
      <point x="1889" y="-393"/>
      <point x="1837" y="-489"/>
      <point x="1743" y="-567" type="curve"/>
      <point x="1792" y="-567" type="line"/>
      <point x="1874" y="-497"/>
      <point x="1926" y="-396"/>
      <point x="1926" y="-275" type="curve" smooth="yes"/>
      <point x="1926" y="-268" type="line" smooth="yes"/>
      <point x="1926" y="-69"/>
      <point x="1813" y="34"/>
      <point x="1585" y="34" type="curve" smooth="yes"/>
      <point x="1369" y="34"/>
      <point x="1255" y="-67"/>
      <point x="1255" y="-260" type="curve" smooth="yes"/>
      <point x="1255" y="-285" type="line" smooth="yes"/>
      <point x="1255" y="-462"/>
      <point x="1153" y="-547"/>
      <point x="967" y="-547" type="curve" smooth="yes"/>
      <point x="763" y="-547"/>
      <point x="661" y="-462"/>
      <point x="661" y="-295" type="curve" smooth="yes"/>
      <point x="661" y="-288" type="line" smooth="yes"/>
      <point x="661" y="-176"/>
      <point x="702" y="-83"/>
      <point x="802" y="-1" type="curve"/>
      <point x="761" y="2" type="line"/>
      <point x="672" y="-72"/>
      <point x="624" y="-168"/>
      <point x="624" y="-286" type="curve" smooth="yes"/>
      <point x="624" y="-293" type="line" smooth="yes"/>
      <point x="624" y="-483"/>
      <point x="739" y="-581"/>
      <point x="967" y="-581" type="curve" smooth="yes"/>
      <point x="1179" y="-581"/>
      <point x="1291" y="-482"/>
      <point x="1291" y="-287" type="curve" smooth="yes"/>
    </contour>
  </outline>
</glyph>
<glyph name="GaNa.mlm" format="2">
  <advance width="3068"/>
  <outline>
    <contour>
      <point x="1952" y="621" type="line"/>
      <point x="1915" y="621" type="line"/>
      <point x="1915" y="7" type="line"/>
      <point x="1952" y="7" type="line"/>
    </contour>
    <contour>
      <point x="1515" y="1153" type="curve" smooth="yes"/>
      <point x="1221" y="1153"/>
      <point x="1068" y="994"/>
      <point x="1068" y="681" type="curve" smooth="yes"/>
      <point x="1068" y="584"/>
      <point x="1068" y="519"/>
      <point x="1068" y="422" type="curve" smooth="yes"/>
      <point x="1068" y="146"/>
      <point x="927" y="3"/>
      <point x="665" y="3" type="curve" smooth="yes"/>
      <point x="365" y="3"/>
      <point x="215" y="171"/>
      <point x="215" y="509" type="curve" smooth="yes"/>
      <point x="215" y="535" type="line" smooth="yes"/>
      <point x="215" y="781"/>
      <point x="313" y="968"/>
      <point x="484" y="1118" type="curve"/>
      <point x="431" y="1118" type="line"/>
      <point x="267" y="970"/>
      <point x="176" y="778"/>
      <point x="176" y="535" type="curve" smooth="yes"/>
      <point x="176" y="509" type="line" smooth="yes"/>
      <point x="176" y="152"/>
      <point x="337" y="-32"/>
      <point x="665" y="-32" type="curve" smooth="yes"/>
      <point x="950" y="-32"/>
      <point x="1105" y="123"/>
      <point x="1105" y="417" type="curve" smooth="yes"/>
      <point x="1105" y="514"/>
      <point x="1105" y="579"/>
      <point x="1105" y="676" type="curve" smooth="yes"/>
      <point x="1105" y="970"/>
      <point x="1246" y="1118"/>
      <point x="1515" y="1118" type="curve" smooth="yes"/>
      <point x="1779" y="1118"/>
      <point x="1915" y="964"/>
      <point x="1915" y="656" type="curve" smooth="yes"/>
      <point x="1915" y="480" type="line"/>
      <point x="1932" y="480" type="line"/>
      <point x="1932" y="806" type="line"/>
      <point x="1895" y="1033"/>
      <point x="1753" y="1153"/>
    </contour>
    <contour>
      <point x="1952" y="468" type="line"/>
      <point x="1952" y="656" type="line" smooth="yes"/>
      <point x="1952" y="962"/>
      <point x="2095" y="1118"/>
      <point x="2378" y="1118" type="curve" smooth="yes"/>
      <point x="2696" y="1118"/>
      <point x="2853" y="936"/>
      <point x="2853" y="584" type="curve" smooth="yes"/>
      <point x="2853" y="568" type="line" smooth="yes"/>
      <point x="2853" y="332"/>
      <point x="2762" y="144"/>
      <point x="2612" y="0" type="curve"/>
      <point x="2667" y="0" type="line"/>
      <point x="2806" y="146"/>
      <point x="2892" y="329"/>
      <point x="2892" y="568" type="curve" smooth="yes"/>
      <point x="2892" y="584" type="line" smooth="yes"/>
      <point x="2892" y="959"/>
      <point x="2722" y="1153"/>
      <point x="2380" y="1153" type="curve" smooth="yes"/>
      <point x="2127" y="1153"/>
      <point x="1977" y="1033"/>
      <point x="1935" y="806" type="curve"/>
      <point x="1922" y="806" type="line"/>
      <point x="1922" y="468" type="line"/>
    </contour>
  </outline>
</glyph>
<glyph name="HaNa.mlm" format="2">
  <advance width="3649"/>
  <outline>
    <contour>
      <point x="630" y="741" type="curve" smooth="yes"/>
      <point x="319" y="741"/>
      <point x="167" y="604"/>
      <point x="167" y="345" type="curve" smooth="yes"/>
      <point x="167" y="331" type="line" smooth="yes"/>
      <point x="167" y="203"/>
      <point x="217" y="84"/>
      <point x="310" y="0" type="curve"/>
      <point x="363" y="0" type="line"/>
      <point x="263" y="86"/>
      <point x="206" y="203"/>
      <point x="206" y="331" type="curve" smooth="yes"/>
      <point x="206" y="345" type="line" smooth="yes"/>
      <point x="206" y="583"/>
      <point x="349" y="706"/>
      <point x="630" y="706" type="curve" smooth="yes"/>
      <point x="911" y="706"/>
      <point x="1054" y="583"/>
      <point x="1054" y="345" type="curve" smooth="yes"/>
      <point x="1054" y="331" type="line" smooth="yes"/>
      <point x="1054" y="206"/>
      <point x="995" y="89"/>
      <point x="891" y="5" type="curve"/>
      <point x="891" y="0" type="line"/>
      <point x="933" y="0" type="line"/>
      <point x="1038" y="84"/>
      <point x="1093" y="203"/>
      <point x="1093" y="331" type="curve" smooth="yes"/>
      <point x="1093" y="345" type="line" smooth="yes"/>
      <point x="1093" y="604"/>
      <point x="941" y="741"/>
    </contour>
    <contour>
      <point x="936" y="33" type="line"/>
      <point x="921" y="0" type="line"/>
      <point x="1808" y="0" type="line"/>
      <point x="1742" y="33" type="line"/>
    </contour>
    <contour>
      <point x="2486" y="621" type="line"/>
      <point x="2486" y="7" type="line"/>
      <point x="2523" y="7" type="line"/>
      <point x="2523" y="621" type="line"/>
    </contour>
    <contour>
      <point x="2053" y="1153" type="curve" smooth="yes"/>
      <point x="1707" y="1153"/>
      <point x="1537" y="959"/>
      <point x="1537" y="584" type="curve" smooth="yes"/>
      <point x="1537" y="568" type="line" smooth="yes"/>
      <point x="1537" y="330"/>
      <point x="1621" y="148"/>
      <point x="1765" y="0" type="curve"/>
      <point x="1811" y="0" type="line"/>
      <point x="1811" y="5" type="line"/>
      <point x="1663" y="151"/>
      <point x="1575" y="337"/>
      <point x="1575" y="568" type="curve" smooth="yes"/>
      <point x="1575" y="584" type="line" smooth="yes"/>
      <point x="1575" y="936"/>
      <point x="1733" y="1118"/>
      <point x="2055" y="1118" type="curve" smooth="yes"/>
      <point x="2342" y="1118"/>
      <point x="2486" y="962"/>
      <point x="2486" y="656" type="curve" smooth="yes"/>
      <point x="2486" y="480" type="line"/>
      <point x="2503" y="480" type="line"/>
      <point x="2503" y="799" type="line"/>
      <point x="2463" y="1031"/>
      <point x="2312" y="1153"/>
    </contour>
    <contour>
      <point x="2523" y="468" type="line"/>
      <point x="2523" y="656" type="line" smooth="yes"/>
      <point x="2523" y="962"/>
      <point x="2667" y="1118"/>
      <point x="2954" y="1118" type="curve" smooth="yes"/>
      <point x="3275" y="1118"/>
      <point x="3434" y="936"/>
      <point x="3434" y="584" type="curve" smooth="yes"/>
      <point x="3434" y="568" type="line" smooth="yes"/>
      <point x="3434" y="332"/>
      <point x="3343" y="144"/>
      <point x="3193" y="-2.27374e-13" type="curve"/>
      <point x="3248" y="-2.27374e-13" type="line"/>
      <point x="3387" y="146"/>
      <point x="3473" y="329"/>
      <point x="3473" y="568" type="curve" smooth="yes"/>
      <point x="3473" y="584" type="line" smooth="yes"/>
      <point x="3473" y="959"/>
      <point x="3302" y="1153"/>
      <point x="2956" y="1153" type="curve" smooth="yes"/>
      <point x="2697" y="1153"/>
      <point x="2546" y="1031"/>
      <point x="2506" y="799" type="curve"/>
      <point x="2493" y="799" type="line"/>
      <point x="2493" y="468" type="line"/>
    </contour>
  </outline>
</glyph>
<glyph name="JaJa_Alt.mlm" format="2">
  <advance width="4592"/>
  <outline>
    <contour>
      <point x="2688" y="372" type="line"/>
      <point x="2689" y="367" type="line"/>
      <point x="2548" y="349"/>
      <point x="2471" y="265"/>
      <point x="2471" y="146" type="curve" smooth="yes"/>
      <point x="2471" y="143" type="line" smooth="yes"/>
      <point x="2471" y="-10"/>
      <point x="2564" y="-90"/>
      <point x="2748" y="-90" type="curve" smooth="yes"/>
      <point x="2947" y="-90"/>
      <point x="3111.13" y="-22.2734"/>
      <point x="3288" y="62" type="curve" smooth="yes"/>
      <point x="3628" y="224" type="line" smooth="yes"/>
      <point x="3772.97" y="293.072"/>
      <point x="3924" y="348"/>
      <point x="4102" y="348" type="curve" smooth="yes"/>
      <point x="4278" y="348"/>
      <point x="4364" y="288"/>
      <point x="4364" y="160" type="curve" smooth="yes"/>
      <point x="4364" y="157" type="line" smooth="yes"/>
      <point x="4364" y="23"/>
      <point x="4272" y="-42"/>
      <point x="4089" y="-42" type="curve" smooth="yes"/>
      <point x="3908" y="-42"/>
      <point x="3778" y="14"/>
      <point x="3672" y="95" type="curve"/>
      <point x="3676" y="53" type="line"/>
      <point x="3776" y="-23"/>
      <point x="3918" y="-77"/>
      <point x="4089" y="-77" type="curve" smooth="yes"/>
      <point x="4297" y="-77"/>
      <point x="4403" y="2"/>
      <point x="4403" y="157" type="curve" smooth="yes"/>
      <point x="4403" y="160" type="line" smooth="yes"/>
      <point x="4403" y="289"/>
      <point x="4322.03" y="360.365"/>
      <point x="4165" y="373" type="curve" smooth="yes"/>
      <point x="4148.03" y="374.366"/>
      <point x="4130" y="377"/>
      <point x="4111" y="377" type="curve"/>
      <point x="3869" y="348" type="line"/>
      <point x="3869" y="343" type="line"/>
      <point x="3777" y="322"/>
      <point x="3690.14" y="292.709"/>
      <point x="3607" y="253" type="curve" smooth="yes"/>
      <point x="3272" y="93" type="line" smooth="yes"/>
      <point x="3112.16" y="16.6595"/>
      <point x="2947" y="-55"/>
      <point x="2748" y="-55" type="curve" smooth="yes"/>
      <point x="2591" y="-55"/>
      <point x="2510" y="10"/>
      <point x="2510" y="144" type="curve" smooth="yes"/>
      <point x="2510" y="148" type="line" smooth="yes"/>
      <point x="2510" y="273"/>
      <point x="2603" y="345"/>
      <point x="2771" y="345" type="curve" smooth="yes"/>
      <point x="3577" y="345" type="line" smooth="yes"/>
      <point x="3695" y="345"/>
      <point x="3769" y="345"/>
      <point x="3887" y="345" type="curve"/>
      <point x="4165" y="368" type="line"/>
      <point x="4165" y="374" type="line"/>
      <point x="4314" y="420"/>
      <point x="4398" y="545"/>
      <point x="4398" y="750" type="curve" smooth="yes"/>
      <point x="4398" y="764" type="line" smooth="yes"/>
      <point x="4398" y="1014"/>
      <point x="4257" y="1153"/>
      <point x="3968" y="1153" type="curve" smooth="yes"/>
      <point x="3723" y="1153"/>
      <point x="3584" y="1058"/>
      <point x="3554" y="859" type="curve"/>
      <point x="3553" y="859" type="line"/>
      <point x="3508" y="1049"/>
      <point x="3335" y="1153"/>
      <point x="3042" y="1153" type="curve" smooth="yes"/>
      <point x="2665" y="1153"/>
      <point x="2476" y="1007"/>
      <point x="2476" y="707" type="curve" smooth="yes"/>
      <point x="2476" y="695" type="line" smooth="yes"/>
      <point x="2476" y="521"/>
      <point x="2547.98" y="412.925"/>
      <point x="2689" y="369" type="curve" smooth="yes"/>
      <point x="2730.98" y="355.925"/>
      <point x="2779" y="348"/>
      <point x="2833" y="348" type="curve" smooth="yes"/>
      <point x="3043" y="348"/>
      <point x="3164" y="445"/>
      <point x="3164" y="623" type="curve" smooth="yes"/>
      <point x="3164" y="634" type="line" smooth="yes"/>
      <point x="3164" y="810"/>
      <point x="3044" y="910"/>
      <point x="2838" y="910" type="curve" smooth="yes"/>
      <point x="2668" y="910"/>
      <point x="2535" y="823"/>
      <point x="2498" y="690" type="curve"/>
      <point x="2512" y="674" type="line"/>
      <point x="2559" y="798"/>
      <point x="2675" y="875"/>
      <point x="2838" y="875" type="curve" smooth="yes"/>
      <point x="3020" y="875"/>
      <point x="3125" y="787"/>
      <point x="3125" y="634" type="curve" smooth="yes"/>
      <point x="3125" y="623" type="line" smooth="yes"/>
      <point x="3125" y="465"/>
      <point x="3018" y="377"/>
      <point x="2833" y="377" type="curve" smooth="yes"/>
      <point x="2623" y="377"/>
      <point x="2513" y="488"/>
      <point x="2513" y="695" type="curve"/>
      <point x="2513" y="697" type="line"/>
      <point x="2517" y="705" type="line"/>
      <point x="2513" y="705" type="line"/>
      <point x="2513" y="707" type="line"/>
      <point x="2513" y="984"/>
      <point x="2688" y="1118"/>
      <point x="3043" y="1118" type="curve" smooth="yes"/>
      <point x="3374" y="1118"/>
      <point x="3539" y="977"/>
      <point x="3539" y="729" type="curve" smooth="yes"/>
      <point x="3539" y="524" type="line"/>
      <point x="3576" y="524" type="line"/>
      <point x="3576" y="759" type="line" smooth="yes"/>
      <point x="3576" y="1002"/>
      <point x="3704" y="1118"/>
      <point x="3966" y="1118" type="curve" smooth="yes"/>
      <point x="4228" y="1118"/>
      <point x="4359" y="993"/>
      <point x="4359" y="764" type="curve" smooth="yes"/>
      <point x="4359" y="750" type="line" smooth="yes"/>
      <point x="4359" y="505"/>
      <point x="4234" y="377"/>
      <point x="3993" y="377" type="curve" smooth="yes"/>
      <point x="2970" y="377" type="line"/>
    </contour>
    <contour>
      <point x="1534" y="-46" type="curve" smooth="yes"/>
      <point x="455" y="-46" type="line" smooth="yes"/>
      <point x="308" y="-46"/>
      <point x="226" y="22"/>
      <point x="226" y="139" type="curve" smooth="yes"/>
      <point x="226" y="143" type="line" smooth="yes"/>
      <point x="226" y="270"/>
      <point x="319" y="343"/>
      <point x="487" y="343" type="curve" smooth="yes"/>
      <point x="1712" y="343" type="line" smooth="yes"/>
      <point x="1963" y="343"/>
      <point x="2114" y="477"/>
      <point x="2114" y="750" type="curve" smooth="yes"/>
      <point x="2114" y="764" type="line" smooth="yes"/>
      <point x="2114" y="1014"/>
      <point x="1973" y="1153"/>
      <point x="1684" y="1153" type="curve" smooth="yes"/>
      <point x="1439" y="1153"/>
      <point x="1300" y="1058"/>
      <point x="1270" y="859" type="curve"/>
      <point x="1269" y="859" type="line"/>
      <point x="1224" y="1049"/>
      <point x="1051" y="1153"/>
      <point x="758" y="1153" type="curve" smooth="yes"/>
      <point x="381" y="1153"/>
      <point x="192" y="1007"/>
      <point x="192" y="707" type="curve" smooth="yes"/>
      <point x="192" y="695" type="line" smooth="yes"/>
      <point x="192" y="519"/>
      <point x="264" y="411"/>
      <point x="405" y="367" type="curve" smooth="yes"/>
      <point x="447" y="354"/>
      <point x="494" y="347"/>
      <point x="548" y="347" type="curve" smooth="yes"/>
      <point x="758" y="347"/>
      <point x="880" y="444"/>
      <point x="880" y="623" type="curve" smooth="yes"/>
      <point x="880" y="634" type="line" smooth="yes"/>
      <point x="880" y="810"/>
      <point x="760" y="910"/>
      <point x="554" y="910" type="curve" smooth="yes"/>
      <point x="384" y="910"/>
      <point x="250" y="823"/>
      <point x="213" y="690" type="curve"/>
      <point x="228" y="674" type="line"/>
      <point x="275" y="798"/>
      <point x="391" y="875"/>
      <point x="554" y="875" type="curve" smooth="yes"/>
      <point x="736" y="875"/>
      <point x="841" y="787"/>
      <point x="841" y="634" type="curve" smooth="yes"/>
      <point x="841" y="623" type="line" smooth="yes"/>
      <point x="841" y="463"/>
      <point x="733" y="375"/>
      <point x="548" y="375" type="curve" smooth="yes"/>
      <point x="338" y="375"/>
      <point x="229" y="487"/>
      <point x="229" y="695" type="curve"/>
      <point x="229" y="697" type="line"/>
      <point x="233" y="705" type="line"/>
      <point x="229" y="705" type="line"/>
      <point x="229" y="707" type="line"/>
      <point x="229" y="984"/>
      <point x="404" y="1118"/>
      <point x="759" y="1118" type="curve" smooth="yes"/>
      <point x="1090" y="1118"/>
      <point x="1255" y="977"/>
      <point x="1255" y="729" type="curve" smooth="yes"/>
      <point x="1255" y="524" type="line"/>
      <point x="1291" y="524" type="line"/>
      <point x="1291" y="759" type="line" smooth="yes"/>
      <point x="1291" y="1002"/>
      <point x="1420" y="1118"/>
      <point x="1682" y="1118" type="curve" smooth="yes"/>
      <point x="1944" y="1118"/>
      <point x="2075" y="993"/>
      <point x="2075" y="764" type="curve" smooth="yes"/>
      <point x="2075" y="750" type="line" smooth="yes"/>
      <point x="2075" y="505"/>
      <point x="1950" y="377"/>
      <point x="1709" y="377" type="curve" smooth="yes"/>
      <point x="685" y="377" type="line"/>
      <point x="404" y="370" type="line"/>
      <point x="405" y="365" type="line"/>
      <point x="264" y="347"/>
      <point x="187" y="263"/>
      <point x="187" y="143" type="curve" smooth="yes"/>
      <point x="187" y="139" type="line" smooth="yes"/>
      <point x="187" y="2"/>
      <point x="277" y="-79"/>
      <point x="457" y="-79" type="curve" smooth="yes"/>
      <point x="1534" y="-79" type="line" smooth="yes"/>
      <point x="1916.5" y="-79"/>
      <point x="2081.82" y="46.8217"/>
      <point x="2253" y="294" type="curve" smooth="yes"/>
      <point x="2503" y="655" type="line"/>
      <point x="2479" y="685" type="line"/>
      <point x="2223" y="315" type="line" smooth="yes"/>
      <point x="2057.28" y="75.4787"/>
      <point x="1900.49" y="-46"/>
    </contour>
  </outline>
</glyph>
